<svg width="29" height="38" viewBox="0 0 29 38" fill="none" xmlns="http://www.w3.org/2000/svg">
<path d="M22.9868 17.2997C22.2571 17.4118 21.5761 17.7482 20.8508 17.8991C20.5589 17.9595 20.2626 17.9983 19.9707 18.0285C20.0459 17.6749 20.0945 17.3127 20.1166 16.9504C20.8906 16.6874 21.6955 16.4718 22.4163 16.0923C22.4959 16.0492 22.465 15.9026 22.3677 15.9155C21.5982 16.0018 20.8552 16.2734 20.1299 16.5451C20.1299 14.8633 19.5638 13.1816 18.3609 11.9914C18.3565 11.9742 18.3521 11.9569 18.3432 11.9397C18.0867 11.3532 17.8258 10.7711 17.5648 10.1889C17.4499 9.9345 17.0297 9.95606 16.9103 10.1889C16.3619 11.2411 16.3796 12.1035 15.044 12.2933C13.8986 12.4571 12.7488 12.6512 11.6387 12.9789C10.0466 13.4489 8.44124 14.1605 7.36215 15.4239C7.12333 14.9841 6.8801 14.8159 6.36266 14.5874C6.08405 14.4623 5.80101 14.665 5.8585 14.9668C6.26979 17.1186 6.76953 19.4386 8.28645 21.1031C8.22896 21.1419 8.16704 21.1764 8.10955 21.2152C7.36657 21.6895 6.45554 22.1682 5.93368 22.8797C5.86292 22.9746 5.98233 23.1255 6.09289 23.0824C6.96412 22.7547 7.72037 22.0388 8.49873 21.5386C8.54296 21.5084 8.5916 21.4826 8.63583 21.4524C8.75966 21.5688 8.89233 21.6852 9.03385 21.793C9.12673 21.8663 9.2196 21.931 9.31689 21.9957C9.02059 22.1941 8.73755 22.4011 8.46335 22.6167C7.90169 23.0608 7.14545 23.574 6.87567 24.2467C6.80491 24.4235 7.03046 24.5313 7.16756 24.4666C7.81324 24.1691 8.32625 23.4705 8.87022 23.0134C9.17095 22.7633 9.48495 22.5261 9.79894 22.2932C11.652 23.2894 14.0799 23.2204 16.0524 22.6124C17.9983 22.013 19.2719 20.439 19.8203 18.6063C21.0365 18.5675 22.35 18.2613 23.1858 17.6145C23.3627 17.4765 23.1637 17.2566 22.9913 17.2868L22.9868 17.2997ZM19.294 16.8469C18.6926 17.0496 18.0381 17.2695 17.6135 17.6835C17.5958 17.7008 17.6135 17.7266 17.6312 17.7266C18.1752 17.7266 18.7191 17.511 19.2498 17.2911C19.2189 17.5326 19.1791 17.7741 19.1304 18.0112C19.1216 18.0457 19.1127 18.0759 19.1039 18.1061C18.8651 18.1234 18.6218 18.1406 18.3786 18.1622C18.1796 18.1794 18.1 18.4899 18.3255 18.5287C18.5245 18.5632 18.7368 18.5891 18.9624 18.602C18.3167 20.577 16.7555 21.7887 14.5708 22.0906C13.1335 22.2933 11.7272 22.2631 10.511 21.7499C10.595 21.6809 10.6834 21.6162 10.7675 21.5472C10.9223 21.4222 10.7232 21.2368 10.5729 21.3014C10.4048 21.3748 10.2368 21.4567 10.0731 21.5429C9.80779 21.4006 9.55571 21.2325 9.31247 21.0341C9.85201 20.7064 10.3871 20.3743 10.8825 19.9862C10.9532 19.9302 10.878 19.8094 10.794 19.8353C10.1351 20.0423 9.52917 20.3484 8.94098 20.6934C8.79946 20.5511 8.66236 20.4002 8.53411 20.2363C7.45502 18.8564 7.01719 17.1617 6.65897 15.4843C6.80934 15.5662 6.9597 15.6438 7.11449 15.7215C7.09238 15.825 7.22947 15.9371 7.32677 15.8681C8.62698 14.9453 9.99796 14.2467 11.4441 13.7465C11.7227 14.2165 11.966 14.7038 12.1694 15.2126C12.2313 15.3722 12.5011 15.3032 12.4348 15.1393C12.2313 14.6262 11.9881 14.1303 11.7095 13.6516C11.9085 13.5869 12.1119 13.5222 12.3153 13.4662C12.5763 13.9966 12.7753 14.5442 12.9168 15.1178C12.9566 15.2859 13.2264 15.2169 13.1822 15.0445C13.0406 14.4709 12.8372 13.9233 12.5807 13.3929C12.8284 13.3282 13.0804 13.2678 13.3325 13.2118C13.3325 13.2204 13.3325 13.229 13.3325 13.2376C13.4696 13.7767 13.6731 14.2941 13.934 14.7857C14.0136 14.941 14.2524 14.803 14.1728 14.6477C13.9207 14.1734 13.735 13.6818 13.6023 13.1643C13.6023 13.16 13.5979 13.1557 13.5979 13.1514C14.5177 12.9617 15.4642 12.8409 16.4371 12.7935C16.6007 12.7849 16.76 12.6857 16.7998 12.5261C16.9147 12.069 17.0474 11.6723 17.2155 11.2713C17.3481 11.5688 17.4764 11.8664 17.6091 12.1596C17.6091 12.2415 17.64 12.3278 17.7196 12.4011C18.9402 13.5611 19.3825 15.2083 19.2852 16.8297L19.294 16.8469Z" fill="#818181"/>
<path d="M16.499 18.2571C16.2956 18.9211 15.6764 19.2532 15.0175 19.2445C14.9688 18.9211 14.9114 18.5977 14.8317 18.2786C14.8273 18.2527 14.8141 18.2355 14.8008 18.2139C15.0042 18.0414 15.1679 17.8258 15.2607 17.5671C15.3315 17.3644 15.1369 17.1014 14.9114 17.1229C14.5222 17.1574 14.1374 17.2264 13.7703 17.3644C13.5404 17.4507 13.1114 17.5887 13.1114 17.8862C12.9964 17.9681 12.9787 18.1708 13.076 18.2786C13.3679 18.6107 13.9207 18.6365 14.3187 18.4942C14.3364 18.7659 14.3674 19.0333 14.4028 19.3006C14.3762 19.3524 14.3718 19.417 14.4028 19.4774C14.0578 19.637 13.7084 19.7534 13.3281 19.8267C13.1026 19.8698 12.877 19.8957 12.647 19.9043C12.5497 19.9043 12.4569 19.9043 12.3596 19.9043C12.3286 19.8914 12.3065 19.8871 12.28 19.8828C12.2623 19.7577 12.1738 19.6456 12.0235 19.6499C11.8068 19.6499 11.6254 19.7577 11.6033 19.9949C11.5768 20.3053 11.8775 20.4045 12.1296 20.439C13.1114 20.5684 14.0578 20.3657 14.9246 19.9129C14.9777 19.8871 15.0086 19.8439 15.0308 19.8008C15.9197 19.969 16.9413 19.3006 17.127 18.4252C17.2111 18.0285 16.6184 17.8603 16.499 18.2571Z" fill="#818181"/>
<path d="M10.9267 17.9681C10.082 17.511 8.95868 18.0371 8.57392 18.8391C8.38817 19.2272 8.98079 19.5636 9.16653 19.1755C9.454 18.5675 10.0643 18.3907 10.7056 18.4855C11.0107 18.533 11.2407 18.1362 10.9311 17.9681H10.9267Z" fill="#818181"/>
<path d="M18.4803 15.6569C17.6577 15.4499 16.7379 15.6397 16.2116 16.321C16.0391 16.5452 16.3708 16.8212 16.5919 16.6918C17.1226 16.377 17.6577 16.1959 18.2769 16.377C18.7501 16.515 18.9579 15.7776 18.4803 15.6569Z" fill="#818181"/>
<path d="M10.9178 32.9313L10.4712 31.836C10.5508 31.905 10.7011 31.905 10.7409 31.7756C10.9267 31.2107 11.1301 30.469 10.6481 29.9861C10.3297 29.6627 9.79896 29.5592 9.44516 29.8783C9.37882 29.9343 9.38324 30.0076 9.41862 30.068C9.41862 30.0939 9.41862 30.1197 9.42747 30.1499C9.82549 31.1288 10.2235 32.1077 10.626 33.0865C10.7056 33.2763 10.993 33.1253 10.9134 32.9356L10.9178 32.9313ZM10.5331 30.3612C10.7498 30.7623 10.5596 31.2797 10.4314 31.6808C10.427 31.6937 10.4314 31.7066 10.427 31.7239L9.75031 30.0637C10.0245 29.9084 10.3916 30.1025 10.5331 30.3612Z" fill="#818181"/>
<path d="M13.4696 31.4781C13.3723 31.3488 13.2706 31.2194 13.1733 31.0901C13.1999 30.9866 13.1379 30.8701 13.0185 30.8874C12.5895 30.3311 12.165 29.7705 11.736 29.2142C11.6476 29.0978 11.5105 29.1711 11.4707 29.2789C11.4397 29.3048 11.4176 29.3393 11.4176 29.3867C11.3557 30.3699 11.3866 31.3445 11.5105 32.3233C11.537 32.526 11.8554 32.4527 11.8289 32.25C11.8023 32.0517 11.7847 31.8533 11.767 31.6549C12.1429 31.5256 12.5188 31.3919 12.8947 31.2625L13.2264 31.6938C13.3546 31.8576 13.5935 31.6377 13.4652 31.4738L13.4696 31.4781ZM11.7537 31.3229C11.7227 30.7968 11.7139 30.2707 11.736 29.7446L12.6957 30.9952C12.3817 31.103 12.0677 31.2151 11.7537 31.3229Z" fill="#818181"/>
<path d="M15.5305 30.9737C15.4111 30.6028 15.1325 30.2923 14.8229 30.0638C14.6372 29.9258 14.4293 29.8266 14.2214 29.7274C14.0578 29.6671 13.903 29.6024 13.7482 29.5291C13.5404 29.0763 13.7571 28.8779 14.3983 28.9297C14.5089 29.1065 14.7964 28.9555 14.6858 28.7787C14.2922 28.1362 13.2662 28.6666 13.2618 29.3221C13.2573 29.6671 13.5713 29.7964 13.8411 29.9258C14.2436 30.1155 14.6283 30.2449 14.929 30.5899C15.4023 31.1289 15.4111 32.0991 14.5974 32.3622C14.3983 32.4269 14.4735 32.7417 14.6725 32.6727C15.3978 32.4398 15.7605 31.6852 15.5305 30.9693V30.9737Z" fill="#818181"/>
<path d="M17.273 31.1202C17.2243 30.7623 17.0518 30.4302 16.7821 30.1888C16.6273 30.0508 16.4548 29.9645 16.2691 29.874C16.1099 29.8093 15.9551 29.736 15.8003 29.654C15.243 29.3781 15.3978 28.99 16.2602 28.4984C16.4637 28.5588 16.5609 28.2526 16.3575 28.1922C15.6278 27.9809 14.8317 28.5243 15.0838 29.322C15.2121 29.7317 15.5924 29.9128 15.9595 30.0896C16.2823 30.2448 16.5919 30.3871 16.7865 30.7062C16.9855 31.0296 16.9678 31.2496 16.844 31.5644C16.844 31.5557 16.7688 31.6765 16.698 31.7972C16.6671 31.7282 16.5831 31.6765 16.5123 31.7023C16.4902 31.711 16.4725 31.7153 16.4504 31.7196C16.3752 31.7455 16.3354 31.7929 16.3266 31.8705C16.3266 31.8878 16.3221 31.905 16.3177 31.9223C16.3089 31.9913 16.3708 32.0603 16.4327 32.0818C17.1005 32.2845 17.3482 31.6851 17.273 31.1288V31.1202Z" fill="#818181"/>
<path d="M18.0159 29.417C18.0159 29.417 18.0204 29.4126 18.0248 29.4083C18.3299 28.9685 19.1614 28.4726 18.7855 27.8301C18.4317 27.2307 17.6666 27.5541 17.2243 27.8344C17.1226 27.8991 17.1359 28.0241 17.1978 28.0931C17.1978 28.1061 17.1978 28.1233 17.2066 28.1405C17.4676 28.7356 17.6754 29.3437 17.8435 29.9646C17.8965 30.163 18.2194 30.0897 18.1619 29.8913C18.1177 29.7317 18.0646 29.5765 18.0159 29.417ZM18.5113 28.3087C18.414 28.6063 18.1309 28.8176 17.9054 29.0504C17.786 28.7054 17.6577 28.3648 17.5162 28.0327C17.6577 27.9422 17.8037 27.8603 17.9673 27.8258C18.2901 27.7568 18.6263 27.9508 18.5113 28.3087Z" fill="#818181"/>
<path d="M20.5987 27.0324C20.1166 26.7305 19.4046 27.0194 19.4621 27.6231C19.4621 27.6404 19.471 27.6576 19.4798 27.6749C19.3825 28.27 19.3427 29.0117 19.984 29.3265C20.4837 29.5679 20.9658 29.3092 21.0675 28.7874C21.178 28.2053 21.1692 27.3946 20.5943 27.0324H20.5987ZM20.7181 28.8564C20.5191 29.279 20.0282 29.0893 19.8513 28.7788C19.6611 28.4468 19.7584 27.9983 19.8159 27.649C19.8203 27.6102 19.8159 27.58 19.7982 27.5585C19.8247 27.2092 20.2449 27.1617 20.497 27.373C20.6473 27.4981 20.7181 27.6663 20.7623 27.8517C20.8198 28.1061 20.8375 28.6063 20.7181 28.8607V28.8564Z" fill="#818181"/>
<path d="M23.6767 27.9293C23.5883 28.3476 22.947 28.0285 22.5092 27.8431C22.8365 27.5283 23.0178 27.0453 22.7126 26.6486C22.434 26.2864 21.8812 26.2131 21.5451 26.5322C21.439 26.6313 21.5141 26.7693 21.6203 26.8038C21.806 27.4075 21.9918 28.0069 22.1775 28.6106C22.2394 28.809 22.5579 28.7357 22.4959 28.5373C22.4517 28.395 22.4075 28.2484 22.3633 28.1061C22.7348 28.2225 23.0311 28.5158 23.4512 28.464C23.7165 28.4295 23.9333 28.2958 23.9907 28.0285C24.035 27.8258 23.721 27.7309 23.6767 27.9336V27.9293ZM22.4738 26.8771C22.6419 27.1574 22.4561 27.4765 22.2262 27.6663C22.1245 27.3342 22.0227 27.0065 21.921 26.6745C22.12 26.6098 22.3588 26.6874 22.4694 26.8728L22.4738 26.8771Z" fill="#818181"/>
<path d="M25.1627 28.0801C24.8841 27.3255 24.6055 26.5708 24.3269 25.8205C24.3269 25.8162 24.3224 25.8119 24.318 25.8076L25.1539 25.4842C25.3485 25.4066 25.1937 25.1263 24.9991 25.2039C24.4065 25.4324 23.8094 25.661 23.2168 25.8895C23.0222 25.9671 23.177 26.2474 23.3716 26.1698C23.5839 26.0879 23.8006 26.0059 24.0129 25.924C24.2871 26.6657 24.5612 27.4117 24.8399 28.1534C24.9106 28.3475 25.2335 28.2742 25.1583 28.0801H25.1627Z" fill="#818181"/>
<path d="M10.8338 25.1609C9.40977 25.1609 9.40977 27.317 10.8338 27.317C12.2579 27.317 12.2579 25.1609 10.8338 25.1609Z" fill="#818181"/>
<path d="M8.80389 25.6525C8.26877 25.6525 8.26877 26.4632 8.80389 26.4632C9.33901 26.4632 9.33901 25.6525 8.80389 25.6525Z" fill="#818181"/>
<path d="M9.35669 24.6649C8.82157 24.6649 8.82157 25.4756 9.35669 25.4756C9.89182 25.4756 9.89182 24.6649 9.35669 24.6649Z" fill="#818181"/>
<path d="M10.4623 24.0353C9.9272 24.0353 9.9272 24.846 10.4623 24.846C10.9974 24.846 10.9974 24.0353 10.4623 24.0353Z" fill="#818181"/>
<path d="M19.4002 6.56238C17.9761 6.56238 17.9761 8.71848 19.4002 8.71848C20.8242 8.71848 20.8242 6.56238 19.4002 6.56238Z" fill="#818181"/>
<path d="M28.1921 30.288C27.1617 26.0319 26.1091 21.78 25.0521 17.5282C24.5391 15.4584 24.0217 13.3885 23.5131 11.3143C22.9824 9.15825 22.6021 6.87279 21.7795 4.80293C21.7264 4.66926 21.5849 4.60457 21.4566 4.60457C21.4257 4.58732 21.3903 4.57439 21.3505 4.5787C20.2847 4.60888 19.2189 4.92367 18.1752 5.24709C17.702 3.86287 17.2199 2.47435 16.6229 1.13757C16.5388 0.943519 16.2381 0.896085 16.07 0.995266C13.3546 2.58215 10.5065 3.9793 7.72922 5.4627C5.40299 6.70892 2.75391 7.81716 0.613421 9.39542C0.374607 9.28762 0.0429193 9.50323 0.0827218 9.79646C0.0738768 9.80508 0.0650318 9.80939 0.0561868 9.81802C-0.0632206 9.9172 0.0252293 10.094 0.157904 10.1199C0.697449 12.3148 1.60848 14.4579 2.33377 16.6011C3.09886 18.8564 3.83742 21.116 4.56271 23.3799C6.01329 27.912 7.42849 32.457 8.69775 37.0366C8.80831 37.4376 9.23287 37.5325 9.57782 37.3859C15.4199 34.9236 21.3726 32.9141 27.5022 31.2669C27.7145 31.2108 27.8472 31.0858 27.9091 30.9391C28.1214 30.8141 28.2673 30.5855 28.1965 30.2837L28.1921 30.288ZM8.12724 6.1354C10.7542 4.72963 13.3414 3.23329 16.0081 1.90514C16.3487 3.1298 16.7732 4.34153 17.1978 5.54032C17.0297 5.58775 16.8661 5.6395 16.698 5.68262C15.8622 5.90686 15.0219 6.12678 14.1816 6.34239C14.6372 6.12247 15.075 5.88098 15.4774 5.605C15.5349 5.56619 15.504 5.47132 15.4288 5.48857C14.332 5.77318 13.275 6.33807 12.2402 6.83398C11.8819 6.92453 11.5193 7.01509 11.1611 7.10565C10.166 7.35144 9.14442 7.56705 8.12282 7.78266C10.2677 6.79085 12.4701 5.92842 14.615 4.92799C14.646 4.91074 14.6239 4.85899 14.5885 4.87193C12.3065 5.66968 10.1041 6.76498 7.93265 7.82147C6.29191 8.16213 4.63347 8.50711 3.03253 8.95558C4.77941 8.08451 6.46881 7.0194 8.12724 6.13109V6.1354ZM9.63974 36.0405C8.27761 31.6205 6.92432 27.1962 5.46932 22.802C4.91651 21.1332 4.39908 19.4126 3.85953 17.6921C4.01432 17.8646 4.23545 17.981 4.47426 17.9724C4.92536 17.9508 5.30569 17.6188 5.30569 17.1617V17.0711C5.30569 16.6485 4.92536 16.2432 4.47426 16.2604C4.04086 16.2777 3.67379 16.5968 3.64725 17.028C2.8689 14.5916 2.02862 12.1682 0.945109 9.91288C3.82415 9.76196 6.73858 8.96851 9.55129 8.24838C9.54244 8.39068 9.63089 8.53729 9.81664 8.53729C10.0599 8.53729 10.1351 8.28719 10.0422 8.12764C10.3739 8.0457 10.7056 7.96377 11.0328 7.88184C12.7797 7.46356 14.5178 7.02803 16.2558 6.57525C16.9413 6.39845 17.6754 6.24321 18.4051 6.07072C18.3963 6.1354 18.4051 6.20008 18.4405 6.25614C18.3078 6.29495 18.3167 6.51919 18.4803 6.51919C18.5732 6.51919 18.6174 6.44588 18.613 6.37257C18.6307 6.37257 18.6439 6.3812 18.6661 6.3812C18.9226 6.3812 18.9889 6.10522 18.8783 5.94998C19.6965 5.73868 20.497 5.48426 21.209 5.11772C21.6203 9.24018 23.0266 13.4403 23.9554 17.4765C24.9239 21.6938 25.8924 25.9154 26.8831 30.1285C20.895 31.2841 15.0529 33.3022 9.63531 36.0405H9.63974Z" fill="#818181"/>
<path d="M19.953 5.66528C19.5992 5.66528 19.5948 6.20431 19.953 6.20431C20.3112 6.20431 20.3112 5.66528 19.953 5.66528Z" fill="#818181"/>
<path d="M20.5987 6.29492C20.2449 6.29492 20.2405 6.83395 20.5987 6.83395C20.9569 6.83395 20.9569 6.29492 20.5987 6.29492Z" fill="#818181"/>
<path d="M6.03983 11.5042H5.94696C5.51355 11.5042 5.09784 11.875 5.11553 12.3148C5.13764 12.7547 5.47817 13.1255 5.94696 13.1255H6.03983C6.47323 13.1255 6.88895 12.7547 6.87126 12.3148C6.84915 11.875 6.50861 11.5042 6.03983 11.5042Z" fill="#818181"/>
<path d="M5.39414 10.6072C5.04034 10.6072 5.03592 11.1462 5.39414 11.1462C5.75236 11.1462 5.75236 10.6072 5.39414 10.6072Z" fill="#818181"/>
<path d="M6.31845 10.6072C5.96465 10.6072 5.96023 11.1462 6.31845 11.1462C6.67667 11.1462 6.67667 10.6072 6.31845 10.6072Z" fill="#818181"/>
<path d="M6.96412 11.0557C6.61032 11.0557 6.6059 11.5947 6.96412 11.5947C7.32235 11.5947 7.32235 11.0557 6.96412 11.0557Z" fill="#818181"/>
<path d="M3.36864 15.8163V15.9068C3.36864 16.2518 3.92145 16.2561 3.92145 15.9068V15.8163C3.92145 15.4713 3.36864 15.467 3.36864 15.8163Z" fill="#818181"/>
<path d="M4.38139 15.3678C4.02759 15.3678 4.02317 15.9068 4.38139 15.9068C4.73961 15.9068 4.73961 15.3678 4.38139 15.3678Z" fill="#818181"/>
<path d="M5.11995 15.5447C4.76615 15.5447 4.76172 16.0837 5.11995 16.0837C5.47817 16.0837 5.47817 15.5447 5.11995 15.5447Z" fill="#818181"/>
<path d="M9.72819 8.67542C8.48105 8.67542 8.48105 10.5642 9.72819 10.5642C10.9753 10.5642 10.9753 8.67542 9.72819 8.67542Z" fill="#818181"/>
<path d="M10.7409 8.27002C10.3871 8.27002 10.3827 8.80904 10.7409 8.80904C11.0992 8.80904 11.0992 8.27002 10.7409 8.27002Z" fill="#818181"/>
<path d="M11.2009 8.98999C10.8471 8.98999 10.8427 9.52901 11.2009 9.52901C11.5591 9.52901 11.5591 8.98999 11.2009 8.98999Z" fill="#818181"/>
</svg>
