<svg width="319" height="254" viewBox="0 0 319 254" fill="none" xmlns="http://www.w3.org/2000/svg">
<g clip-path="url(#clip0_283_356)">
<path d="M256.677 108.836C256.642 108.343 256.592 107.85 256.538 107.364C256.606 107.222 256.599 107.052 256.485 106.926C256.39 106.159 256.277 105.399 256.151 104.632C256.147 104.606 256.147 104.59 256.136 104.562C255.642 101.588 254.93 98.6048 254.321 95.6714C254.417 95.6696 254.522 95.6324 254.611 95.5475C255.625 94.6026 256.639 93.6578 257.653 92.7129C257.809 92.787 258.013 92.7735 258.171 92.6264C260.319 90.6352 262.48 88.6501 264.632 86.6524C266.478 84.9295 268.396 83.1539 269.52 80.8485C269.736 80.3959 269.913 79.9247 270.054 79.4447C271.021 77.1197 271.068 74.4753 269.225 72.5805C269.205 72.5232 269.172 72.4758 269.13 72.4317C269.107 72.2783 269.009 72.1359 268.819 72.085C264.552 70.7959 260.427 71.5742 256.683 73.9155C255.156 74.8699 253.669 75.8908 252.208 76.9561C252.132 76.6339 252.03 76.2993 251.886 75.9688C251.879 75.9497 251.866 75.9275 251.853 75.9053C250.908 73.6926 248.646 71.4788 246.389 71.4182C243.209 71.3298 242.127 75.195 242.01 77.8695C231.317 72.1496 220.667 66.3393 210.375 59.9295C209.892 59.6276 209.405 59.3162 208.925 59.0079C212.451 53.3479 218.194 49.4282 221.349 43.5123C223.161 40.1142 224.74 34.0577 221.24 31.2292C221.24 31.2292 221.23 31.2165 221.227 31.207C221.151 31.0834 221.053 31.0212 220.947 31.0103C220.811 30.9135 220.672 30.8232 220.529 30.7393C218.55 29.5969 215.64 29.0581 213.392 29.4458C210.648 29.9229 208.223 31.695 205.851 33.04C199.341 36.7207 192.636 40.0462 185.783 43.0316C185.722 43.0583 185.665 43.0946 185.628 43.1402C183.815 41.9818 181.984 40.8623 180.109 39.8012C170.824 34.523 159.586 30.1783 149.142 34.5857C146.77 35.5814 144.522 36.8344 142.257 38.0556C140.277 39.1273 137.722 40.0751 136.311 41.9181C135.403 43.1045 135.006 44.5025 134.95 45.9519C134.904 46.2475 134.871 46.5493 134.864 46.8635C134.752 50.81 136.834 54.7318 139.26 57.7148C144.857 64.5995 153.539 68.9788 161.901 71.5312C160.466 76.8705 158.951 82.0928 156.54 87.197C154.209 92.1172 151.914 97.293 151.831 102.841C151.763 104.682 151.996 106.507 152.917 108.169C153.835 109.821 155.294 110.89 157.006 111.31C157.329 111.432 157.661 111.535 158.009 111.605C158.016 111.839 158.174 112.073 158.475 112.058C159.394 112.012 160.259 111.862 161.088 111.638C161.814 111.516 162.54 111.307 163.262 111.008C167.377 109.304 170.32 105.763 172.749 102.168C175.796 97.6605 178.583 93.3151 182.383 89.4603C184.456 87.9255 186.65 86.5037 188.564 84.8052C189.223 84.2226 189.886 83.563 190.501 82.8563C207.137 88.6966 223.444 97.3242 241.531 96.7611C242.323 99.7424 243.316 102.669 244.577 105.5C245.674 107.976 247.057 111.049 249.373 112.717C250.024 113.266 250.778 113.649 251.648 113.771C251.668 113.78 251.687 113.789 251.713 113.785C255.098 114.543 256.889 111.937 256.667 108.823L256.677 108.836ZM269.019 79.4511C268.15 81.1238 266.788 82.6807 265.666 83.8519C262.975 86.6318 260.137 89.2703 257.204 91.792C257.171 91.7766 257.142 91.7547 257.1 91.7427C254.772 91.1322 252.564 90.2216 250.537 88.9134C249.59 88.3029 248.311 87.4551 247.233 86.4722C247.303 86.458 247.373 86.4279 247.439 86.3722C250.727 83.6228 254.005 80.8768 257.293 78.1274C260.341 75.5811 263.677 72.8149 267.822 73.1096C269.768 74.8711 269.821 77.2381 269.023 79.4606L269.019 79.4511ZM255.854 75.5202C258.854 73.5067 261.923 72.2642 265.29 72.394C262.89 72.8839 260.713 74.2188 258.701 75.807C254.65 79.0096 250.756 82.4303 246.796 85.7401C246.73 85.7958 246.692 85.8573 246.671 85.9186C246.008 85.2292 245.494 84.4761 245.255 83.6955C248.623 80.762 252.145 78.0051 255.857 75.5138L255.854 75.5202ZM251.102 76.3806C251.236 76.7146 251.338 77.0331 251.379 77.3304C251.387 77.3975 251.414 77.4579 251.443 77.5118C250.05 78.5534 248.679 79.6299 247.341 80.7377C247.315 80.7094 247.282 80.6779 247.243 80.6594C245.793 79.8885 244.34 79.108 242.89 78.337C242.888 77.3437 243.028 76.0851 243.424 74.9722C243.44 74.9719 243.453 74.9781 243.463 74.9747C244.833 74.7314 246.158 74.8318 247.509 75.1271C248.587 75.3635 250.257 75.5888 251.092 76.384L251.102 76.3806ZM246.596 72.35C247.869 72.3936 249.287 73.5465 250.251 74.8872C249.425 74.5885 248.509 74.4293 247.73 74.2643C246.427 73.9841 245.15 73.8828 243.849 74.0319C244.42 73.0184 245.297 72.31 246.599 72.3595L246.596 72.35ZM209.091 32.2044C211.996 30.558 214.483 29.887 217.788 30.678C219.05 30.9782 220.004 31.4732 220.711 32.1041C223.027 36.3677 221.886 40.3077 219.429 43.9933C216.971 39.13 213.104 35.206 208.257 32.6717C208.54 32.5126 208.812 32.357 209.094 32.1979L209.091 32.2044ZM207.36 33.1882C207.393 33.2196 207.419 33.248 207.464 33.2696C212.487 35.8007 216.404 39.8038 218.852 44.8371C218.221 45.7108 217.523 46.5761 216.788 47.4164C216.303 45.1055 214.067 42.7214 212.714 41.1315C210.49 38.5229 207.848 36.3418 204.928 34.5599C205.74 34.1058 206.555 33.6453 207.36 33.1882ZM201.543 36.4139C202.375 35.9691 203.203 35.5147 204.033 35.0539C206.554 36.542 208.862 38.3256 210.885 40.4413C211.934 41.5369 212.901 42.7046 213.773 43.9381C214.559 45.0514 215.995 46.7839 215.994 48.2995C214.073 50.4307 211.98 52.4722 210.215 54.4404C206.233 48.2787 200.679 43.3671 194.048 40.1962C196.57 38.9863 199.071 37.719 201.54 36.4043L201.543 36.4139ZM193.045 40.6859C193.074 40.7077 193.1 40.7361 193.139 40.7546C199.936 43.8936 205.6 48.8416 209.607 55.1502C209.168 55.655 208.757 56.1657 208.379 56.6597C203.359 50.8282 197.435 45.8914 190.791 41.9998C190.789 41.9197 190.756 41.8402 190.71 41.7706C191.485 41.4101 192.267 41.0528 193.038 40.6828L193.045 40.6859ZM188.288 43.3375C188.755 42.9572 189.278 42.4604 189.899 42.4393C189.932 42.5028 189.988 42.569 190.069 42.6156C196.816 46.5245 202.785 51.4989 207.848 57.4066C207.698 57.6208 207.564 57.8348 207.434 58.0423C200.541 53.54 193.941 48.5741 187.048 44.0719C187.51 43.9191 187.909 43.649 188.294 43.3406L188.288 43.3375ZM145.8 37.1663C147.215 36.4287 148.636 35.7807 150.058 35.2448C150.059 35.4755 150.079 35.6995 150.09 35.9268C150.061 35.9369 150.029 35.9375 149.997 35.9541C147.754 37.1301 145.61 38.4804 143.568 39.9826C143.313 39.5676 143.059 39.1526 142.811 38.7406C143.804 38.2063 144.8 37.6815 145.8 37.1663ZM150.197 36.8668C150.506 38.8157 151.337 40.6331 152.603 42.2214C153.453 43.2854 154.451 44.2058 155.53 45.0221C155.991 45.3692 156.606 45.6942 157.208 46.0291C157.338 46.1228 157.458 46.2199 157.576 46.3235C158.989 47.204 158.776 48.3167 156.929 49.6583C156.512 49.634 156.099 49.6032 155.688 49.582C153.726 49.3524 151.794 48.6609 150.112 47.6283C147.402 45.9707 145.662 43.3947 144.04 40.7557C146 39.3095 148.052 38.0185 150.204 36.8699L150.197 36.8668ZM141.813 59.2183C140.458 57.8656 139.225 56.3569 138.221 54.7189C140.653 57.8396 143.97 60.271 147.289 62.3306C152.058 65.2958 157.133 67.7009 162.392 69.654C162.302 69.9922 162.212 70.3303 162.123 70.6684C154.721 68.4154 147.324 64.7203 141.816 59.2119L141.813 59.2183ZM161.822 109.917C160.347 110.53 158.777 110.726 157.359 110.422C154.627 109.326 152.858 106.363 152.827 102.967C152.789 98.8532 154.621 94.7979 156.348 91.0265C161.712 93.7915 167.068 96.6401 171.374 100.908C170.465 102.38 169.528 103.83 168.483 105.188C166.517 107.196 164.277 108.897 161.822 109.917ZM172.58 98.9442C172.338 99.3364 172.092 99.7351 171.856 100.13C167.502 95.863 162.111 92.9895 156.721 90.2121C156.884 89.8534 157.047 89.4947 157.201 89.1394C157.315 88.8841 157.428 88.6289 157.542 88.3736C163.174 90.8934 168.793 93.7723 172.861 98.5064C172.767 98.6523 172.674 98.7983 172.59 98.9408L172.58 98.9442ZM179.244 89.8999C177.053 92.3469 175.109 94.9753 173.343 97.7284C169.189 93.0248 163.605 90.1068 157.899 87.5595C159.378 84.2413 160.839 80.9138 161.944 77.4487C161.97 77.461 161.996 77.4734 162.028 77.4888C169.307 79.1513 175.909 82.6496 181.36 87.7105C180.63 88.4098 179.919 89.1343 179.238 89.8968L179.244 89.8999ZM182.022 87.1055C176.459 81.9281 169.686 78.324 162.249 76.626C162.23 76.6167 162.217 76.6266 162.195 76.6238C162.496 75.5768 162.738 74.5021 162.968 73.4212C171.054 75.0719 178.958 78.6038 184.149 85.1755C183.433 85.8104 182.718 86.4453 182.015 87.1024L182.022 87.1055ZM188.116 81.5996C187.037 82.6322 185.917 83.6142 184.804 84.5994C179.473 77.9053 171.44 74.2477 163.151 72.5558C163.721 69.78 164.272 66.9949 165.5 64.4695C166.658 62.0929 168.35 60.2415 170.844 60.1055C171.268 60.1489 171.712 60.2336 172.188 60.3818C172.369 60.4361 176.678 61.9679 178.506 62.8952C182.63 64.9976 190.251 70.3867 190.296 70.4243C193.818 73.9061 191.026 78.8284 188.126 81.5962L188.116 81.5996ZM191.859 78.9796C192.16 78.4645 192.432 77.9276 192.665 77.3721C192.464 77.943 192.195 78.4735 191.859 78.9796ZM191.109 82.1304C191.316 81.8639 191.516 81.5942 191.71 81.3214C206.899 88.7811 223.073 93.5757 239.804 95.9056C222.62 95.9072 206.998 87.7411 191.106 82.1369L191.109 82.1304ZM192.199 80.5626C192.475 80.0992 192.729 79.6331 192.945 79.1485C193.218 78.7076 193.45 78.2387 193.624 77.742C194.658 74.7749 193.352 72.255 191.435 70.1661C191.412 70.1153 191.373 70.0647 191.311 70.0114C191.291 70.0021 191.275 69.9864 191.252 69.9676C191.135 69.848 191.014 69.7349 190.896 69.6154C190.898 69.5128 190.178 68.8917 189.892 68.6759C189.361 68.2083 188.065 67.2487 187.947 67.2637C185.161 65.3319 182.239 63.6206 179.168 62.1556C179.097 62.1216 179.033 62.1068 178.969 62.108C177.604 61.4092 176.21 60.7525 174.796 60.1571C172.984 59.3961 171.036 58.7049 169.119 59.3781C165.995 60.2211 163.96 63.838 163.114 66.9587C162.949 67.5705 162.788 68.1759 162.626 68.7813C156.993 66.6974 151.541 64.0653 146.51 60.7685C141.976 57.7958 136.947 53.6114 135.996 47.9511C135.996 47.9351 135.989 47.916 135.989 47.9C136.138 47.8363 136.248 47.7061 136.235 47.5013C136.121 44.6292 139.476 42.7854 141.86 42.049C142.408 41.8818 142.158 41.0245 141.61 41.1917C139.797 41.7477 137.657 42.8384 136.409 44.4412C137.381 42.2699 139.444 40.6744 142.008 39.3259C142.027 39.3191 142.043 39.3028 142.055 39.2929C143.37 42.6106 145.528 45.4736 148.422 47.5924C150.959 49.4454 155.24 51.6699 158.507 50.9267C161.414 50.2736 160.847 47.5348 158.873 46.1488C158.646 45.9928 158.422 45.8303 158.188 45.6712C158.176 45.6651 158.162 45.6429 158.143 45.6336C156.573 44.2817 155.048 43.2206 153.817 41.4907C152.712 39.9315 150.332 36.2171 152.375 34.5482C152.412 34.5186 152.437 34.4829 152.462 34.4472C155.507 33.6057 158.639 33.3297 162.023 33.8565C172.502 35.4981 181.797 41.5034 190.335 47.4491C199.294 53.6913 208.246 59.8344 217.666 65.376C227.162 70.9611 236.887 76.1478 246.605 81.3313C245.823 81.9899 245.044 82.658 244.271 83.3293C244.003 83.5585 244.147 83.8891 244.39 84.0128C245.02 86.0358 247.124 87.5316 248.739 88.7384C251.088 90.5021 253.722 91.7189 256.534 92.4966C255.766 93.2094 255.003 93.9253 254.238 94.6316C254.206 94.3149 254.092 94.0223 253.908 93.7597C253.877 93.6578 253.818 93.582 253.74 93.545C253.403 93.1539 252.939 92.8132 252.408 92.5283C250.394 90.877 247.858 89.9532 245.196 89.993C244.812 90.0001 241.391 90.4161 240.906 91.2485C240.637 91.2311 240.321 91.4613 240.382 91.8158C240.589 92.9463 240.824 94.0666 241.088 95.1768C224.06 92.9198 207.601 88.124 192.163 80.5536L192.199 80.5626ZM159.654 48.4734C159.878 49.1518 159.587 49.5609 159.079 49.7946C159.475 49.4124 159.646 48.9542 159.654 48.4734ZM244.874 104.046C244.534 103.178 244.217 102.312 243.916 101.478C243.558 100.482 243.257 99.1002 242.999 97.6759C243.587 99.8055 244.238 101.918 244.956 104.006C244.927 104.017 244.905 104.03 244.874 104.046ZM245.773 103.642C245.177 101.897 244.621 100.132 244.118 98.3601C243.748 97.0724 242.114 93.1102 242.832 91.7703C244.392 91.1967 246.691 91.6347 248.026 91.9303C248.557 92.0486 250.692 92.6146 252.104 93.4151C252.485 93.7477 252.844 94.1095 253.181 94.5006L254.92 103.783C251.999 102.453 248.749 102.411 245.776 103.636L245.773 103.642ZM246.054 104.483C249.011 103.226 252.26 103.371 255.12 104.878C255.156 105.086 255.198 105.297 255.237 105.498C255.294 105.795 255.364 106.114 255.431 106.44C252.618 105.415 249.559 105.671 246.957 107.199C246.6 106.235 246.306 105.286 246.048 104.48L246.054 104.483ZM253.742 112.976C253.634 112.853 253.472 112.776 253.275 112.824C252.834 112.932 252.419 112.971 252.027 112.943C250.942 112.672 249.86 111.997 249.093 111.274C248.352 110.381 247.773 109.232 247.29 108.049C249.854 106.501 252.89 106.275 255.646 107.487C255.884 108.719 256.023 110.024 255.617 111.092C255.195 112.192 254.517 112.766 253.742 112.976Z" fill="white"/>
<path d="M171.693 49.7238C171.693 49.7238 171.68 49.7176 171.67 49.721C171.128 49.3274 170.438 49.1095 169.69 49.181C169.52 49.1714 169.347 49.1842 169.171 49.2195C169.066 49.2407 168.977 49.2936 168.914 49.3588C167.263 49.9759 166.332 51.9926 167.024 53.6716C167.507 54.8386 168.756 55.4979 169.976 55.4689C170.144 55.5651 170.366 55.5834 170.546 55.4231C170.549 55.4166 170.552 55.4101 170.561 55.4067C170.986 55.3156 171.389 55.135 171.743 54.8593C173.113 53.7669 173.953 50.3099 171.683 49.7272L171.693 49.7238ZM167.8 53.2086C167.404 52.0592 168.037 50.6312 169.186 50.2029C169.339 50.1488 169.492 50.1107 169.652 50.0917C169.867 50.107 170.07 50.1641 170.254 50.26C170.303 50.3071 170.355 50.3478 170.436 50.3624C170.809 50.6118 171.085 50.9976 171.19 51.4602C171.209 51.7867 171.189 52.1267 171.168 52.3867C170.946 53.32 170.182 54.5038 169.241 54.3482C169.131 54.3278 169.045 54.3582 168.963 54.3982C168.433 54.1773 168 53.772 167.803 53.2181L167.8 53.2086Z" fill="white"/>
<path d="M181.335 54.2359C180.314 53.2648 178.585 54.0594 177.826 55.1021C176.92 56.3526 176.912 58.1663 178.209 59.142C178.846 59.6204 180.838 59.9359 181.905 58.3813C182.716 57.1967 182.797 54.997 181.335 54.2359ZM178.954 58.561C178.025 58.0303 177.85 56.8992 178.327 55.9996C178.983 54.757 180.862 55.3758 181.179 55.8442C181.393 56.5099 181.225 57.2948 180.911 58.0024C180.365 58.8136 179.116 58.6541 178.961 58.5641L178.954 58.561Z" fill="white"/>
<path d="M186.7 60.0258C186.7 60.0258 186.694 60.0547 186.695 60.0708C186.229 61.2137 186.633 62.6289 187.766 63.2327C189.031 63.9078 190.501 63.3229 191.266 62.0847C192.797 59.6083 188.628 55.9847 186.71 60.0224L186.7 60.0258ZM188.2 62.4556C187.325 62.1098 187.139 60.886 187.673 60.1167C188.235 59.3052 189.391 59.2773 190.075 59.8735C190.703 60.4193 191.096 63.6067 188.2 62.4556Z" fill="white"/>
<path d="M199.716 64.3696C199.567 64.2666 199.393 64.1993 199.178 64.2001C198.251 63.9802 197.194 64.6823 196.733 65.5656C196.108 66.7596 196.276 68.3875 197.517 69.1142C200.516 70.8626 202.272 65.3187 199.713 64.376L199.716 64.3696ZM199.041 65.103C199.649 65.2103 200.146 65.7811 200.143 65.7875C200.28 66.2656 200.162 68.8921 198.112 68.3982C198.06 68.3736 197.999 68.3683 197.957 68.3242C195.534 66.0493 198.295 65.1201 199.041 65.103Z" fill="white"/>
<path d="M206.187 73.7661C207.276 74.5951 208.861 74.3349 209.664 73.2498C210.752 71.7845 209.66 70.1129 209.502 70.0293C209.463 70.0108 206.858 67.7521 205.55 69.9937C204.842 71.2117 205.037 72.8999 206.184 73.7726L206.187 73.7661ZM206.459 70.4511C207.001 69.9476 207.965 70.1059 208.809 70.683C209.317 71.2824 209.461 72.1609 208.877 72.803C208.299 73.4482 207.289 73.5694 206.625 72.9826C205.97 72.4084 205.775 71.0694 206.453 70.448L206.459 70.4511Z" fill="white"/>
</g>
<path d="M1 253.26C290.828 157.706 406.031 257.35 245 107.26" stroke="white" stroke-linejoin="round" stroke-dasharray="8 8"/>
<defs>
<clipPath id="clip0_283_356">
<rect width="138.41" height="100.235" fill="white" transform="translate(156.155) rotate(25.502)"/>
</clipPath>
</defs>
</svg>
