<svg width="287" height="389" viewBox="0 0 287 389" fill="none" xmlns="http://www.w3.org/2000/svg">
<g clip-path="url(#clip0_722_7)">
<path d="M194.47 353.12C193.67 352.96 193.42 354.21 194.23 354.37C195.03 354.53 195.28 353.28 194.47 353.12Z" fill="#231F20"/>
<path d="M196.17 352.15L196.13 352.36C195.97 353.16 197.22 353.41 197.38 352.6L197.42 352.39C197.58 351.59 196.33 351.34 196.17 352.15Z" fill="#231F20"/>
<path d="M198.53 351.1L198.49 351.31C198.33 352.11 199.58 352.36 199.74 351.55L199.78 351.34C199.94 350.54 198.69 350.29 198.53 351.1Z" fill="#231F20"/>
<path d="M201.64 349.54C200.84 349.38 200.59 350.63 201.4 350.79C202.2 350.95 202.45 349.7 201.64 349.54Z" fill="#231F20"/>
<path d="M240.92 341.34C238.78 330.73 233.7 320.61 229.65 310.63C225.37 300.08 221.09 289.53 216.81 278.97C215.78 276.43 214.73 273.89 213.69 271.36C212.85 269.32 212.22 266.66 210.85 264.89C208.94 262.43 205.87 264.63 203.71 265.7C193.7 270.63 183.98 276.11 173.94 280.99C162.58 286.51 151.04 291.6 139.47 296.68C139.37 296.71 139.3 296.76 139.23 296.83C139.21 296.85 139.19 296.87 139.18 296.89C138.92 297.23 139.06 297.76 139.43 297.89C150.09 323.88 161.86 349.4 172.4 375.45C172.58 375.89 173.01 376.11 173.47 375.97C185 372.64 226.43 351.41 235.78 344.91C235.88 344.89 235.98 344.84 236.09 344.76C237.42 343.66 238.78 342.89 240.43 342.33C240.87 342.18 241 341.75 240.92 341.33V341.34ZM213.63 275.49C213.63 275.49 213.67 275.5 213.7 275.51C213.9 276.08 214.1 276.63 214.31 277.16C215.57 280.29 216.85 283.41 218.12 286.54C218.39 287.21 218.66 287.87 218.93 288.54C214.76 290.6 210.56 292.59 206.29 294.44C204.7 295.13 201.02 297.39 199.25 296.75C194.31 294.98 196.88 289.13 201.35 289.2C202.03 289.21 202.14 288.37 201.78 287.96C201.71 284.31 202.68 282.57 204.71 282.75C205.03 282.78 205.34 282.77 205.66 282.73C206.1 282.72 206.42 282.23 206.27 281.82C205.51 279.73 204.73 276.9 206.6 275.11C208.77 273.04 211.33 274.26 213.64 275.49H213.63ZM152.89 324.82C152.96 324.76 153.01 324.66 153 324.54C152.84 323.62 152.86 322.7 153.07 321.78C153.35 319.51 154.52 318.77 156.58 319.56C159.38 319.68 159.29 320.04 159.98 322.39C160.14 322.93 161.02 323.03 161.24 322.48C162.09 320.31 168.38 318.1 168.97 321.76C169.07 322.38 169.72 322.6 170.18 322.18C172.27 320.28 176.98 320.2 177.55 323.74C177.8 325.27 176.46 325.88 175.4 326.56C173.11 328.03 170.71 329.31 168.21 330.39C164.68 331.91 160.18 332.39 157.28 335.02C155.83 331.61 154.36 328.21 152.88 324.81L152.89 324.82ZM157.88 336.41C158 336.38 158.12 336.32 158.23 336.22C160.14 334.48 162.74 334.1 165.1 333.29C167.21 332.56 169.27 331.69 171.26 330.71C172.99 329.86 174.67 328.91 176.29 327.87C177.17 327.31 178.71 326.6 179.14 325.51C179.94 323.48 177.93 321.01 176.31 320.09C174.17 318.87 171.87 319.26 170 320.57C168.46 317.5 163.1 318.1 160.81 320.61C159.98 318.53 158.59 316.51 156.05 316.95C153.28 317.43 151.94 320.14 151.97 322.72C148.27 314.29 144.46 305.91 140.45 297.63C152.33 292.81 163.98 287.4 175.48 281.76C181.02 279.04 186.53 276.25 192.01 273.4C194.83 271.93 197.62 270.42 200.43 268.94C202.05 268.08 203.68 267.24 205.34 266.45C206.03 266.12 206.72 265.81 207.41 265.51C209.23 265.49 210.27 266.24 210.53 267.76C211.64 269.52 212.39 271.72 213.11 273.86C210.8 272.54 208.01 271.73 205.81 273.76C203.65 275.76 203.87 278.78 204.65 281.36C202.7 281.41 200.98 281.57 199.86 283.6C199.05 285.09 199.24 286.57 200 287.88C195.56 288.72 192.71 294.37 197.26 297.48C200.11 299.42 203.51 297.34 206.24 296.2C210.74 294.31 215.18 292.24 219.52 290.01C221.59 295.1 223.66 300.19 225.73 305.28C228.27 311.53 230.81 317.78 233.36 324.03C234.66 327.22 235.98 330.4 237.11 333.64C235.44 333.39 233.81 333.61 232.24 334.38C231.26 334.86 230.34 335.53 229.62 336.35C229.14 336.9 228.72 338.27 228.22 338.63C227.25 339.33 224.45 338.7 223.2 338.99C222.6 339.13 222.01 339.33 221.45 339.6C221.74 337.5 223.77 333.49 223.87 333.4C224.18 333.13 223.96 332.67 223.56 332.76C223.49 332.78 222.64 332.53 222.31 332.86C222.19 332.99 222.07 333.12 221.97 333.25C219.65 334.1 217.41 335.57 215.27 336.69C212.09 338.35 208.93 340.05 205.79 341.77C205.08 340.08 204.34 338.39 203.6 336.71C203.85 336.75 204.13 336.74 204.49 336.67C204.97 336.58 209.25 334.08 210.87 333.42C213.5 332.35 216.21 331.62 219.01 331.14C219.62 331.04 219.9 330.48 219.61 329.94C218.07 327.07 214.36 325.52 211.79 323.76C208.26 321.34 204.83 318.77 201.5 316.07C194.99 310.79 182.24 297.8 182.09 297.37C181.86 296.72 180.97 297.07 181.1 297.71C181.18 298.1 181.35 299.02 181.38 299.1C181.39 299.14 181.41 299.18 181.42 299.22C183.1 307.12 184.94 314.91 185.83 322.97C186.73 331.12 187.11 339.43 186.63 347.62C186.6 348.16 187.33 348.46 187.74 348.17C190.25 346.36 192.72 344.5 195.2 342.65C196.4 341.75 199.34 340.03 200.59 338.91C201.16 340.37 201.73 341.83 202.28 343.3C202.33 343.43 202.41 343.52 202.5 343.58C195.55 347.38 184.99 353.17 185.52 353.03C187.73 352.44 191.19 355.55 192.98 356.53C190.95 357.58 189.67 356.96 186.66 358.99C185.45 359.8 184.04 361.55 183.57 362.87C178.73 360.03 172.29 362.13 170.89 367.48C166.56 357.13 162.27 346.75 157.88 336.41ZM219.94 340.61C218.89 341.51 218.22 342.65 218.05 344.05C215.77 346.48 197.66 356.17 194.16 355.42C194.13 355.42 194.16 355.48 194.16 355.51C194.12 355.5 192.79 354.54 191.32 353.77C201 348.75 210.66 343.68 220.3 338.57C220.21 339.25 220.11 339.94 219.95 340.62L219.94 340.61ZM193.97 320.35C195.44 323.06 196.92 325.77 198.39 328.49C200.59 333.03 202.67 337.62 204.63 342.26C204.65 342.31 204.67 342.35 204.7 342.39C204.32 342.6 203.92 342.82 203.51 343.04C203.51 342.99 203.51 342.94 203.49 342.88C200.63 335.24 197.45 327.72 193.98 320.35H193.97ZM199.3 337.56C197.54 338.65 195.94 340.07 194.31 341.32C192.23 342.91 190.15 344.5 188.08 346.11C188.33 334.2 187.88 321.79 185.49 309.94C189.49 319.42 194.39 328.66 199.3 337.56ZM186.64 304.42C190.75 308.67 195.09 312.71 199.65 316.49C202.66 318.98 205.76 321.37 208.94 323.64C211.5 325.46 215.61 327.29 217.66 329.85C214.22 330.54 210.89 331.62 207.74 333.21C207.01 333.58 205.2 335.12 204.45 335.1C203.07 335.07 202.76 333.66 202.2 332.63C201.01 330.45 199.81 328.27 198.62 326.09C194.66 318.85 190.76 311.57 186.64 304.41V304.42ZM205.88 343.13C208.7 341.59 211.54 340.08 214.39 338.59C216.4 337.54 218.73 336.6 220.84 335.45C220.69 335.96 220.59 336.48 220.5 337.02C210.33 342.42 200.13 347.76 189.91 353.07C189.89 353.07 189.88 353.09 189.86 353.1C189.41 352.93 188.98 352.82 188.61 352.79C194.41 349.65 200.08 346.28 205.88 343.13ZM237.24 342.07C237.08 342.06 236.91 342.1 236.74 342.21C231.34 345.63 184.39 370.31 173.67 374.11C172.95 372.39 172.23 370.67 171.51 368.95C172.98 363.64 178.6 360.7 183.5 364.36C183.9 364.66 184.44 364.51 184.57 364.01C185.1 362.01 186.36 360.31 188.32 359.54C189.93 358.9 191.73 359.29 193.32 358.67C194.16 358.34 194.75 357.83 195.11 357.18C195.68 357.23 196.26 357.2 196.85 357.08C199.1 356.63 201.3 355.14 203.31 354.11C205.59 352.93 207.88 351.76 210.16 350.58C213.48 348.87 217.55 347.33 219.9 344.26C220.66 343.26 221.02 342.11 221.25 340.91C223.36 339.93 226.12 340.04 228.53 340.23C228.95 340.26 229.24 340.09 229.38 339.68C230.57 336.2 234.16 334.39 237.66 335.24C238.28 337.16 238.84 339.1 239.26 341.09C238.54 341.37 237.87 341.7 237.23 342.08L237.24 342.07Z" fill="#231F20"/>
<path d="M286.94 327.17C283.53 307.94 283.06 305.22 279.65 285.99C278.02 276.78 276.54 267.61 275.61 258.3C274.69 248.99 274.84 249.15 272.93 239.98C272.86 239.63 272.57 239.46 272.29 239.43C272.22 239.17 272.01 238.96 271.66 239.01C240.73 242.86 211.78 252.18 180.53 254.07C180.42 254.07 180.33 254.11 180.25 254.16C179.92 254.17 179.62 254.4 179.69 254.81C180.55 260.24 180.18 260.26 180.67 265.74C180.67 265.77 180.69 265.79 180.69 265.82C177.31 267.58 173.94 269.35 170.56 271.1C157.17 278.05 143.44 284.21 129.9 290.83C129.56 290.58 128.99 290.83 129.11 291.33C128.88 291.68 129.03 292.18 129.43 292.27C135.54 310.19 142.97 327.74 150.05 345.29C157.26 363.17 159.82 369.4 167.3 387.17C167.33 387.25 167.38 387.31 167.42 387.38C167.27 387.85 167.68 388.45 168.25 388.24C175.47 385.5 182.34 381.33 189.3 377.98C196.34 374.59 203.42 371.28 210.53 368.06C224.77 361.61 239.2 355.63 253.67 349.74C254.5 349.4 253.77 347.54 253.57 347.26C251.75 344.75 247.31 337.06 245.81 334.36C257.47 331.73 273.93 330.06 285.75 328.28C286.04 328.24 286.21 328.04 286.28 327.82C286.64 327.85 287.02 327.64 286.93 327.18L286.94 327.17ZM252.06 348.26C252.1 348.32 252.14 348.36 252.19 348.41C237.75 354.05 223.51 360.25 209.4 366.67C202.29 369.91 195.21 373.23 188.18 376.63C181.81 379.71 174.87 382.54 168.83 386.31C161.38 368.64 158.84 362.51 151.65 344.73C144.55 327.18 138 309.35 130.46 291.99C144.23 287.03 157.39 279.73 170.36 273.02C177.22 269.48 184.06 265.91 190.9 262.35C194.28 260.59 197.65 258.84 201.03 257.08C204.12 255.47 207.77 254.1 210.52 251.91C214.86 264.5 219.66 276.96 224.61 289.35C224.61 289.4 224.61 289.46 224.61 289.51C224.61 289.75 224.72 289.9 224.87 289.98C227.27 295.97 229.71 301.95 232.15 307.91C234.72 314.18 241.68 332.75 252.05 348.25L252.06 348.26ZM243.44 251.83C243.53 251.7 243.55 251.56 243.55 251.43C250.77 250.45 257.94 249.26 264.96 247.22C265.52 249.43 266.07 251.64 266.6 253.85C262.69 254.73 258.79 255.63 254.88 256.49C252.16 257.09 249.43 257.83 246.88 256.23C245.73 255.51 242.27 253.57 243.44 251.83ZM242.53 255.2C243.25 256.05 244.74 256.25 245.57 256.75C246.43 257.27 246.98 257.92 247.97 258.22C250.53 259 253.36 258.12 255.88 257.55C259.55 256.72 263.22 255.9 266.89 255.07C267.77 258.82 268.57 262.58 269.17 266.38C269.78 270.27 270.2 274.17 270.75 278.06C269.1 276.78 266.63 276.07 264.94 277.09C262.81 278.38 263.23 280.76 264.09 282.74C261.47 282.04 258.5 282.51 257.39 285.39C256.71 287.16 257.35 288.8 258.65 289.71C257.3 290.16 256.09 290.92 255.47 292.31C254.62 294.2 255.38 296.02 257.03 297.13C262.73 300.96 268.53 295.88 274.21 295.33C276.17 304.03 278.24 312.71 280.23 321.4C279.86 322.88 277.93 323.8 276.61 323.89C275.93 323.94 275.24 323.87 274.57 323.85C273.07 323.82 271.57 323.83 270.07 323.91C266.88 324.09 263.71 324.55 260.56 325.07C254.53 326.06 248.54 327.24 242.41 327.46C241.66 325.74 240.94 324.02 240.2 322.3C244.08 321.87 247.95 321.35 251.8 320.75C251.97 320.8 252.14 320.78 252.28 320.68C260.88 319.34 269.41 317.61 277.86 315.48C278.65 315.28 278.23 314.08 277.44 314.28C270.82 315.95 264.15 317.37 257.44 318.55C257.8 316.9 258.02 315.23 258.11 313.55C263.66 310.67 269.32 308.04 275.1 305.66C275.85 305.35 275.44 304.15 274.68 304.46C269.06 306.78 263.56 309.34 258.15 312.12C258.15 311.83 258.17 311.55 258.16 311.26C258.16 310.92 257.8 310.64 257.48 310.67C256.97 310.73 256.47 310.78 255.96 310.84C256.12 309.51 256.29 308.18 256.44 306.85C256.52 306.12 256.72 305.33 256 304.86C255.41 304.47 254.54 304.64 253.77 304.84C254.02 303.08 254.26 301.31 254.51 299.55C254.58 299.07 254.15 298.68 253.67 298.83C252.89 299.08 252.11 299.32 251.33 299.57C251.11 298.33 250.93 296.98 250.51 295.85C250.29 295.25 250.02 294.85 249.36 294.69C248.89 294.57 248.35 294.67 247.83 294.82C247.69 293.69 247.49 292.57 247.22 291.47C246.97 290.47 246.74 289.17 245.77 288.6C244.93 288.11 244.08 288.45 243.3 288.9C243.14 288.99 242.98 289.09 242.83 289.19C242.38 287.3 241.69 285.51 240.78 283.79C240.63 283.5 240.15 283.42 239.9 283.62C239.59 283.86 239.28 284.11 238.97 284.35C238.61 283.05 238.28 281.71 237.79 280.47C237.51 279.77 237.05 279.14 236.2 279.18C235.13 279.23 234.19 280.36 233.45 281.01C232.32 282 231.21 283.01 230.12 284.05C230.06 282.98 230.16 281.92 230.52 280.89C230.6 280.87 230.69 280.85 230.77 280.78C238.01 275.56 248.12 277.14 256.49 277.38C256.96 277.39 257.24 276.75 256.97 276.39C255.64 274.67 253.82 274.21 251.76 273.73C248.78 273.04 245.71 272.54 242.65 272.65C241.03 272.71 239.44 272.95 237.92 273.39C239.14 272.53 240.4 271.71 241.67 270.9C246.08 268.1 250.51 265.33 254.93 262.54C255.33 262.29 255.29 261.64 254.86 261.44C245.26 257.15 235.89 265.84 231.46 274.37C232.69 267.2 235.85 260.6 240.77 255.09C241.12 254.7 240.81 253.94 240.24 254.04C234.31 255 229.59 258.92 227.38 263.82C225.73 259.83 222.49 256.92 218.28 255.58C217.83 255.44 217.37 256 217.56 256.42C219.52 260.73 220.33 265.96 222.21 270.45C221.02 268.98 219.73 267.6 218.06 266.64C217.99 266.6 217.91 266.58 217.84 266.57C216.45 263.04 215.04 259.52 213.6 256.01C222.98 253.85 232.58 252.88 242.11 251.61C241.54 252.79 241.56 254.07 242.52 255.19L242.53 255.2ZM261 290.46C261.81 290.33 261.72 289.21 260.9 289.19C257.63 286.57 257.87 284.72 261.6 283.65C262.84 283.56 264.01 283.82 265.09 284.45C265.69 284.73 266.21 284.06 265.9 283.52C264.95 281.84 263.15 278.62 267.06 277.96C268.45 277.72 270.42 279.19 271.03 280.22C271.05 280.25 271.07 280.26 271.08 280.28C271.32 281.79 271.58 283.3 271.9 284.8C272.55 287.9 273.23 291 273.92 294.1C271.42 294.38 269.29 295.46 266.92 296.3C264.96 296.99 262.91 297.41 260.82 297.11C259.86 296.97 258.51 296.83 257.82 296.1C256.61 295.6 256.75 294.66 258.25 293.28C258.27 291.27 259.18 290.33 260.98 290.47L261 290.46ZM233.74 304.12C233.72 300.48 233.35 296.9 232.55 293.35C231.97 290.81 230.74 288.07 230.28 285.38C232.06 285.9 233.84 286.42 235.61 286.94C235.22 287.26 234.9 287.63 234.86 288.06C234.79 288.84 235.5 289.23 236.09 289.52C237.29 290.11 238.52 290.65 239.74 291.21C239.26 291.54 238.78 291.87 238.3 292.19C237.88 292.47 237.97 293.06 238.37 293.29C239.96 294.19 241.54 295.09 243.13 295.99C242.65 296.1 242.17 296.22 241.7 296.33C241.11 296.47 241.22 297.24 241.63 297.5C243.45 298.64 245.26 299.79 247.08 300.93C246.46 301.13 245.84 301.32 245.23 301.52C244.69 301.69 244.69 302.44 245.16 302.69C246.71 303.53 248.06 304.57 249.29 305.8C248.7 305.92 248.11 306.03 247.52 306.15C247.11 306.23 246.69 306.74 247.04 307.14C248.28 308.57 249.53 310 250.77 311.43C250.17 311.5 249.58 311.56 248.98 311.63C248.42 311.69 248.22 312.36 248.61 312.74C249.02 313.15 249.43 313.6 249.82 314.08C245.53 314.15 241.26 314.37 236.98 314.74C235.78 311.9 234.6 309.05 233.43 306.19C233.23 305.71 233.05 305.23 232.85 304.75C233.23 304.87 233.75 304.65 233.75 304.12H233.74ZM227.33 275.85C222.26 271.42 221.7 263.5 219.32 257.32C222.94 258.88 225.54 261.85 226.7 265.68C225.7 268.94 225.79 272.5 227.33 275.85ZM229.79 277.51C229.79 277.51 229.75 277.49 229.72 277.47C227.24 273.84 226.81 269.74 227.91 266.05C227.96 265.97 227.99 265.87 228 265.77C229.49 261.12 233.39 257.16 238.59 255.7C233.51 261.94 230.47 269.46 229.78 277.5L229.79 277.51ZM228.26 278.13C226.43 278.68 224.55 278.93 222.64 278.85C221.31 275.42 219.97 271.98 218.62 268.55C222.24 271.31 223.99 276.03 228.25 278.12L228.26 278.13ZM228.19 279.48C226.63 280.76 225.67 283.03 225.14 285.28C224.47 283.56 223.81 281.84 223.14 280.13C224.85 280.14 226.53 279.94 228.19 279.49V279.48ZM229.42 280.15C228.19 283.2 229.13 286.27 230.14 289.44C231.64 294.12 232.39 298.89 232.46 303.79C230.27 298.39 228.13 292.97 226.02 287.53C226.35 284.9 227.34 281.37 229.42 280.14V280.15ZM251.76 314.68C251.8 314.4 251.6 314.1 251.31 313.98C251.02 313.55 250.69 313.14 250.35 312.75C251.86 312.58 253.38 312.42 254.89 312.25C255.15 312.41 255.5 312.39 255.69 312.16C256.08 312.12 256.48 312.07 256.87 312.03C256.87 314.32 256.6 316.56 256.08 318.8C254.97 318.99 253.86 319.17 252.75 319.35C253.04 317.69 252.58 316.11 251.75 314.69L251.76 314.68ZM251.43 319.55C248.07 320.06 244.7 320.51 241.32 320.9C244.38 318.94 247.53 317.12 250.75 315.44C251.47 316.7 251.85 318.1 251.43 319.55ZM252.26 311.26C252.24 311.21 252.21 311.15 252.16 311.1C251.02 309.79 249.88 308.48 248.74 307.17C250.66 306.75 252.6 306.26 254.52 306.04C255.28 305.95 255.14 305.81 255.18 306.62C255.2 307.12 255.05 307.68 254.99 308.18C254.88 309.12 254.76 310.06 254.65 310.99C253.85 311.08 253.05 311.17 252.26 311.25V311.26ZM250.69 305.51C250.66 305.41 250.61 305.31 250.53 305.23C249.46 304.09 248.28 303.12 246.99 302.29C248.19 301.91 249.4 301.53 250.6 301.15C250.83 301.23 251.13 301.13 251.31 300.92C251.91 300.73 252.51 300.54 253.11 300.35C252.89 301.96 252.66 303.56 252.44 305.17L250.69 305.52V305.51ZM247.95 300.65C248.06 300.37 248.02 300.01 247.7 299.81C246.31 298.94 244.92 298.06 243.53 297.19C244.65 296.92 245.77 296.66 246.89 296.4C247.21 296.66 247.77 296.57 247.91 296.16C249.45 295.83 249.38 296.6 249.66 297.92C249.81 298.61 249.95 299.29 250.1 299.98C249.38 300.21 248.66 300.43 247.94 300.66L247.95 300.65ZM244.8 295.59C244.75 295.49 244.67 295.39 244.55 295.32C242.98 294.43 241.4 293.54 239.83 292.64C241.46 291.43 244.64 289.11 245.54 290.26C245.93 290.75 246.02 291.88 246.15 292.49C246.35 293.37 246.48 294.27 246.58 295.16C245.98 295.3 245.39 295.44 244.79 295.58L244.8 295.59ZM240.93 290.4C240.88 290.34 240.81 290.29 240.72 290.25C239.92 289.88 239.13 289.52 238.33 289.15C237.93 288.97 237.53 288.78 237.14 288.6C236.64 288.37 236.29 288.44 236.62 287.83C236.9 287.3 237.94 286.78 238.42 286.41L238.86 286.06C238.97 286.01 239.07 285.93 239.15 285.83C239.45 285.59 239.75 285.36 240.04 285.12C240.75 286.59 241.29 288.11 241.66 289.71C241.67 289.77 241.71 289.82 241.73 289.87C241.46 290.05 241.19 290.22 240.93 290.4ZM236.89 285.99C236.89 285.99 236.89 285.99 236.88 285.99C235.11 285.47 233.34 284.95 231.58 284.44C232.04 284.01 232.5 283.57 232.97 283.14C233.65 282.53 234.64 281.3 235.52 280.91C235.92 280.73 236.27 280.59 236.66 281.09C236.88 281.36 236.98 282.17 237.09 282.53L237.89 285.21C237.56 285.47 237.23 285.74 236.89 286V285.99ZM248.16 315.38C245.19 317 242.29 318.73 239.45 320.58C238.8 319.04 238.15 317.5 237.5 315.97C241.05 315.67 244.6 315.48 248.16 315.38ZM232.25 276.36C232.05 276.52 231.86 276.7 231.67 276.87C235.1 268.8 243.97 259.11 253.17 262.16C248.8 264.91 244.41 267.65 240.06 270.44C237.27 272.22 234.6 274.09 232.25 276.36ZM241.64 273.99C244.79 273.69 251.5 273.87 254.76 276.05C247.15 275.72 238.6 274.83 231.82 278.61C232.19 278.21 232.57 277.82 232.95 277.44C235.35 275.4 238.39 274.29 241.63 273.99H241.64ZM244.51 332.5C243.09 328.9 243.65 330.32 242.96 328.73C250.82 328.39 258.45 326.46 266.25 325.55C270.01 325.11 274.05 325.73 277.72 325.07C279.59 324.74 281.06 323.68 281.45 321.88C281.53 321.75 281.57 321.59 281.53 321.4C281.53 321.36 281.54 321.33 281.54 321.29C281.55 321.1 281.49 320.94 281.39 320.82C278.46 308.05 275.21 295.31 272.71 282.45C271.52 276.31 271.13 270.07 270.03 263.91C269.48 260.85 268.82 257.81 268.11 254.78C268.11 254.78 268.13 254.78 268.14 254.78C268.9 254.61 268.54 253.53 267.82 253.58C267.28 251.33 266.72 249.08 266.16 246.83C266.72 246.49 266.32 245.49 265.6 245.71C248.52 250.91 230.45 250.84 213.11 254.84C212.58 253.54 212.05 252.25 211.5 250.96C211.34 250.59 210.98 250.5 210.69 250.61C210.63 250.61 210.57 250.61 210.52 250.62C207.27 251.41 204.19 253.57 201.23 255.12C197.86 256.88 194.48 258.64 191.11 260.39C188.03 261.99 184.96 263.6 181.88 265.2C181.41 260.07 181.82 260.41 181.03 255.32C212.11 253.34 240.92 244.14 271.69 240.29C273.53 249.2 273.38 248.77 274.27 257.81C275.21 267.32 276.7 276.69 278.37 286.09C281.77 305.23 282.21 307.87 285.61 327.01C273.62 328.82 256.33 329.83 244.5 332.5H244.51Z" fill="#231F20"/>
<path d="M168 385C189.47 513.583 434.452 406.688 350 512" stroke="#8D8D8D" stroke-linejoin="round" stroke-dasharray="8 8"/>
</g>
<path d="M-29 1C225.899 21.4094 -41.5 250 198 251" stroke="#8D8D8D" stroke-linejoin="round" stroke-dasharray="8 8"/>
<defs>
<clipPath id="clip0_722_7">
<rect width="157.95" height="149.27" fill="white" transform="translate(129 239)"/>
</clipPath>
</defs>
</svg>
