<svg width="338" height="762" viewBox="0 0 338 762" fill="none" xmlns="http://www.w3.org/2000/svg">
<path d="M1 20.2729C205.545 -24.1037 249.797 1.04658 174.823 171" stroke="#8D8D8D" stroke-linejoin="round" stroke-dasharray="8 8"/>
<path d="M254.782 86.9654C254.004 86.3616 253.117 85.9241 252.173 85.655C248.112 83.9718 243.578 83.6789 239.717 85.8091C235.81 87.9603 233.973 92.8969 232.77 97.0493C231.498 101.428 231.026 106.003 231.03 110.564C231.044 115.725 231.671 120.876 232.571 125.943C233.457 130.971 235.005 135.99 234.855 141.142C232.59 141.026 229.465 141.793 225.178 144.268C224.82 144.462 224.471 144.65 224.136 144.84C222.807 145.568 221.491 146.312 220.172 147.071C219.697 145.844 218.94 144.138 217.817 143.327C217.738 143.207 217.68 143.084 217.6 142.964C217.41 142.659 217.109 142.571 216.789 142.713C216.649 142.776 216.5 142.845 216.36 142.908C216.335 142.925 216.305 142.935 216.274 142.944C213.636 144.132 211.064 145.476 208.478 146.779C206.711 147.669 202.778 148.866 201.429 150.367C200.167 151.779 202.417 155.055 203.4 156.826C201.658 157.826 199.926 158.806 198.213 159.759C191.524 163.467 169.409 175.737 165.5 177.903C165.062 178.141 164.623 178.394 164.185 178.633C156.392 181.96 148.934 185.462 141.995 190.185C138.312 191.96 133.51 194.136 135.436 199.047C136.484 201.721 138.199 204.192 139.62 206.66C140.462 208.128 141.321 209.584 142.187 211.035C146.84 220.194 156.185 238.535 160.402 246.857C161.072 248.487 161.8 250.076 162.683 251.552C163.045 252.151 163.448 252.721 163.892 253.224C164.862 254.739 166.017 256.513 166.104 256.552C167.785 257.455 168.745 257.764 174.332 254.885C177.232 253.395 180.119 251.813 182.994 250.213C186.702 248.585 190.352 246.833 193.955 244.976C208.043 237.731 221.463 229.133 234.816 220.507C241.079 216.852 246.283 213.781 249.082 212.084C253.749 209.248 259.25 206.696 263.457 203.167C265.219 201.685 266.392 199.552 264.604 197.576C264.587 197.55 263.82 195.902 262.629 193.306C262.302 191.771 261.817 190.273 261.287 188.834C259.563 184.119 257.491 179.501 255.393 174.954C252.874 169.481 250.183 164.096 247.442 158.746C246.307 156.527 245.224 154.183 244.083 151.881C243.208 149.943 242.257 148.072 241.169 146.326C241.108 146.142 241.033 145.956 240.963 145.778C241.079 145.733 241.183 145.671 241.284 145.548C248.948 136.245 257.141 126.55 261.866 115.149C264.95 107.698 265.775 98.8241 260.665 92.1047C259.146 90.1117 257.111 88.3124 254.812 86.9562L254.782 86.9654ZM215.574 144.56C215.761 144.514 215.944 144.496 216.094 144.502C217.318 144.57 218.032 145.625 218.639 146.794C218.786 147.144 218.916 147.468 219.02 147.734C218.517 148.02 218.028 148.308 217.531 148.602C217.026 147.221 216.372 145.908 215.644 144.648C215.627 144.623 215.605 144.588 215.587 144.563L215.574 144.56ZM212.597 145.954C213.336 145.511 214.093 145.094 214.765 144.825C214.756 144.921 214.774 145.021 214.817 145.104C215.556 146.381 216.149 147.712 216.723 149.07C216.113 149.432 215.503 149.795 214.893 150.157C214.233 148.799 213.56 147.146 212.597 145.954ZM209.743 147.639C210.279 147.367 211.078 146.869 211.941 146.337C212.37 147.824 213.32 149.328 214.035 150.66C213.247 151.138 212.459 151.616 211.67 152.095C211.258 150.596 210.643 148.939 209.751 147.633L209.743 147.639ZM207.186 148.731C207.759 148.496 208.324 148.267 208.875 148.035C209.535 149.559 210.288 151.002 210.819 152.606C210.236 152.936 209.653 153.267 209.079 153.591C208.818 152.577 208.503 151.59 208.118 150.628C207.878 150.029 207.654 149.216 207.194 148.725L207.186 148.731ZM206.401 149.068C206.471 149.65 206.846 150.177 207.071 150.735C207.511 151.836 207.857 152.978 208.15 154.132C207.551 154.475 206.96 154.811 206.355 155.145C205.88 153.552 205.277 151.583 204.221 150.269C204.871 149.802 205.622 149.413 206.407 149.077L206.401 149.068ZM203.635 150.741C203.865 151.27 204.142 151.779 204.373 152.309C204.831 153.383 205.221 154.481 205.549 155.597C205.167 155.809 204.791 156.029 204.417 156.234C203.459 154.281 202.087 152.308 203.629 150.732L203.635 150.741ZM187.845 168.249C196.299 163.335 204.512 157.987 212.865 152.905C214.854 151.69 216.862 150.487 218.882 149.3C219.004 149.338 219.14 149.342 219.292 149.258C221.882 147.851 224.686 145.962 227.481 144.661C227.558 144.631 227.629 144.592 227.707 144.562C230.857 143.119 233.983 142.464 236.742 144.072C226.71 149.83 190.838 173.228 181.184 171.963C183.42 170.772 185.642 169.542 187.851 168.257L187.845 168.249ZM149.334 219.539C148.001 217.021 146.635 214.526 145.227 212.061C151.3 210.388 157.313 207.089 162.875 204.191C168.484 201.271 174.237 198.147 179.314 194.282C179.244 194.56 179.188 194.841 179.139 195.116C177.344 205.017 181.408 215.56 189.085 221.623C191.054 223.178 193.21 224.41 195.465 225.279C189.878 228.816 166.635 239.443 160.549 243.401C157.183 235.264 153.44 227.309 149.334 219.539ZM186.786 184.068C191.302 180.089 196.193 179.291 201.881 179.564C203.232 180.059 204.694 180.247 206.077 180.682C208.605 181.469 211.072 182.528 213.276 184.053C217.981 187.309 220.234 191.631 222.263 196.899C222.638 198.981 222.759 201.157 222.651 203.372C222.065 216.373 211.602 228.105 198.494 224.733C187.689 221.956 180.025 211.156 180.142 199.68C180.196 193.762 182.388 187.951 186.792 184.077L186.786 184.068ZM261.448 194.18C261.457 194.249 261.475 194.313 261.484 194.382C262.319 199.332 260.512 202.338 256.51 204.987C252.882 207.393 249.18 209.688 245.52 212.028C243.139 213.55 240.762 215.094 238.387 216.625C230.673 221.223 222.932 225.763 215.146 230.235C206.909 234.981 198.627 239.658 190.321 244.263C186.514 246.381 182.689 248.473 178.858 250.557C175.848 251.899 172.554 253.508 169.427 253.961C167.584 254.224 166.193 253.631 165.085 252.569C163.975 250.825 162.958 249.002 161.979 247.127C161.632 246.239 161.318 245.364 161.012 244.573C168.999 240.184 187.67 231.566 197.133 225.85C203.317 227.929 209.385 227.018 214.915 222.626C218.648 219.664 221.268 215.504 222.753 210.897C228.854 207.054 253.459 192.97 259.26 189.242C259.991 190.891 260.725 192.525 261.456 194.174L261.448 194.18ZM250.414 169.493C253.236 175.733 256.028 181.982 258.811 188.237C251.662 192.479 246.191 195.35 240.365 198.766C234.661 202.109 228.663 204.663 223.362 208.74C224.658 203.282 224.407 197.381 222.559 192.185C220.537 186.508 216.004 183.053 210.855 180.648C209.321 179.93 207.714 179.214 206.074 178.648C219.171 172.052 229.731 165.662 244.55 156.589C246.662 161.14 248.343 164.913 250.414 169.493ZM240.15 147.665C240.16 147.734 240.175 147.812 240.184 147.881C240.222 148.157 240.38 148.322 240.581 148.405C241.215 149.542 241.841 150.685 242.459 151.834C243.102 153.332 243.64 154.727 244.08 155.7C233.128 162.158 222.011 167.874 205.084 177.653C204.829 177.799 200.186 177.306 197.898 177.723C189.736 177.422 182.1 185.01 179.661 192.92C179.661 192.92 179.661 192.92 179.653 192.926C173.832 196.276 168.29 200.046 162.318 203.15C156.574 206.141 150.405 208.199 144.668 211.11C143.949 209.844 143.207 208.582 142.471 207.328C140.547 204.085 136.877 199.478 137.909 195.36C137.926 195.348 137.931 195.319 137.933 195.305C138.357 194.57 139.017 194.045 139.914 193.73C142.778 191.455 146.715 189.953 149.899 188.195C153.014 186.461 156.142 184.731 159.257 182.997C161.415 181.8 163.574 180.602 165.732 179.405C170.395 177.367 174.967 175.193 179.468 172.855C187.558 175.169 196.802 168.574 203.425 164.913C214.843 158.588 226.808 151.972 237.828 144.884C238.635 145.568 239.399 146.498 240.126 147.683L240.15 147.665ZM236.7 141.485C236.387 141.381 236.064 141.297 235.7 141.243C235.902 136.773 234.906 132.457 234.092 128.086C233.205 123.313 232.476 118.502 232.253 113.63C232.043 109.217 232.273 104.752 233.191 100.426C234.212 95.6335 236.182 88.7934 240.967 86.7566C242.576 86.0678 244.252 85.7731 245.931 85.7929C245.218 86.0015 244.538 86.2759 243.913 86.5984C239.269 88.976 236.491 94.1974 235.458 99.3017C234.149 105.819 235.054 112.741 235.446 119.312C235.889 126.693 236.192 134.1 236.7 141.485ZM257.023 120.098C254.575 124.336 251.738 128.335 248.94 132.319C246.09 136.39 243.273 140.565 240.204 144.453C239.85 143.81 239.311 143.072 238.521 142.451C238.717 142.399 238.906 142.263 239.025 142.039C242.585 135.433 246.443 129.019 250.522 122.736C253.537 118.091 256.653 113.322 258.109 107.85C259.359 103.145 259.446 97.8614 257.153 93.4787C255.21 89.7679 251.349 86.2089 247.018 86.9712C246.987 86.9803 246.971 87.0297 247.005 87.0435C251.783 88.8555 255.692 91.8107 256.986 97.2148C258.22 102.346 256.823 107.725 254.67 112.37C252.266 117.55 248.84 122.163 245.844 126.984C243.068 131.458 240.434 136.019 237.924 140.656C237.433 129.364 236.252 118.038 236.294 106.742C236.322 100.894 237.321 94.4223 241.434 90.0749C244.311 87.0329 247.895 86.1509 251.431 86.972C255.832 88.8021 259.632 92.5814 261.348 96.9742C264.415 104.808 260.925 113.348 257.023 120.098Z" fill="#231F20"/>
<path d="M208.298 193.409C206.596 191.396 205.885 189.96 200.521 189.315C199.122 189.259 197.709 189.566 196.341 190.361C189.943 194.05 188.444 203.813 194.157 208.86C199.551 213.63 209.403 211.15 211.212 203.629C212.101 199.955 210.62 196.152 208.298 193.409ZM197.877 191.393C199.434 190.716 200.923 190.67 202.296 191.036C199.748 190.567 197.047 191.332 194.656 193.898C194.222 194.362 193.839 194.865 193.495 195.39C194.521 193.641 196.018 192.198 197.872 191.384L197.877 191.393ZM195.582 194.889C195.901 194.546 196.226 194.249 196.554 193.975C195.482 194.885 194.609 196.005 193.964 197.266C194.372 196.416 194.916 195.607 195.59 194.883L195.582 194.889ZM194.236 205.87C194.171 205.626 194.114 205.376 194.058 205.126C194.589 205.907 195.211 206.623 195.886 207.237C196.109 207.444 196.359 207.656 196.632 207.865C195.748 207.45 194.973 206.87 194.395 206.109C194.344 206.032 194.293 205.955 194.242 205.878L194.236 205.87ZM208.405 198.453C211.313 204.732 205.893 208.502 200.744 208.638C199.262 208.11 197.798 207.114 197.03 206.453C195.669 205.282 194.343 203.58 193.942 201.732C194.236 199.194 195.401 196.776 197.362 195.063C201.151 191.745 206.427 194.16 208.413 198.447L208.405 198.453Z" fill="#231F20"/>
<path d="M169.858 179.321C169.858 179.321 169.823 179.269 169.812 179.252C169.693 179.073 169.368 179.041 169.206 179.144C169.016 179.281 168.808 179.405 168.618 179.541C168.479 179.642 149.219 189.733 147.981 190.925C147.618 191.275 147.409 191.527 147.293 191.774C146.979 191.886 146.712 192.217 146.839 192.645C148.114 196.924 149.95 200.839 152.401 204.526C152.611 204.843 153.019 204.853 153.304 204.66C154.987 203.552 156.678 202.475 158.392 201.433C164.078 198.281 172.66 194.147 175.077 192.498C175.373 192.285 175.362 191.939 175.217 191.702C175.227 191.606 175.23 191.503 175.179 191.388C173.648 187.658 170.056 179.381 169.866 179.315L169.858 179.321ZM154.203 188.855C156.175 187.779 158.158 186.72 160.14 185.661C160.311 186.083 160.481 186.504 160.66 186.919C156.734 188.603 152.965 190.997 149.209 193.102C149.427 190.923 151.929 190.098 154.197 188.846L154.203 188.855ZM158.757 199.64C158.01 200.089 157.251 200.648 156.477 201.166C155.773 201.533 155.082 201.903 154.412 202.321C153.749 202.622 153.485 202.811 153.229 202.755C153.009 202.332 152.788 201.908 152.576 201.479C156.584 199.407 160.837 197.703 164.659 195.296C164.791 195.568 164.918 195.831 165.058 196.097C162.932 197.234 160.826 198.419 158.755 199.655L158.757 199.64ZM151.36 198.991C151.176 198.604 150.984 198.224 150.806 197.846C154.942 196.15 159.116 194.034 162.703 191.292C162.967 191.835 163.233 192.364 163.506 192.902C159.538 195.109 155.321 196.775 151.374 198.993L151.36 198.991ZM163.667 193.254C163.959 193.84 164.237 194.424 164.53 195.01C160.331 196.613 156.372 198.978 152.312 200.936C152.077 200.473 151.851 200.003 151.624 199.534C155.549 197.282 159.982 195.941 163.672 193.262L163.667 193.254ZM150.545 197.288C150.274 196.699 149.982 196.112 149.712 195.523C149.683 195.48 149.683 195.443 149.662 195.394C153.694 193.393 157.753 191.398 161.71 189.249C161.972 189.807 162.247 190.368 162.517 190.92C158.565 193.204 154.706 195.447 150.545 197.288ZM149.486 194.927C149.349 194.519 149.257 194.143 149.218 193.792C153.073 191.691 157.181 189.787 160.836 187.349C161.055 187.861 161.291 188.362 161.532 188.871C157.466 190.783 153.469 192.872 149.477 194.933L149.486 194.927ZM171.43 185.966C172.092 187.475 172.735 189.137 173.653 190.538C173.821 190.973 173.96 191.329 174.058 191.586C171.321 192.846 168.63 194.174 165.968 195.582C164.314 192.143 162.764 188.567 160.847 185.28C163.696 183.75 166.534 182.203 169.3 180.531C169.323 180.565 169.357 180.616 169.385 180.659C169.928 182.481 170.667 184.251 171.421 185.972L171.43 185.966Z" fill="#231F20"/>
<path d="M168.537 182.546C168.379 182.419 168.127 182.461 168.055 182.627C166.2 183.164 164.491 184.507 162.938 185.61C162.733 185.758 162.675 185.964 162.77 186.199C163.757 188.726 164.829 191.217 166.234 193.532C166.234 193.532 166.234 193.532 166.24 193.541C166.099 193.895 166.459 194.382 166.891 194.173C168.795 193.234 170.702 192.28 172.575 191.275C172.781 191.165 172.86 190.881 172.745 190.672C171.381 188.088 170.28 185.187 168.673 182.752C168.66 182.66 168.609 182.583 168.523 182.544L168.537 182.546ZM171.805 190.665C170.418 191.321 169.041 191.995 167.668 192.691C167.039 190.829 166.26 188.633 165.054 187.111C164.561 186.479 164.476 186.679 165.239 186.346C165.597 186.19 165.938 186.008 166.262 185.8C167.094 185.278 167.765 184.605 168.377 183.824C168.402 183.807 168.398 183.784 168.409 183.763C169.352 186.133 170.695 188.391 171.794 190.686L171.805 190.665Z" fill="#231F20"/>
<path d="M191.388 213.253C199.233 220.193 213.588 216.587 216.222 205.642C217.514 200.288 215.358 194.757 211.984 190.76C209.515 187.831 208.474 185.735 200.654 184.795C198.627 184.709 196.563 185.17 194.573 186.309C185.248 191.685 183.069 205.895 191.388 213.253ZM196.816 187.819C205.08 184.23 212.123 192.468 214.449 200.139C214.997 203.69 214.224 207.318 211.555 210.071C205.763 216.043 196.357 216.432 191.017 209.714C185.4 202.652 188.933 191.249 196.822 187.828L196.816 187.819Z" fill="#231F20"/>
<path d="M228.628 200.567C231.166 202.813 235.799 201.645 236.657 198.107C237.076 196.377 236.376 194.592 235.287 193.301C234.489 192.358 234.148 191.68 231.622 191.372C230.964 191.352 230.301 191.487 229.652 191.865C226.637 193.603 225.932 198.193 228.619 200.573L228.628 200.567ZM230.378 192.354C233.048 191.194 235.326 193.855 236.077 196.337C236.256 197.485 236 198.655 235.146 199.547C233.277 201.472 230.236 201.598 228.504 199.429C226.683 197.147 227.833 193.463 230.378 192.354Z" fill="#231F20"/>
<path d="M230.107 197.872C230.418 198.432 230.897 198.897 231.505 199.117C233.032 199.676 234.477 198.321 234.437 196.706C234.417 195.798 233.82 194.735 233.017 194.149C232.719 193.681 231.744 193.623 231.279 193.692C230.089 193.877 229.097 195.64 229.665 196.787C229.708 196.869 229.756 196.961 229.811 197.061C229.862 197.302 229.935 197.541 230.047 197.764C230.069 197.798 230.086 197.824 230.101 197.864L230.107 197.872ZM231.601 197.797C231.218 197.276 230.735 196.788 230.739 196.153C230.757 196.052 230.766 195.957 230.796 195.872C230.83 195.759 230.873 195.678 230.924 195.59C231.127 195.293 231.44 195.068 231.8 195.062C232.119 195.047 232.369 195.222 232.61 195.402C232.828 195.638 232.974 195.95 232.977 196.302C232.972 197.026 232.284 197.875 231.592 197.803L231.601 197.797Z" fill="#231F20"/>
<path d="M191.261 183.266C191.769 182.989 192.499 183.172 192.752 183.736C193.013 184.293 192.841 184.985 192.3 185.286C191.791 185.563 191.062 185.38 190.809 184.817C190.548 184.259 190.72 183.567 191.261 183.266Z" fill="#231F20"/>
<path d="M184.947 188.563C186.517 187.688 187.831 190.232 186.256 191.099C184.686 191.975 183.372 189.43 184.947 188.563Z" fill="#231F20"/>
<path d="M181.782 196.44C182.555 196.011 183.647 196.301 184.038 197.145C184.429 197.989 184.174 199.032 183.36 199.491C182.587 199.92 181.495 199.63 181.104 198.786C180.714 197.941 180.969 196.898 181.782 196.44Z" fill="#231F20"/>
<path d="M182.675 204.496C183.758 203.895 184.652 205.642 183.569 206.244C182.485 206.846 181.592 205.098 182.675 204.496Z" fill="#231F20"/>
<path d="M185.66 211.277C186.957 210.559 188.033 212.653 186.736 213.371C185.439 214.089 184.363 211.994 185.66 211.277Z" fill="#231F20"/>
<path d="M190.523 218.3C190.415 217.808 190.729 217.292 191.201 217.18C191.704 217.059 192.098 217.395 192.261 217.86C192.421 218.301 192.088 218.806 191.71 218.952C191.208 219.148 190.643 218.846 190.526 218.285L190.523 218.3Z" fill="#231F20"/>
<path d="M196.273 219.654C197.763 218.823 198.995 221.225 197.505 222.056C196.015 222.886 194.783 220.485 196.273 219.654Z" fill="#231F20"/>
<path d="M204.32 220.696C204.837 220.413 205.564 220.611 205.825 221.168C206.086 221.726 205.92 222.426 205.37 222.733C204.853 223.016 204.127 222.818 203.865 222.261C203.604 221.703 203.771 221.003 204.32 220.696Z" fill="#231F20"/>
<path d="M212.17 217.379C213.118 216.849 213.92 218.385 212.963 218.921C212.015 219.451 211.213 217.915 212.17 217.379Z" fill="#231F20"/>
<path d="M216.939 211.056C217.967 210.481 218.826 212.14 217.79 212.721C216.761 213.295 215.902 211.637 216.939 211.056Z" fill="#231F20"/>
<path d="M219.209 204.594C220.245 204.013 221.122 205.697 220.071 206.275C219.035 206.856 218.159 205.172 219.209 204.594Z" fill="#231F20"/>
<path d="M218.681 197.855C219.685 197.298 220.521 198.923 219.518 199.48C218.514 200.037 217.678 198.412 218.681 197.855Z" fill="#231F20"/>
<path d="M216.153 190.961C217.307 190.321 218.265 192.183 217.117 192.832C215.963 193.473 215.004 191.61 216.153 190.961Z" fill="#231F20"/>
<path d="M210.527 184.36C211.547 183.791 212.4 185.441 211.38 186.01C210.36 186.579 209.507 184.929 210.527 184.36Z" fill="#231F20"/>
<path d="M201.631 181.311C202.873 180.62 203.914 182.625 202.664 183.322C201.422 184.013 200.381 182.007 201.631 181.311Z" fill="#231F20"/>
<path d="M207 236.726C323 380.254 156.024 376.156 160 469.7" stroke="#5C5C5C" stroke-linejoin="round" stroke-dasharray="8 8"/>
<path d="M220.86 495.16C220.89 494.994 220.85 494.817 220.71 494.651C218.56 492.019 213.73 491.281 210.64 490.345C206.32 489.045 201.94 487.963 197.54 487.017C195.7 486.622 193.85 486.247 192 485.873C191.88 485.81 191.75 485.779 191.6 485.79C189.34 485.332 187.08 484.895 184.82 484.448C181.28 483.751 177.44 482.441 173.78 482.461C173.76 482.149 173.74 481.827 173.72 481.515C173.5 479.102 173.27 475.815 171.77 473.839C170.23 471.811 167.1 471.894 164.9 471.239C161.6 470.261 158.43 468.909 155.13 467.932C150.16 466.455 143.79 465.477 139.32 468.909C138.06 469.877 137.12 471.416 136.46 473.194C132.07 472.134 127.3 470.667 122.56 469.981C122.47 469.949 122.37 469.939 122.27 469.939C118.7 469.44 115.14 469.388 111.79 470.282C107.34 471.478 103 473.392 98.6599 474.983C94.6299 476.471 90.1799 477.635 86.4499 479.872C80.5899 480.953 77.3299 486.299 75.6899 492.009C73.3599 500.132 72.4499 508.754 71.7799 517.168C71.0899 525.894 70.8399 534.641 70.1799 543.367C69.5299 552.125 68.0499 560.591 66.6399 569.223C65.6399 575.349 65.2699 582.214 69.5499 587.154C74.1699 592.479 81.8399 593.197 88.2299 594.289C105.61 597.263 123.02 600.051 140.42 602.859C150.37 604.461 160.32 606.114 170.28 607.612C174.47 608.246 178.74 609.006 182.99 608.974C185.36 608.954 187.36 608.558 189.28 607.747C190.32 607.674 191.23 607.269 192.02 606.645C192.08 606.645 192.14 606.645 192.2 606.634C195.33 605.802 198.29 603.899 201.19 602.443C203.06 601.507 204.93 600.56 206.81 599.624C207.2 599.645 207.6 599.479 207.81 599.125C208.67 598.699 209.54 598.262 210.4 597.835C210.88 597.794 211.36 597.513 211.55 596.983C213.07 592.573 213.7 587.674 214.61 583.098C215.54 578.449 216.42 573.779 217.24 569.109C218.87 559.748 220.31 550.367 221.58 540.944C222.75 532.311 223.99 523.627 224.54 514.922C224.97 508.12 224.57 500.933 220.86 495.15V495.16ZM220.46 499.144C221.03 500.662 221.47 502.212 221.78 503.793C220.6 502.867 219.46 501.921 218.54 500.839C219.26 500.319 219.93 499.768 220.46 499.144ZM216.48 494.942C217.25 495.233 218.02 495.504 218.81 495.629C219.14 496.211 219.44 496.804 219.72 497.407C218.84 497.667 217.97 498.135 217.13 498.676C216.64 497.605 216.39 496.377 216.48 494.942ZM214.48 494.183C214.15 496.201 214.5 498.145 215.33 499.914C214.41 500.59 213.53 501.255 212.68 501.775C211.93 502.233 211.08 502.67 210.21 503.107C209.27 502.306 207.87 502.046 206.59 501.702C204.05 501.026 201 500.163 198.43 501.058C196.38 499.841 194.07 499.05 191.73 498.457C193.05 497.532 194.32 496.502 195.57 495.597C197.76 494.016 199.93 492.456 201.96 490.657C204.27 491.198 206.57 491.77 208.86 492.425C210.74 492.956 212.61 493.528 214.47 494.162L214.48 494.183ZM206.29 509.95C206.37 509.149 206.81 508.442 207 507.662C207.62 507.402 208.24 507.08 208.86 506.736C208.86 506.934 208.86 507.152 208.88 507.402C208.99 509.773 209.1 512.165 208.73 514.516C208.56 515.577 208.25 516.555 207.88 517.501C207.72 516.607 207.53 515.712 207.29 514.828C207.04 513.882 206.71 512.852 206.31 511.822C206.4 511.666 206.45 511.458 206.42 511.209C206.37 510.782 206.32 510.377 206.29 509.961V509.95ZM205.12 506.102C204.51 505.603 203.82 505.155 203.28 504.864C203.05 504.739 202.83 504.698 202.63 504.729C202.1 504.053 201.53 503.439 200.94 502.899C201.85 503.107 202.79 503.252 203.72 503.491C204.94 503.793 206.25 504.105 207.42 504.594C206.6 505.062 205.81 505.551 205.12 506.112V506.102ZM205.35 519.488C202.68 517.782 200.55 515.514 198.96 512.592C197.35 509.628 197.09 506.851 196.81 503.793C199.55 505.343 201.57 507.412 203.16 510.189C203.82 511.885 204.4 513.611 204.77 515.535C205.02 516.846 205.21 518.167 205.35 519.488ZM196.3 489.399C197.31 489.617 198.32 489.846 199.33 490.064C196 492.945 191.73 494.776 188.53 497.771C187.8 497.636 187.07 497.501 186.36 497.386C183.98 496.991 181.6 496.669 179.21 496.388C182.84 493.403 187.05 490.917 190.97 488.265C192.75 488.639 194.53 489.014 196.31 489.399H196.3ZM138.02 475.202C138.11 474.994 138.15 474.775 138.15 474.557C138.55 472.81 139.37 471.281 141.1 470.241C145.44 467.62 151.1 469.149 155.53 470.646C157.59 471.343 159.62 472.123 161.68 472.841C163.68 473.527 165.98 473.777 167.9 474.588C172.94 476.741 171.57 486.518 170.57 490.959C170.57 490.99 170.57 491.011 170.56 491.042C169.67 491.021 168.76 490.896 168.19 490.407C166.59 489.045 167.47 487.495 167.64 485.831C167.86 483.595 167.56 481.338 166.48 479.362C164.37 475.503 160.21 473.59 156.15 472.986C152.27 472.414 146.64 472.144 143.15 474.422C140.08 476.429 139.22 480.308 139 483.865C138.46 483.751 137.92 483.657 137.37 483.574C137.89 480.964 137.56 477.885 138.02 475.202ZM163.94 478.676C160.31 478.239 156.69 477.563 153.07 477.053C150.1 476.637 146.82 475.878 143.73 475.992C145.33 474.806 147.42 474.536 149.45 474.494C154.23 474.38 159.91 474.484 163.54 478.239C163.68 478.384 163.81 478.53 163.94 478.676ZM133.66 475.379C134.35 475.535 135.05 475.691 135.74 475.847C135.23 478.519 135.26 481.38 135.8 483.574C135.43 483.897 135.54 484.666 136.07 484.885C137.26 485.363 138.4 485.654 139.64 485.966C140.26 486.122 140.78 485.665 140.82 485.03C140.97 482.649 140.91 479.934 142.11 477.823C142.29 477.5 142.5 477.209 142.72 476.949C146.12 477.999 150.04 477.989 153.5 478.54C157.35 479.154 161.24 479.851 164.97 481.047C165.12 481.099 165.26 481.109 165.39 481.099C166.05 482.805 166.14 484.677 165.92 486.684C165.78 487.942 165.44 489.17 166.01 490.387C167.11 492.748 170.02 492.987 172.23 492.893C173.03 492.862 173.29 491.978 173 491.427C173.54 488.983 173.85 486.507 173.84 484.021C176.84 485.509 180.46 485.966 183.63 486.684C185.26 487.048 186.88 487.402 188.51 487.745C185.05 490.054 181.59 492.363 178.22 494.796C177.63 495.223 177.14 495.66 176.72 496.097C168.26 495.15 159.79 494.495 151.42 492.508C142.09 490.293 132.96 487.308 123.71 484.749C124.14 484.177 124.63 483.657 125.2 483.221C128.42 480.776 131.25 478.696 133.65 475.358L133.66 475.379ZM131.46 474.89C129.8 477.001 127.91 478.696 125.7 480.256C124.34 481.213 122.93 482.108 121.9 483.47C121.73 483.689 121.58 483.917 121.43 484.146C120.45 483.886 119.47 483.626 118.49 483.377C116.6 482.898 114.63 482.399 112.59 481.92C113.58 481.432 114.65 481.036 115.71 480.548C119.41 478.821 123.02 476.523 126.02 473.631C127.83 474.078 129.64 474.484 131.46 474.9V474.89ZM98.5799 477.032C102.57 475.576 106.53 473.995 110.56 472.685C110.61 472.664 110.67 472.654 110.72 472.633C113.93 475.056 118.68 474.526 122.08 472.633C122.54 472.747 123 472.862 123.48 472.986C123.71 473.049 123.93 473.101 124.16 473.153C120.72 475.628 117.28 477.968 113.43 479.872C112.37 480.392 111.46 480.912 110.67 481.473C104.31 480.069 97.5099 479.029 91.2399 479.809C93.7299 478.977 96.1799 477.906 98.5799 477.032ZM86.5199 481.764C88.2199 481.993 89.9299 482.129 91.6399 482.243C88.9799 488.234 83.8299 491.073 77.8599 492.165C79.3499 487.246 81.8399 482.877 86.5199 481.764ZM76.5999 588.173C71.4399 585.854 68.5599 581.465 68.7399 574.871C68.7599 574.08 68.8099 573.3 68.8699 572.51C73.6399 575.256 77.1599 582.734 76.5999 588.173ZM79.8299 589.286C79.4599 589.192 79.0999 589.088 78.7499 588.974C79.2999 584.751 78.1299 580.934 75.9399 577.357C74.3599 574.767 72.1799 571.137 69.0599 570.648C69.6999 565.063 71.0899 559.499 71.6999 553.934C72.5399 546.28 72.8899 538.573 73.2899 530.887C73.7599 521.869 74.2299 512.821 75.5999 503.887C76.0099 501.214 76.4399 497.833 77.2299 494.516C84.5999 495.14 91.4799 489.222 94.0999 482.378C96.2399 482.503 98.3799 482.617 100.5 482.877C103.03 483.179 105.55 483.585 108.05 484.073C107.3 485.176 106.72 486.507 106.25 488.223C104.86 493.247 104.71 498.801 104.2 503.98C103.62 509.825 103.09 515.671 102.56 521.526C100.42 545 98.4099 568.693 92.5999 591.564C88.2999 590.981 83.9899 590.337 79.8199 589.276L79.8299 589.286ZM94.9099 591.886C99.8899 570.638 102.29 548.942 104.07 527.174C105 515.816 105.62 504.375 107.02 493.07C107.37 490.283 107.84 487.339 109.25 484.874C109.35 484.697 109.45 484.541 109.56 484.385C111.93 484.874 114.28 485.436 116.62 486.029C117.8 486.33 118.98 486.642 120.15 486.975C119.15 490.033 118.94 493.569 118.45 496.513C116.53 507.943 114.56 519.363 112.53 530.762C110.59 541.682 108.11 552.437 105.24 563.139C102.65 572.791 100.19 582.494 99.2999 592.489C97.8399 592.281 96.3799 592.084 94.9099 591.886ZM147.62 600.196C132.36 597.731 117.1 595.214 101.82 592.853C102.78 582.775 105.45 573.03 108.07 563.305C110.91 552.77 113.08 542.213 114.85 531.438C116.63 520.642 118.36 509.846 120.19 499.061C120.76 495.691 120.9 491.167 122.24 487.578C130.42 489.898 138.5 492.581 146.72 494.755C156.06 497.22 165.38 498.333 174.91 499.279C174.51 500.621 174.36 502.139 174.21 503.959C173.22 515.369 171.96 526.726 170.38 538.063C167.4 559.54 163.53 580.924 158.23 601.912C154.7 601.34 151.16 600.779 147.63 600.207L147.62 600.196ZM164.18 602.89C162.95 602.682 161.72 602.474 160.49 602.276C165.16 582.515 169.18 562.629 172.06 542.494C173.47 532.665 174.55 522.785 175.43 512.883C175.66 510.325 175.87 507.776 176.06 505.218C176.16 503.939 176.2 502.659 176.33 501.38C176.4 500.631 176.55 499.997 176.77 499.435C177.05 499.466 177.33 499.487 177.62 499.518C180.64 499.81 183.74 500.101 186.8 500.621C185.2 503.242 185 507.506 184.35 510.325C183.32 514.755 182.3 519.186 181.29 523.617C179.31 532.27 177.35 540.934 175.42 549.597C171.51 567.143 167.92 584.772 164.21 602.37C164.17 602.557 164.17 602.724 164.19 602.88L164.18 602.89ZM191.29 602.152C190.4 603.712 189.05 604.554 187.93 605.833C185 606.353 181.8 606.073 178.67 605.553C180.03 603.358 181.38 601.413 183.71 599.874C186.52 598.023 189.77 597.326 193.02 597.679C192.6 599.219 192.07 600.758 191.29 602.141V602.152ZM176.39 605.137C174.14 604.7 171.97 604.201 170 603.857C168.87 603.66 167.74 603.483 166.62 603.296C166.64 603.233 166.67 603.16 166.68 603.088C170.19 585.438 174.02 567.871 177.73 550.273C179.56 541.578 181.42 532.884 183.3 524.199C184.22 519.966 185.14 515.733 186.07 511.5C186.58 509.17 187.1 506.84 187.61 504.521C187.91 503.159 188.29 502.098 188.19 500.881C190.15 501.266 192.08 501.775 193.93 502.472C194.19 502.566 194.43 502.68 194.68 502.784C194.01 506.185 195 510.189 196.26 513.174C198.09 517.501 201.44 521.048 205.54 523.065C205.56 523.065 205.57 523.076 205.59 523.086C205.65 525.01 205.62 526.934 205.48 528.869C204.81 538.385 202.52 547.881 200.75 557.221C198.99 566.478 197.18 575.724 195.48 585.001C194.87 588.319 194.39 591.699 193.67 594.996C186.81 594.393 178.5 597.887 176.38 605.147L176.39 605.137ZM209.35 595.526C208.94 595.745 208.54 595.963 208.13 596.182C208.36 594.528 208.86 592.926 209.67 591.439C209.82 591.169 210.02 590.877 210.25 590.586C209.89 592.229 209.57 593.873 209.35 595.526ZM222.19 518.167C221.34 527.07 220.05 535.962 218.72 544.792C217.41 553.539 215.9 562.244 214.26 570.929C213.46 575.172 212.65 579.405 211.79 583.628C211.58 584.658 211.35 585.698 211.11 586.728C209.6 587.144 208.33 589.421 207.68 590.617C206.53 592.729 205.93 595.027 205.8 597.419C203.9 598.439 202 599.458 200.09 600.467C198.26 601.444 196.3 602.339 194.47 603.389C196.45 599.458 197.2 593.862 197.72 591.065C199.72 580.279 201.63 569.483 203.55 558.677C205.38 548.412 207.96 538.021 208.43 527.558C208.52 525.551 208.51 523.523 208.37 521.516C210.12 519.602 210.73 516.586 211.06 514.069C211.41 511.365 211.79 507.964 211.26 505.197C211.94 504.75 212.61 504.313 213.23 503.928C214.2 503.335 215.41 502.722 216.6 502.035C218.08 504.074 220.13 505.748 222.24 506.84C222.65 510.553 222.53 514.36 222.17 518.146L222.19 518.167Z" fill="#231F20"/>
<path d="M143.88 510.845C143.88 510.46 143.61 510.252 143.33 510.21C143.29 509.805 143.24 509.409 143.2 508.993C143.17 508.671 142.93 508.276 142.56 508.328C139.3 508.785 136.03 509.149 132.78 509.701C130.39 510.106 127.52 510.501 125.18 511.593C124.75 511.635 124.32 511.656 123.88 511.677C123.68 511.677 123.53 511.77 123.43 511.895C123.27 511.843 123.09 511.895 123.05 512.103C122.51 515.41 123.19 519.04 123.5 522.368C123.86 526.186 124.28 529.992 124.72 533.799C124.77 534.256 125.11 534.6 125.58 534.485C131.96 532.852 138.43 531.791 144.98 531.178C145.48 531.136 145.77 530.731 145.68 530.221C144.57 523.783 144 517.397 143.88 510.855V510.845ZM125.98 532.915C125.58 529.399 125.21 525.884 124.88 522.368C124.6 519.425 124.64 516.232 123.97 513.32C126.85 512.935 129.73 511.749 132.62 511.229C135.73 510.668 138.86 510.21 141.98 509.753C142.1 511.167 142.21 512.54 142.65 513.913C142.85 519.207 143.36 524.511 144.15 529.732C138.01 530.263 131.96 531.344 125.99 532.915H125.98Z" fill="#231F20"/>
<path d="M140.69 520.715C140.16 518.073 139.65 515.431 139.16 512.789C139.1 512.446 138.68 512.311 138.41 512.467C135.27 514.412 131.97 515.213 128.34 515.327C128.21 515.327 128.11 515.379 128.03 515.442C127.79 515.202 127.28 515.379 127.27 515.785C127.14 520.122 127.87 524.552 128.48 528.838C128.53 529.181 128.96 529.399 129.26 529.295C131.88 528.453 134.51 527.621 137.13 526.757C138.13 526.435 140.65 526.217 141.28 525.093C141.9 524.001 140.91 521.755 140.69 520.694V520.715ZM139.49 524.032C138.59 525.426 136.05 525.697 134.54 526.196C132.9 526.737 131.26 527.267 129.61 527.808C129.09 524.032 128.85 520.205 128.27 516.45C128.3 516.45 128.32 516.471 128.35 516.471C131.91 516.523 135.22 515.514 138.3 513.757C138.57 515.234 138.83 516.721 139.08 518.198C139.35 519.779 140.36 522.701 139.49 524.043V524.032Z" fill="#231F20"/>
<path d="M161.132 514.59C161.062 513.207 161.632 509.442 160.412 508.402C159.152 507.33 155.432 508.943 154.132 509.296C153.632 509.431 153.572 509.993 153.802 510.336C153.652 510.399 153.522 510.544 153.512 510.783C153.292 515.089 153.372 519.374 153.002 523.68C152.962 524.107 153.452 524.46 153.822 524.335C155.402 523.784 156.992 523.233 158.572 522.682C159.272 522.432 160.672 522.287 161.162 521.579C162.172 520.113 161.222 516.296 161.132 514.59ZM158.692 521.184C157.552 521.912 155.812 522.328 154.372 522.755C154.682 518.802 154.912 514.736 154.482 510.794C154.482 510.721 154.452 510.659 154.422 510.596C154.442 510.596 154.452 510.596 154.462 510.596C155.982 510.17 158.732 508.839 159.662 510.752C160.232 511.948 159.842 514.85 159.902 516.244C159.992 518.147 160.442 520.061 158.692 521.184Z" fill="#231F20"/>
<path d="M165.583 540.3C165.143 537.773 162.463 538.896 160.863 540.196C160.933 537.835 158.503 534.528 156.533 536.743C155.493 537.919 156.173 539.791 156.543 541.08C157.403 544.045 158.133 547.019 158.693 550.056C158.793 550.576 159.513 550.753 159.843 550.368C161.273 548.704 162.733 547.009 163.853 545.095C164.553 543.899 165.833 541.767 165.573 540.29L165.583 540.3ZM163.993 541.663C163.863 542.661 163.013 543.889 162.493 544.731C161.693 546.01 160.743 547.175 159.773 548.319C159.453 546.655 159.083 545.001 158.653 543.358C158.423 542.464 158.163 541.58 157.903 540.696C157.743 540.207 157.603 539.718 157.483 539.219C159.223 538.875 159.983 539.458 159.753 540.956C159.753 541.07 159.803 541.164 159.853 541.236C159.373 541.954 160.503 542.63 160.973 541.923C161.693 540.519 162.773 540.176 164.223 540.893L163.993 541.673V541.663Z" fill="#231F20"/>
<path d="M133.91 548.079C133.58 548.173 133.26 548.266 132.93 548.36C132.34 548.433 131.74 548.516 131.15 548.589C130.78 548.641 130.38 548.734 130.01 548.734C129.31 548.734 129.44 548.755 129 548.1C127.96 546.519 127.2 544.626 126.33 542.951C126.28 542.847 126.21 542.775 126.13 542.723C126.13 542.681 126.13 542.639 126.13 542.608C126.11 542.442 125.88 542.338 125.8 542.515C125.78 542.556 125.77 542.598 125.75 542.639C125.6 542.66 125.45 542.743 125.34 542.858C125.21 542.91 125.1 543.003 125.04 543.17C125.04 543.17 125.04 543.191 125.03 543.191C125.02 543.222 125 543.243 124.99 543.274C124.55 545.364 124.08 547.455 123.56 549.525C123.54 549.587 123.56 549.639 123.56 549.701C121.99 551.147 118.64 551.719 116.88 552.302C116.4 552.458 116.25 553.196 116.73 553.466C118.4 554.382 120.06 554.902 121.89 555.141C121.38 557.97 120.86 560.799 120.36 563.628C120.22 564.408 121.11 564.762 121.55 564.148C123.12 561.985 124.7 559.821 126.27 557.668C127.84 558.927 129.4 560.196 130.96 561.465C131.41 561.829 132.15 561.631 132.15 560.955C132.15 558.334 131.34 556.191 129.73 554.236C131.35 552.572 132.96 550.887 134.56 549.202C135.02 548.724 134.56 547.881 133.93 548.069L133.91 548.079ZM128.04 554.215C127.55 554.746 128.21 555.505 128.75 555.183C129.79 556.483 130.38 557.835 130.61 559.395C129.23 558.303 127.84 557.211 126.46 556.119C126.15 555.879 125.75 556.098 125.56 556.368C124.4 557.97 123.24 559.561 122.08 561.163C122.45 559.031 122.81 556.899 123.18 554.767C123.25 554.34 123.01 553.997 122.59 553.966C121.18 553.862 119.94 553.57 118.7 553.05C119.86 552.666 121.02 552.291 122.17 551.896C122.9 551.646 124.25 551.428 124.81 550.752C125.55 549.857 125.93 547.798 126.08 545.874C126.37 546.508 126.64 547.153 126.87 547.829C127.13 548.599 127.22 549.92 127.88 550.492C128.69 551.199 130.22 550.866 131.64 550.377C130.43 551.657 129.23 552.936 128.05 554.236L128.04 554.215Z" fill="#231F20"/>
<path d="M160.703 558.757C157.513 558.081 153.873 556.885 150.353 556.354C148.943 555.751 147.443 555.231 146.863 555.533C146.963 555.273 146.913 554.961 146.583 554.805C146.543 554.784 146.513 554.773 146.473 554.753C146.213 554.628 145.973 554.659 145.773 554.815C145.693 554.815 145.613 554.867 145.573 554.971C143.743 558.913 142.443 563.177 141.043 567.296C141.013 567.379 141.013 567.452 141.013 567.525C141.013 567.535 141.013 567.556 141.013 567.577C140.953 567.899 141.103 568.284 141.433 568.367C146.293 569.594 151.103 571.29 155.873 572.85C156.193 572.954 156.453 572.87 156.633 572.683C156.843 572.725 157.053 572.662 157.163 572.392C158.863 568.315 159.893 563.874 161.203 559.641C161.313 559.287 161.073 558.83 160.723 558.757H160.703ZM156.273 571.175C153.463 570.187 150.633 569.293 147.773 568.461C146.113 567.972 144.213 567.15 142.423 567.088C143.593 563.666 144.853 560.213 145.753 556.697C148.163 557.977 151.093 558.622 154.013 559.11C155.783 559.506 157.593 559.734 159.353 560.254C159.423 560.275 159.473 560.265 159.533 560.265C158.403 563.863 157.083 567.493 156.273 571.165V571.175Z" fill="#231F20"/>
<path d="M143 602.827C155 736.995 333 619.468 392 760.917" stroke="#656565" stroke-linejoin="round" stroke-dasharray="8 8"/>
</svg>
