<svg width="189" height="497" viewBox="0 0 189 497" fill="none" xmlns="http://www.w3.org/2000/svg">
<path d="M166.713 286.169C163.738 286.619 160.963 287.971 158.006 288.578C156.817 288.82 155.609 288.976 154.419 289.098C154.726 287.677 154.924 286.221 155.014 284.765C158.169 283.707 161.449 282.841 164.387 281.316C164.712 281.142 164.586 280.553 164.189 280.605C161.053 280.952 158.024 282.044 155.068 283.136C155.068 276.376 152.761 269.617 147.858 264.833C147.84 264.764 147.822 264.694 147.786 264.625C146.741 262.268 145.677 259.928 144.614 257.588C144.145 256.566 142.433 256.652 141.946 257.588C139.711 261.817 139.783 265.284 134.34 266.046C129.671 266.705 124.984 267.485 120.46 268.802C113.971 270.691 107.428 273.551 103.03 278.629C102.057 276.861 101.065 276.185 98.9563 275.267C97.8207 274.764 96.6671 275.579 96.9014 276.792C98.5778 285.441 100.615 294.765 106.797 301.455C106.563 301.611 106.311 301.75 106.076 301.906C103.048 303.813 99.3348 305.736 97.2079 308.596C96.9195 308.977 97.4061 309.584 97.8568 309.411C101.408 308.093 104.49 305.216 107.662 303.206C107.843 303.085 108.041 302.981 108.221 302.859C108.726 303.327 109.267 303.795 109.843 304.228C110.222 304.523 110.6 304.783 110.997 305.043C109.789 305.84 108.636 306.672 107.518 307.539C105.229 309.324 102.147 311.387 101.047 314.09C100.759 314.801 101.678 315.234 102.237 314.974C104.869 313.778 106.959 310.971 109.177 309.133C110.402 308.128 111.682 307.175 112.962 306.239C120.514 310.243 130.41 309.965 138.449 307.522C146.38 305.112 151.571 298.786 153.807 291.42C158.763 291.264 164.117 290.034 167.524 287.434C168.245 286.879 167.434 285.995 166.731 286.117L166.713 286.169ZM151.662 284.349C149.21 285.163 146.542 286.047 144.812 287.711C144.74 287.78 144.812 287.884 144.884 287.884C147.101 287.884 149.318 287.018 151.481 286.134C151.355 287.105 151.193 288.075 150.995 289.028C150.959 289.167 150.923 289.288 150.887 289.41C149.913 289.479 148.922 289.548 147.93 289.635C147.119 289.704 146.795 290.952 147.714 291.108C148.525 291.247 149.39 291.351 150.31 291.403C147.678 299.341 141.315 304.211 132.411 305.424C126.553 306.239 120.821 306.118 115.864 304.055C116.206 303.778 116.567 303.518 116.909 303.241C117.54 302.738 116.729 301.993 116.116 302.253C115.431 302.547 114.746 302.877 114.079 303.223C112.998 302.651 111.97 301.975 110.979 301.178C113.178 299.861 115.359 298.526 117.378 296.966C117.666 296.741 117.36 296.256 117.017 296.36C114.332 297.192 111.862 298.422 109.465 299.809C108.888 299.237 108.329 298.63 107.807 297.972C103.408 292.425 101.624 285.614 100.164 278.872C100.777 279.201 101.39 279.513 102.021 279.825C101.93 280.241 102.489 280.692 102.886 280.414C108.185 276.705 113.773 273.898 119.667 271.887C120.803 273.776 121.794 275.735 122.623 277.78C122.876 278.421 123.975 278.144 123.705 277.485C122.876 275.423 121.884 273.43 120.749 271.506C121.56 271.246 122.389 270.986 123.218 270.761C124.282 272.892 125.093 275.094 125.669 277.399C125.832 278.075 126.931 277.797 126.751 277.104C126.174 274.799 125.345 272.598 124.3 270.466C125.309 270.206 126.336 269.963 127.364 269.738C127.364 269.773 127.364 269.807 127.364 269.842C127.923 272.008 128.752 274.088 129.815 276.064C130.14 276.688 131.113 276.133 130.789 275.51C129.761 273.603 129.004 271.627 128.463 269.547C128.463 269.53 128.445 269.513 128.445 269.495C132.195 268.733 136.052 268.247 140.017 268.057C140.684 268.022 141.333 267.623 141.495 266.982C141.964 265.145 142.505 263.55 143.19 261.939C143.731 263.135 144.253 264.33 144.794 265.509C144.794 265.838 144.92 266.185 145.245 266.48C150.22 271.142 152.022 277.763 151.626 284.279L151.662 284.349Z" fill="#818181"/>
<path d="M140.27 290.016C139.441 292.686 136.917 294.02 134.231 293.985C134.033 292.686 133.799 291.386 133.474 290.103C133.456 289.999 133.402 289.93 133.348 289.843C134.177 289.15 134.844 288.283 135.223 287.243C135.511 286.429 134.718 285.371 133.799 285.458C132.213 285.597 130.644 285.874 129.148 286.429C128.211 286.775 126.463 287.33 126.463 288.526C125.994 288.855 125.922 289.67 126.318 290.103C127.508 291.438 129.761 291.542 131.383 290.97C131.456 292.062 131.582 293.136 131.726 294.211C131.618 294.419 131.6 294.679 131.726 294.921C130.32 295.563 128.896 296.031 127.346 296.325C126.427 296.499 125.507 296.603 124.57 296.637C124.173 296.637 123.795 296.637 123.398 296.637C123.272 296.585 123.182 296.568 123.074 296.551C123.002 296.048 122.641 295.597 122.028 295.615C121.145 295.615 120.406 296.048 120.316 297.001C120.208 298.249 121.434 298.648 122.461 298.786C126.463 299.306 130.32 298.492 133.853 296.672C134.069 296.568 134.195 296.395 134.285 296.221C137.908 296.897 142.072 294.211 142.829 290.692C143.172 289.098 140.756 288.422 140.27 290.016Z" fill="#818181"/>
<path d="M117.558 288.856C114.115 287.018 109.537 289.133 107.969 292.357C107.212 293.916 109.627 295.268 110.384 293.708C111.556 291.265 114.043 290.554 116.657 290.935C117.901 291.126 118.838 289.531 117.576 288.856H117.558Z" fill="#818181"/>
<path d="M148.345 279.565C144.992 278.733 141.243 279.496 139.098 282.235C138.395 283.136 139.747 284.245 140.648 283.725C142.811 282.46 144.992 281.732 147.516 282.46C149.444 283.014 150.292 280.051 148.345 279.565Z" fill="#818181"/>
<path d="M117.522 348.997L115.702 344.594C116.026 344.872 116.639 344.872 116.801 344.352C117.558 342.081 118.387 339.1 116.423 337.159C115.125 335.859 112.962 335.443 111.52 336.726C111.249 336.951 111.267 337.246 111.412 337.488C111.412 337.592 111.412 337.696 111.448 337.818C113.07 341.752 114.692 345.686 116.332 349.621C116.657 350.383 117.829 349.777 117.504 349.014L117.522 348.997ZM115.954 338.667C116.837 340.279 116.062 342.359 115.539 343.97C115.521 344.022 115.539 344.074 115.521 344.144L112.763 337.471C113.881 336.847 115.377 337.627 115.954 338.667Z" fill="#818181"/>
<path d="M127.922 343.156C127.526 342.636 127.111 342.116 126.715 341.596C126.823 341.18 126.571 340.712 126.084 340.782C124.335 338.546 122.605 336.293 120.857 334.057C120.496 333.589 119.937 333.884 119.775 334.317C119.649 334.421 119.559 334.559 119.559 334.75C119.306 338.702 119.433 342.619 119.937 346.553C120.045 347.368 121.343 347.073 121.235 346.259C121.127 345.461 121.055 344.664 120.983 343.867C122.515 343.347 124.047 342.809 125.579 342.29L126.931 344.023C127.454 344.681 128.427 343.797 127.904 343.139L127.922 343.156ZM120.929 342.532C120.803 340.418 120.766 338.303 120.857 336.189L124.768 341.215C123.488 341.648 122.208 342.099 120.929 342.532Z" fill="#818181"/>
<path d="M136.322 341.129C135.836 339.638 134.7 338.39 133.438 337.472C132.681 336.917 131.834 336.518 130.987 336.12C130.32 335.877 129.689 335.617 129.058 335.322C128.211 333.503 129.094 332.705 131.708 332.913C132.158 333.624 133.33 333.017 132.879 332.307C131.275 329.724 127.093 331.856 127.075 334.49C127.057 335.877 128.337 336.397 129.437 336.917C131.077 337.68 132.645 338.199 133.871 339.586C135.8 341.753 135.836 345.652 132.519 346.709C131.708 346.969 132.014 348.235 132.825 347.957C135.781 347.021 137.26 343.988 136.322 341.111V341.129Z" fill="#818181"/>
<path d="M143.424 341.718C143.226 340.279 142.523 338.945 141.423 337.974C140.792 337.419 140.089 337.073 139.332 336.709C138.684 336.449 138.053 336.154 137.422 335.825C135.151 334.716 135.781 333.156 139.296 331.18C140.126 331.423 140.522 330.192 139.693 329.949C136.719 329.1 133.474 331.284 134.502 334.49C135.024 336.137 136.575 336.865 138.071 337.575C139.387 338.199 140.648 338.771 141.441 340.054C142.253 341.354 142.18 342.238 141.676 343.503C141.676 343.468 141.369 343.954 141.081 344.439C140.955 344.162 140.612 343.954 140.324 344.058C140.234 344.092 140.162 344.11 140.071 344.127C139.765 344.231 139.603 344.422 139.567 344.734C139.567 344.803 139.549 344.872 139.531 344.942C139.495 345.219 139.747 345.496 139.999 345.583C142.721 346.397 143.731 343.988 143.424 341.752V341.718Z" fill="#818181"/>
<path d="M146.452 334.871C146.452 334.871 146.47 334.854 146.488 334.837C147.732 333.069 151.121 331.076 149.589 328.493C148.147 326.084 145.028 327.384 143.226 328.511C142.811 328.771 142.865 329.273 143.118 329.551C143.118 329.603 143.118 329.672 143.154 329.741C144.217 332.133 145.064 334.577 145.749 337.073C145.966 337.87 147.281 337.575 147.047 336.778C146.867 336.137 146.65 335.513 146.452 334.871ZM148.471 330.417C148.074 331.613 146.921 332.462 146.002 333.398C145.515 332.012 144.992 330.642 144.415 329.308C144.992 328.944 145.587 328.615 146.254 328.476C147.57 328.199 148.94 328.979 148.471 330.417Z" fill="#818181"/>
<path d="M156.979 325.287C155.014 324.074 152.112 325.235 152.347 327.662C152.347 327.731 152.383 327.8 152.419 327.87C152.022 330.261 151.86 333.242 154.474 334.508C156.51 335.478 158.475 334.438 158.89 332.341C159.34 330.001 159.304 326.743 156.961 325.287H156.979ZM157.466 332.618C156.655 334.317 154.654 333.554 153.933 332.306C153.158 330.972 153.554 329.169 153.789 327.766C153.807 327.61 153.789 327.488 153.716 327.402C153.825 325.998 155.537 325.807 156.564 326.656C157.177 327.159 157.466 327.835 157.646 328.58C157.88 329.603 157.952 331.613 157.466 332.636V332.618Z" fill="#818181"/>
<path d="M169.524 328.892C169.164 330.573 166.55 329.291 164.766 328.545C166.1 327.28 166.839 325.339 165.595 323.745C164.459 322.289 162.206 321.994 160.836 323.277C160.404 323.675 160.71 324.23 161.143 324.368C161.9 326.795 162.657 329.204 163.414 331.631C163.666 332.428 164.964 332.133 164.712 331.336C164.531 330.764 164.351 330.175 164.171 329.603C165.685 330.071 166.893 331.249 168.605 331.041C169.687 330.903 170.57 330.365 170.804 329.291C170.984 328.476 169.705 328.095 169.524 328.909V328.892ZM164.622 324.663C165.306 325.79 164.549 327.072 163.612 327.835C163.198 326.5 162.783 325.183 162.368 323.849C163.18 323.589 164.153 323.901 164.603 324.646L164.622 324.663Z" fill="#818181"/>
<path d="M175.581 329.499C174.445 326.466 173.31 323.433 172.174 320.417C172.174 320.399 172.156 320.382 172.138 320.365L175.545 319.065C176.338 318.753 175.707 317.626 174.914 317.938C172.499 318.857 170.065 319.776 167.65 320.694C166.857 321.006 167.488 322.133 168.281 321.821C169.146 321.491 170.029 321.162 170.894 320.833C172.012 323.814 173.129 326.812 174.265 329.793C174.553 330.573 175.869 330.279 175.563 329.499H175.581Z" fill="#818181"/>
<path d="M117.179 317.765C111.375 317.765 111.375 326.431 117.179 326.431C122.984 326.431 122.984 317.765 117.179 317.765Z" fill="#818181"/>
<path d="M108.906 319.741C106.725 319.741 106.725 322.999 108.906 322.999C111.087 322.999 111.087 319.741 108.906 319.741Z" fill="#818181"/>
<path d="M111.159 315.771C108.978 315.771 108.978 319.03 111.159 319.03C113.34 319.03 113.34 315.771 111.159 315.771Z" fill="#818181"/>
<path d="M115.666 313.241C113.485 313.241 113.485 316.5 115.666 316.5C117.847 316.5 117.847 313.241 115.666 313.241Z" fill="#818181"/>
<path d="M152.094 243.012C146.29 243.012 146.29 251.678 152.094 251.678C157.898 251.678 157.898 243.012 152.094 243.012Z" fill="#818181"/>
<path d="M187.928 338.372C183.728 321.266 179.438 304.177 175.13 287.087C173.039 278.768 170.93 270.449 168.857 262.112C166.694 253.446 165.144 244.26 161.792 235.941C161.575 235.404 160.999 235.144 160.476 235.144C160.35 235.074 160.205 235.022 160.043 235.04C155.699 235.161 151.355 236.426 147.101 237.726C145.173 232.163 143.208 226.582 140.774 221.209C140.432 220.429 139.206 220.238 138.521 220.637C127.454 227.015 115.846 232.63 104.526 238.593C95.0448 243.602 84.2477 248.056 75.5236 254.399C74.5502 253.966 73.1984 254.833 73.3606 256.011C73.3245 256.046 73.2885 256.063 73.2524 256.098C72.7658 256.497 73.1263 257.207 73.667 257.311C75.8661 266.133 79.5792 274.747 82.5354 283.361C85.6537 292.426 88.6639 301.507 91.62 310.607C97.5322 328.823 103.3 347.09 108.473 365.497C108.924 367.109 110.654 367.49 112.06 366.901C135.872 357.004 160.133 348.928 185.116 342.307C185.981 342.081 186.522 341.579 186.774 340.99C187.64 340.487 188.234 339.568 187.946 338.355L187.928 338.372ZM106.148 241.296C116.855 235.646 127.4 229.632 138.269 224.294C139.657 229.216 141.387 234.086 143.118 238.905C142.433 239.095 141.766 239.303 141.081 239.477C137.674 240.378 134.249 241.262 130.825 242.128C132.681 241.244 134.466 240.274 136.106 239.165C136.34 239.009 136.214 238.627 135.908 238.697C131.437 239.841 127.129 242.111 122.912 244.104C121.451 244.468 119.973 244.832 118.513 245.196C114.458 246.184 110.294 247.051 106.13 247.917C114.872 243.931 123.849 240.465 132.591 236.444C132.717 236.374 132.627 236.166 132.483 236.218C123.182 239.425 114.205 243.827 105.355 248.073C98.6678 249.442 91.9084 250.829 85.3833 252.632C92.5032 249.13 99.3888 244.849 106.148 241.279V241.296ZM112.313 361.493C106.761 343.728 101.245 325.945 95.3151 308.284C93.062 301.577 90.9531 294.661 88.754 287.746C89.3849 288.439 90.2861 288.907 91.2595 288.873C93.0981 288.786 94.6482 287.451 94.6482 285.614V285.25C94.6482 283.552 93.0981 281.922 91.2595 281.992C89.493 282.061 87.997 283.344 87.8888 285.077C84.7164 275.284 81.2916 265.544 76.8755 256.479C88.6098 255.873 100.488 252.684 111.952 249.789C111.916 250.361 112.277 250.95 113.034 250.95C114.025 250.95 114.332 249.945 113.953 249.304C115.305 248.974 116.657 248.645 117.991 248.316C125.111 246.635 132.194 244.884 139.278 243.064C142.072 242.354 145.064 241.73 148.038 241.036C148.002 241.296 148.038 241.556 148.183 241.782C147.642 241.938 147.678 242.839 148.345 242.839C148.723 242.839 148.904 242.544 148.886 242.25C148.958 242.25 149.012 242.284 149.102 242.284C150.147 242.284 150.418 241.175 149.967 240.551C153.302 239.702 156.564 238.679 159.466 237.206C161.143 253.775 166.875 270.657 170.66 286.879C174.607 303.83 178.555 320.798 182.593 337.731C158.187 342.376 134.375 350.487 112.295 361.493H112.313Z" fill="#818181"/>
<path d="M154.347 239.407C152.905 239.407 152.887 241.574 154.347 241.574C155.807 241.574 155.807 239.407 154.347 239.407Z" fill="#818181"/>
<path d="M156.979 241.938C155.537 241.938 155.519 244.104 156.979 244.104C158.439 244.104 158.439 241.938 156.979 241.938Z" fill="#818181"/>
<path d="M97.6403 262.875H97.2618C95.4953 262.875 93.801 264.366 93.8731 266.133C93.9632 267.901 95.3511 269.392 97.2618 269.392H97.6403C99.4068 269.392 101.101 267.901 101.029 266.133C100.939 264.366 99.551 262.875 97.6403 262.875Z" fill="#818181"/>
<path d="M95.0087 259.27C93.5667 259.27 93.5487 261.436 95.0087 261.436C96.4687 261.436 96.4687 259.27 95.0087 259.27Z" fill="#818181"/>
<path d="M98.776 259.27C97.334 259.27 97.316 261.436 98.776 261.436C100.236 261.436 100.236 259.27 98.776 259.27Z" fill="#818181"/>
<path d="M101.408 261.072C99.9656 261.072 99.9476 263.239 101.408 263.239C102.868 263.239 102.868 261.072 101.408 261.072Z" fill="#818181"/>
<path d="M86.7532 280.207V280.571C86.7532 281.957 89.0063 281.974 89.0063 280.571V280.207C89.0063 278.82 86.7532 278.803 86.7532 280.207Z" fill="#818181"/>
<path d="M90.881 278.404C89.439 278.404 89.421 280.571 90.881 280.571C92.341 280.571 92.341 278.404 90.881 278.404Z" fill="#818181"/>
<path d="M93.8913 279.115C92.4492 279.115 92.4312 281.281 93.8913 281.281C95.3513 281.281 95.3513 279.115 93.8913 279.115Z" fill="#818181"/>
<path d="M112.673 251.505C107.59 251.505 107.59 259.097 112.673 259.097C117.756 259.097 117.756 251.505 112.673 251.505Z" fill="#818181"/>
<path d="M116.801 249.876C115.359 249.876 115.341 252.042 116.801 252.042C118.261 252.042 118.261 249.876 116.801 249.876Z" fill="#818181"/>
<path d="M118.676 252.77C117.234 252.77 117.216 254.937 118.676 254.937C120.136 254.937 120.136 252.77 118.676 252.77Z" fill="#818181"/>
<path d="M-47 7.99995C116.938 -19.4399 153.588 33.33 139 226" stroke="#828282" stroke-linejoin="round" stroke-dasharray="8 8"/>
<path d="M-23 479.002C93.4438 560.198 26.1359 316.261 109 360.002" stroke="#828282" stroke-linejoin="round" stroke-dasharray="8 8"/>
</svg>
