<svg width="60" height="53" viewBox="0 0 60 53" fill="none" xmlns="http://www.w3.org/2000/svg">
<path d="M50.5546 38.3018C50.5426 38.1303 50.5252 37.9589 50.5067 37.7898C50.53 37.7403 50.5278 37.6812 50.4885 37.6374C50.4562 37.3704 50.4172 37.1057 50.3739 36.8389C50.3726 36.83 50.3725 36.8245 50.369 36.8145C50.1994 35.7796 49.955 34.7416 49.7461 33.7208C49.7791 33.7202 49.8152 33.7073 49.8454 33.6777C50.1935 33.3489 50.5415 33.0201 50.8895 32.6913C50.9428 32.7171 51.0131 32.7124 51.0671 32.6612C51.8044 31.9683 52.546 31.2775 53.2843 30.5823C53.9177 29.9828 54.576 29.3649 54.9616 28.5627C55.0357 28.4052 55.0965 28.2412 55.1451 28.0742C55.4767 27.2651 55.4928 26.3449 54.8606 25.6856C54.8536 25.6656 54.8423 25.6491 54.8277 25.6338C54.8202 25.5804 54.7863 25.5309 54.7211 25.5131C53.257 25.0646 51.8413 25.3354 50.5565 26.1501C50.0326 26.4822 49.5223 26.8375 49.0211 27.2082C48.9948 27.0961 48.9597 26.9796 48.9103 26.8646C48.908 26.858 48.9035 26.8502 48.8989 26.8425C48.5748 26.0726 47.7987 25.3022 47.0242 25.2811C45.9328 25.2503 45.5616 26.5953 45.5214 27.526C41.852 25.5356 38.1974 23.5137 34.6654 21.2832C34.4997 21.1782 34.3327 21.0698 34.168 20.9625C35.3778 18.9929 37.3486 17.6289 38.4314 15.5703C39.053 14.3878 39.595 12.2802 38.3939 11.2959C38.3939 11.2959 38.3905 11.2915 38.3893 11.2882C38.3632 11.2452 38.3299 11.2235 38.2935 11.2198C38.2467 11.1861 38.1988 11.1547 38.1499 11.1255C37.4708 10.7279 36.4723 10.5404 35.7006 10.6754C34.7591 10.8414 33.927 11.458 33.1131 11.9261C30.8791 13.2069 28.578 14.3641 26.2263 15.403C26.2056 15.4123 26.186 15.4249 26.1731 15.4408C25.5511 15.0377 24.9227 14.6481 24.2793 14.2789C21.0932 12.4422 17.2368 10.9303 13.6527 12.464C12.8388 12.8105 12.0672 13.2465 11.2898 13.6714C10.6105 14.0444 9.73359 14.3742 9.24942 15.0155C8.93809 15.4284 8.80185 15.9148 8.78249 16.4192C8.76678 16.5221 8.75551 16.6271 8.75311 16.7364C8.71447 18.1098 9.42888 19.4745 10.2616 20.5125C12.1824 22.9083 15.1615 24.4322 18.0312 25.3204C17.5385 27.1784 17.0187 28.9957 16.1913 30.7719C15.3914 32.484 14.604 34.2851 14.5756 36.2158C14.5521 36.8562 14.6319 37.4914 14.9482 38.0697C15.2633 38.6447 15.7638 39.0167 16.3515 39.1628C16.4622 39.2053 16.5761 39.2411 16.6953 39.2656C16.6979 39.347 16.7522 39.4285 16.8554 39.4232C17.1707 39.4072 17.4677 39.3548 17.7522 39.277C18.001 39.2344 18.2504 39.1617 18.4981 39.0578C19.9101 38.4648 20.9201 37.2326 21.7537 35.9815C22.7993 34.413 23.7558 32.9009 25.0595 31.5595C25.7711 31.0254 26.524 30.5306 27.1807 29.9396C27.4068 29.7368 27.6346 29.5073 27.8456 29.2614C33.5544 31.2937 39.1501 34.296 45.357 34.1C45.6288 35.1375 45.9697 36.1558 46.4022 37.1411C46.7787 38.0027 47.2534 39.072 48.0481 39.6524C48.2715 39.8434 48.5301 39.9768 48.8289 40.0191C48.8355 40.0223 48.8422 40.0255 48.851 40.0242C50.0125 40.2878 50.6271 39.3809 50.5512 38.2974L50.5546 38.3018ZM54.79 28.0764C54.4916 28.6585 54.0243 29.2003 53.6392 29.6078C52.7157 30.5752 51.7418 31.4934 50.7352 32.3709C50.7241 32.3655 50.7141 32.3579 50.6997 32.3537C49.9009 32.1413 49.1429 31.8244 48.4474 31.3691C48.1224 31.1567 47.6838 30.8617 47.3136 30.5196C47.3377 30.5147 47.3617 30.5042 47.3844 30.4848C48.5126 29.5281 49.6376 28.5725 50.7659 27.6158C51.8119 26.7297 52.9565 25.7671 54.379 25.8697C55.0467 26.4826 55.0651 27.3063 54.7911 28.0797L54.79 28.0764ZM50.2721 26.7085C51.3016 26.0079 52.3548 25.5755 53.5102 25.6206C52.6864 25.7911 51.9395 26.2557 51.2492 26.8083C49.8588 27.9228 48.5226 29.1131 47.1638 30.2649C47.141 30.2843 47.1282 30.3057 47.1209 30.327C46.8933 30.0871 46.717 29.825 46.635 29.5534C47.7907 28.5326 48.9992 27.5732 50.2731 26.7063L50.2721 26.7085ZM48.6414 27.0079C48.6875 27.1241 48.7225 27.235 48.7365 27.3384C48.7391 27.3618 48.7483 27.3828 48.7585 27.4016C48.2802 27.764 47.8099 28.1386 47.3507 28.5241C47.3417 28.5143 47.3305 28.5033 47.3172 28.4969C46.8197 28.2286 46.321 27.957 45.8235 27.6887C45.8227 27.3431 45.8707 26.9051 46.0066 26.5178C46.0121 26.5177 46.0165 26.5199 46.0198 26.5187C46.49 26.434 46.9447 26.469 47.4084 26.5717C47.7783 26.654 48.3515 26.7324 48.6381 27.0091L48.6414 27.0079ZM47.095 25.6053C47.5318 25.6205 48.0185 26.0217 48.3493 26.4883C48.0659 26.3843 47.7515 26.3289 47.4843 26.2715C47.0372 26.174 46.5989 26.1387 46.1524 26.1906C46.3482 25.8379 46.6494 25.5914 47.0961 25.6087L47.095 25.6053ZM34.225 11.6353C35.2217 11.0624 36.0751 10.8289 37.2094 11.1041C37.6423 11.2086 37.9699 11.3809 38.2125 11.6004C39.0072 13.0841 38.6155 14.4551 37.7725 15.7377C36.929 14.0453 35.6021 12.6798 33.9388 11.7979C34.0356 11.7426 34.1292 11.6884 34.226 11.6331L34.225 11.6353ZM33.6309 11.9776C33.6421 11.9886 33.651 11.9985 33.6666 12.006C35.3903 12.8867 36.7342 14.2798 37.5745 16.0313C37.3579 16.3353 37.1182 16.6364 36.8663 16.9288C36.6998 16.1247 35.9325 15.295 35.4683 14.7418C34.705 13.834 33.7983 13.075 32.7962 12.455C33.0748 12.297 33.3545 12.1367 33.6309 11.9776ZM31.6348 13.1001C31.92 12.9454 32.2041 12.7872 32.4893 12.6269C33.3542 13.1447 34.1463 13.7654 34.8404 14.5016C35.2003 14.8829 35.5322 15.2892 35.8314 15.7184C36.1013 16.1058 36.5939 16.7087 36.5937 17.2361C35.9343 17.9778 35.2161 18.6882 34.6107 19.3731C33.2442 17.2289 31.3382 15.5198 29.0628 14.4163C29.9281 13.9953 30.7865 13.5543 31.6336 13.0968L31.6348 13.1001ZM28.7184 14.5867C28.7284 14.5943 28.7374 14.6042 28.7507 14.6106C31.0831 15.703 33.0268 17.4248 34.4019 19.6201C34.2511 19.7957 34.1104 19.9734 33.9805 20.1454C32.2577 18.1161 30.225 16.3982 27.945 15.0439C27.9445 15.0161 27.933 14.9884 27.9171 14.9642C28.1831 14.8387 28.4513 14.7144 28.7162 14.5856L28.7184 14.5867ZM27.0859 15.5095C27.2462 15.3771 27.4256 15.2042 27.6388 15.1969C27.6502 15.219 27.6693 15.242 27.6971 15.2582C30.0124 16.6185 32.0607 18.3495 33.7983 20.4053C33.7469 20.4798 33.7009 20.5543 33.6561 20.6265C31.2908 19.0598 29.0259 17.3317 26.6607 15.765C26.8191 15.7118 26.956 15.6178 27.0881 15.5105L27.0859 15.5095ZM12.5058 13.362C12.9915 13.1053 13.4789 12.8798 13.967 12.6933C13.9674 12.7736 13.9743 12.8515 13.9779 12.9306C13.9681 12.9342 13.9571 12.9344 13.9462 12.9401C13.1763 13.3493 12.4405 13.8192 11.7397 14.342C11.6524 14.1976 11.5651 14.0531 11.48 13.9098C11.8208 13.7239 12.1627 13.5413 12.5058 13.362ZM14.0147 13.2578C14.1206 13.9359 14.406 14.5684 14.8405 15.121C15.1321 15.4913 15.4744 15.8116 15.8447 16.0956C16.003 16.2164 16.214 16.3295 16.4207 16.4461C16.4652 16.4787 16.5065 16.5125 16.5468 16.5485C17.0318 16.8549 16.9586 17.2421 16.325 17.709C16.1819 17.7005 16.0399 17.6898 15.899 17.6824C15.2257 17.6025 14.5626 17.3619 13.9854 17.0026C13.0556 16.4258 12.4586 15.5294 11.9019 14.611C12.5744 14.1077 13.2787 13.6585 14.0169 13.2588L14.0147 13.2578ZM11.1376 21.0357C10.6727 20.565 10.2496 20.04 9.90491 19.47C10.7396 20.5559 11.8777 21.402 13.0168 22.1187C14.6532 23.1506 16.3948 23.9875 18.1996 24.6672C18.1687 24.7848 18.1379 24.9025 18.1071 25.0202C15.567 24.2361 13.0287 22.9503 11.1387 21.0335L11.1376 21.0357ZM18.004 38.6779C17.4977 38.8915 16.9591 38.9596 16.4722 38.8539C15.535 38.4724 14.9279 37.4412 14.9172 36.2595C14.9042 34.8281 15.5327 33.4169 16.1255 32.1045C17.9662 33.0667 19.8042 34.0579 21.2817 35.5432C20.97 36.0553 20.6483 36.5598 20.2896 37.0326C19.6152 37.731 18.8464 38.3231 18.004 38.6779ZM21.6958 34.8597C21.6126 34.9962 21.5282 35.1349 21.4472 35.2725C19.9532 33.7875 18.103 32.7876 16.2534 31.8211C16.3094 31.6962 16.3654 31.5714 16.4181 31.4478C16.4571 31.359 16.4962 31.2701 16.5353 31.1813C18.4679 32.0582 20.3962 33.06 21.792 34.7074C21.7599 34.7581 21.7279 34.8089 21.6991 34.8585L21.6958 34.8597ZM23.9825 31.7124C23.2306 32.564 22.5634 33.4786 21.9575 34.4366C20.5322 32.7998 18.6157 31.7844 16.6576 30.898C17.1654 29.7433 17.6665 28.5854 18.0458 27.3796C18.0547 27.3839 18.0635 27.3882 18.0746 27.3936C20.5725 27.9721 22.8379 29.1895 24.7086 30.9506C24.458 31.1939 24.2141 31.446 23.9803 31.7113L23.9825 31.7124ZM24.9357 30.74C23.0268 28.9384 20.7024 27.6842 18.1505 27.0933C18.1439 27.0901 18.1395 27.0935 18.1318 27.0925C18.2351 26.7282 18.3184 26.3542 18.3973 25.9781C21.1722 26.5525 23.8842 27.7816 25.6656 30.0684C25.42 30.2894 25.1745 30.5103 24.9335 30.7389L24.9357 30.74ZM27.0272 28.8241C26.6566 29.1834 26.2725 29.5251 25.8906 29.8679C24.0612 27.5385 21.3044 26.2657 18.46 25.677C18.6556 24.711 18.8446 23.7418 19.2661 22.8631C19.6633 22.036 20.2442 21.3918 21.0999 21.3445C21.2454 21.3596 21.3976 21.389 21.5613 21.4406C21.6232 21.4595 23.102 21.9925 23.7292 22.3152C25.1446 23.0468 27.7596 24.9222 27.7752 24.9352C28.9838 26.1468 28.0256 27.8597 27.0305 28.8229L27.0272 28.8241ZM28.3113 27.9123C28.4147 27.7331 28.508 27.5462 28.5881 27.353C28.5191 27.5516 28.4268 27.7362 28.3113 27.9123ZM28.0543 29.0088C28.1252 28.916 28.1938 28.8222 28.2602 28.7273C33.4725 31.3231 39.0229 32.9916 44.7643 33.8023C38.8673 33.8029 33.5065 30.9612 28.0532 29.011L28.0543 29.0088ZM28.4281 28.4632C28.523 28.302 28.6102 28.1398 28.684 27.9711C28.778 27.8177 28.8575 27.6545 28.917 27.4817C29.272 26.4492 28.8238 25.5723 28.1661 24.8454C28.1581 24.8277 28.1446 24.8101 28.1234 24.7915C28.1167 24.7883 28.1111 24.7829 28.1033 24.7763C28.0629 24.7347 28.0215 24.6953 27.9812 24.6537C27.9816 24.618 27.7347 24.4019 27.6365 24.3268C27.4543 24.1641 27.0095 23.8302 26.9689 23.8354C26.0132 23.1632 25.0104 22.5676 23.9565 22.0578C23.9321 22.046 23.91 22.0409 23.888 22.0413C23.4196 21.7981 22.9415 21.5696 22.456 21.3624C21.8343 21.0976 21.1658 20.8571 20.5081 21.0913C19.4359 21.3847 18.7376 22.6433 18.4474 23.7292C18.3908 23.9422 18.3353 24.1528 18.2798 24.3635C16.3467 23.6383 14.476 22.7224 12.7496 21.5752C11.1934 20.5407 9.46792 19.0846 9.14159 17.1149C9.14149 17.1093 9.13917 17.1027 9.13907 17.0971C9.19034 17.075 9.228 17.0297 9.22339 16.9584C9.18421 15.9589 10.3358 15.3173 11.1536 15.0611C11.3417 15.0029 11.256 14.7046 11.0679 14.7627C10.4458 14.9562 9.7116 15.3357 9.28308 15.8935C9.61672 15.1379 10.3246 14.5827 11.2045 14.1135C11.211 14.1111 11.2164 14.1054 11.2207 14.102C11.6718 15.2565 12.4125 16.2528 13.4057 16.9901C14.2762 17.6349 15.7452 18.409 16.8664 18.1504C17.8639 17.9231 17.6695 16.9701 16.9921 16.4877C16.9141 16.4334 16.8372 16.3769 16.7571 16.3215C16.7526 16.3194 16.7481 16.3117 16.7414 16.3085C16.2028 15.838 15.6793 15.4688 15.257 14.8668C14.8776 14.3242 14.0612 13.0316 14.762 12.4509C14.775 12.4406 14.7835 12.4282 14.7921 12.4158C15.8368 12.1229 16.9116 12.0269 18.0728 12.2102C21.669 12.7814 24.8586 14.8712 27.7883 16.9402C30.8629 19.1124 33.9347 21.2501 37.1676 23.1785C40.426 25.122 43.7632 26.9269 47.0983 28.7307C46.8298 28.9599 46.5625 29.1924 46.2973 29.426C46.2053 29.5057 46.2547 29.6208 46.338 29.6638C46.5543 30.3678 47.2763 30.8883 47.8305 31.3083C48.6367 31.922 49.5406 32.3454 50.5055 32.616C50.2418 32.8641 49.9802 33.1132 49.7175 33.359C49.7067 33.2488 49.6675 33.147 49.6042 33.0556C49.5937 33.0201 49.5734 32.9937 49.5468 32.9809C49.431 32.8448 49.2716 32.7262 49.0895 32.6271C48.3983 32.0525 47.5282 31.731 46.6147 31.7448C46.4828 31.7473 45.3089 31.8921 45.1426 32.1817C45.0501 32.1757 44.9417 32.2558 44.9626 32.3791C45.0336 32.7725 45.1144 33.1624 45.205 33.5487C39.3618 32.7633 33.7135 31.0945 28.4159 28.4601L28.4281 28.4632ZM17.2598 17.2967C17.3367 17.5327 17.237 17.6751 17.0626 17.7564C17.1987 17.6234 17.2574 17.464 17.2598 17.2967ZM46.504 36.6352C46.3874 36.333 46.2786 36.0318 46.1754 35.7416C46.0525 35.3949 45.9491 34.914 45.8609 34.4184C46.0625 35.1594 46.2859 35.8945 46.5324 36.6213C46.5225 36.6248 46.5149 36.6294 46.504 36.6352ZM46.8126 36.4945C46.608 35.8873 46.4175 35.2732 46.2446 34.6564C46.1176 34.2084 45.5569 32.8296 45.8035 32.3633C46.3386 32.1637 47.1276 32.3161 47.5858 32.419C47.768 32.4602 48.5006 32.6571 48.9851 32.9357C49.1159 33.0514 49.2392 33.1773 49.3549 33.3134L49.9517 36.5436C48.9492 36.0807 47.834 36.066 46.8137 36.4922L46.8126 36.4945ZM46.9092 36.787C47.9239 36.3498 49.0387 36.4002 50.0203 36.9247C50.0326 36.997 50.0471 37.0703 50.0605 37.1403C50.08 37.2436 50.104 37.3547 50.127 37.468C49.1616 37.1115 48.1121 37.2004 47.219 37.7323C47.0963 37.3968 46.9957 37.0664 46.907 36.786L46.9092 36.787ZM49.5473 39.7424C49.5103 39.6996 49.4548 39.6728 49.3869 39.6897C49.2359 39.7271 49.0932 39.7409 48.9589 39.7312C48.5866 39.6367 48.215 39.4017 47.952 39.1502C47.6978 38.8395 47.4992 38.4396 47.3333 38.0279C48.213 37.4895 49.2551 37.4108 50.2007 37.8323C50.2822 38.2612 50.3301 38.7152 50.1907 39.0869C50.046 39.4699 49.8132 39.6694 49.5473 39.7424Z" fill="white"/>
<path d="M10.4433 17.8051C10.4433 17.8051 10.4388 17.803 10.4355 17.8042C10.2494 17.6672 10.0127 17.5913 9.75586 17.6162C9.69752 17.6129 9.63823 17.6173 9.57798 17.6296C9.54183 17.637 9.51137 17.6554 9.4898 17.6781C8.92305 17.8928 8.60382 18.5946 8.84102 19.1789C9.00679 19.585 9.43543 19.8144 9.85418 19.8043C9.91197 19.8378 9.98796 19.8442 10.0496 19.7884C10.0507 19.7861 10.0517 19.7839 10.055 19.7827C10.2007 19.751 10.3392 19.6881 10.4606 19.5922C10.9308 19.212 11.2189 18.0091 10.44 17.8063L10.4433 17.8051ZM9.10747 19.0178C8.9715 18.6178 9.18892 18.1209 9.58314 17.9718C9.63557 17.953 9.68811 17.9398 9.74297 17.9332C9.81674 17.9385 9.88638 17.9583 9.94966 17.9917C9.96646 18.0081 9.98431 18.0223 10.0119 18.0273C10.1399 18.1141 10.2348 18.2484 10.2707 18.4094C10.2772 18.523 10.2705 18.6413 10.2634 18.7318C10.1869 19.0566 9.92501 19.4685 9.60184 19.4143C9.56432 19.4072 9.53483 19.4178 9.5065 19.4317C9.32476 19.3549 9.17593 19.2138 9.10863 19.0211L9.10747 19.0178Z" fill="white"/>
<path d="M13.752 19.3753C13.4017 19.0373 12.8086 19.3139 12.548 19.6767C12.2371 20.1118 12.2344 20.743 12.6793 21.0825C12.8979 21.249 13.5816 21.3588 13.9478 20.8178C14.2261 20.4056 14.2539 19.6401 13.752 19.3753ZM12.9351 20.8803C12.6161 20.6957 12.5562 20.3021 12.7198 19.989C12.945 19.5566 13.59 19.7719 13.6985 19.9349C13.772 20.1666 13.7143 20.4397 13.6067 20.6859C13.4194 20.9682 12.9907 20.9127 12.9373 20.8814L12.9351 20.8803Z" fill="white"/>
<path d="M15.5933 21.3901C15.5933 21.3901 15.5913 21.4001 15.5914 21.4057C15.4315 21.8034 15.5703 22.2959 15.959 22.506C16.3932 22.7409 16.8975 22.5374 17.1601 22.1065C17.6854 21.2448 16.2548 19.9838 15.5966 21.3889L15.5933 21.3901ZM16.108 22.2356C15.8078 22.1153 15.7439 21.6894 15.9271 21.4217C16.1198 21.1393 16.5166 21.1296 16.7513 21.3371C16.967 21.527 17.1017 22.6362 16.108 22.2356Z" fill="white"/>
<path d="M20.06 22.9016C20.0087 22.8658 19.9489 22.8424 19.8753 22.8427C19.5572 22.7661 19.1944 23.0105 19.0362 23.3178C18.8217 23.7333 18.8793 24.2998 19.3051 24.5527C20.3344 25.1611 20.9369 23.2319 20.0589 22.9039L20.06 22.9016ZM19.8282 23.1569C20.0367 23.1942 20.2075 23.3928 20.2064 23.3951C20.2535 23.5614 20.213 24.4754 19.5094 24.3035C19.4917 24.295 19.4708 24.2931 19.4562 24.2778C18.6247 23.4861 19.5721 23.1628 19.8282 23.1569Z" fill="white"/>
<path d="M22.2805 26.1715C22.6541 26.4599 23.1979 26.3694 23.4735 25.9918C23.8469 25.4819 23.4723 24.9002 23.4178 24.8711C23.4045 24.8647 22.5105 24.0787 22.0618 24.8587C21.8189 25.2826 21.8857 25.87 22.2794 26.1737L22.2805 26.1715ZM22.3737 25.0179C22.5596 24.8427 22.8905 24.8978 23.1801 25.0986C23.3543 25.3072 23.4039 25.6129 23.2035 25.8363C23.0053 26.0608 22.6586 26.103 22.4305 25.8988C22.2059 25.699 22.1391 25.2331 22.3715 25.0168L22.3737 25.0179Z" fill="white"/>
</svg>
