<svg width="52" height="49" viewBox="0 0 52 49" fill="none" xmlns="http://www.w3.org/2000/svg">
<g clip-path="url(#clip0_246_340)">
<path d="M21.5539 37.4615C21.2905 37.409 21.2082 37.8193 21.4749 37.8718C21.7383 37.9244 21.8206 37.514 21.5539 37.4615Z" fill="#231F20"/>
<path d="M22.1136 37.1431L22.1004 37.212C22.0477 37.4746 22.4593 37.5567 22.5119 37.2908L22.5251 37.2219C22.5778 36.9593 22.1663 36.8772 22.1136 37.1431Z" fill="#231F20"/>
<path d="M22.8905 36.7984L22.8774 36.8674C22.8247 37.13 23.2362 37.212 23.2889 36.9461L23.3021 36.8772C23.3547 36.6146 22.9432 36.5325 22.8905 36.7984Z" fill="#231F20"/>
<path d="M23.9144 36.2863C23.651 36.2338 23.5687 36.6441 23.8354 36.6967C24.0988 36.7492 24.1811 36.3388 23.9144 36.2863Z" fill="#231F20"/>
<path d="M36.8461 33.5946C36.1416 30.1117 34.4691 26.7896 33.1358 23.5136C31.7267 20.0504 30.3177 16.5872 28.9086 13.1207C28.5695 12.2869 28.2239 11.4531 27.8815 10.6226C27.6049 9.95297 27.3975 9.07979 26.9465 8.49876C26.3177 7.69123 25.307 8.41341 24.5959 8.76465C21.3004 10.383 18.1004 12.1819 14.7951 13.7838C11.0551 15.5958 7.25596 17.2667 3.44691 18.9343C3.41399 18.9441 3.39094 18.9605 3.3679 18.9835C3.36131 18.9901 3.35473 18.9966 3.35144 19.0032C3.26584 19.1148 3.31193 19.2888 3.43374 19.3315C6.94321 27.8631 10.8181 36.2404 14.2881 44.7917C14.3473 44.9361 14.4889 45.0083 14.6403 44.9624C18.4362 43.8692 32.0757 36.9002 35.1539 34.7665C35.1868 34.7599 35.2198 34.7435 35.256 34.7172C35.6938 34.3561 36.1416 34.1034 36.6848 33.9195C36.8296 33.8703 36.8724 33.7291 36.8461 33.5913V33.5946ZM27.8617 11.9784C27.8617 11.9784 27.8749 11.9816 27.8848 11.9849C27.9506 12.172 28.0165 12.3526 28.0856 12.5266C28.5004 13.554 28.9218 14.5782 29.3399 15.6057C29.4288 15.8256 29.5177 16.0423 29.6066 16.2622C28.2337 16.9384 26.851 17.5917 25.4453 18.199C24.9218 18.4255 23.7103 19.1673 23.1276 18.9573C21.5012 18.3762 22.3473 16.4559 23.8189 16.4789C24.0428 16.4821 24.079 16.2064 23.9605 16.0718C23.9374 14.8737 24.2568 14.3025 24.9251 14.3616C25.0305 14.3714 25.1325 14.3681 25.2379 14.355C25.3827 14.3517 25.4881 14.1909 25.4387 14.0563C25.1885 13.3702 24.9317 12.4412 25.5473 11.8536C26.2617 11.1741 27.1045 11.5746 27.865 11.9784H27.8617ZM7.86502 28.1716C7.88806 28.1519 7.90452 28.1191 7.90123 28.0797C7.84856 27.7777 7.85514 27.4757 7.92428 27.1737C8.01646 26.4286 8.40164 26.1856 9.07983 26.445C10.0016 26.4844 9.97201 26.6025 10.1992 27.374C10.2518 27.5512 10.5416 27.584 10.614 27.4035C10.8938 26.6912 12.9646 25.9657 13.1588 27.1671C13.1918 27.3707 13.4058 27.4429 13.5572 27.305C14.2453 26.6813 15.7959 26.6551 15.9835 27.8171C16.0658 28.3194 15.6247 28.5196 15.2757 28.7428C14.5218 29.2254 13.7317 29.6455 12.9086 30.0001C11.7465 30.499 10.265 30.6566 9.31029 31.5199C8.83292 30.4005 8.34897 29.2844 7.86173 28.1684L7.86502 28.1716ZM9.50782 31.9762C9.54732 31.9664 9.58683 31.9467 9.62304 31.9138C10.2518 31.3427 11.1078 31.2179 11.8848 30.952C12.5794 30.7124 13.2576 30.4268 13.9128 30.1051C14.4823 29.8261 15.0354 29.5142 15.5687 29.1728C15.8584 28.989 16.3654 28.7559 16.507 28.3981C16.7704 27.7318 16.1086 26.9209 15.5753 26.6189C14.8708 26.2185 14.1136 26.3465 13.4979 26.7765C12.9909 25.7687 11.2263 25.9657 10.4724 26.7896C10.1992 26.1069 9.74156 25.4438 8.90535 25.5882C7.99341 25.7458 7.55226 26.6354 7.56214 27.4823C6.34403 24.715 5.08971 21.9642 3.76954 19.2461C7.68066 17.6639 11.516 15.888 15.3021 14.0366C17.1259 13.1437 18.9399 12.2278 20.744 11.2923C21.6724 10.8097 22.5909 10.3141 23.516 9.82823C24.0494 9.54592 24.586 9.27018 25.1325 9.01085C25.3597 8.90252 25.5868 8.80076 25.814 8.70228C26.4132 8.69572 26.7556 8.94192 26.8412 9.44088C27.2066 10.0186 27.4535 10.7408 27.6905 11.4433C26.93 11.01 26.0115 10.7441 25.2872 11.4105C24.5761 12.067 24.6486 13.0583 24.9053 13.9053C24.2634 13.9217 23.6971 13.9742 23.3284 14.6406C23.0617 15.1297 23.1243 15.6155 23.3745 16.0456C21.9128 16.3213 20.9745 18.176 22.4724 19.1969C23.4107 19.8337 24.53 19.1509 25.4288 18.7767C26.9103 18.1563 28.372 17.4768 29.8008 16.7448C30.4823 18.4156 31.1638 20.0865 31.8453 21.7574C32.6815 23.809 33.5177 25.8607 34.3572 27.9123C34.7852 28.9595 35.2198 30.0033 35.5918 31.0669C35.042 30.9849 34.5053 31.0571 33.9885 31.3098C33.6658 31.4674 33.363 31.6873 33.1259 31.9565C32.9679 32.1371 32.8296 32.5868 32.665 32.705C32.3457 32.9347 31.4239 32.7279 31.0123 32.8231C30.8148 32.8691 30.6206 32.9347 30.4362 33.0234C30.5317 32.334 31.2 31.0177 31.2329 30.9881C31.335 30.8995 31.2626 30.7485 31.1309 30.7781C31.1078 30.7846 30.828 30.7026 30.7193 30.8109C30.6798 30.8536 30.6403 30.8962 30.6074 30.9389C29.8436 31.2179 29.1062 31.7005 28.4016 32.0681C27.3547 32.6131 26.3144 33.1711 25.2807 33.7357C25.0469 33.1809 24.8033 32.6262 24.5597 32.0747C24.642 32.0878 24.7342 32.0845 24.8527 32.0616C25.0107 32.032 26.4198 31.2114 26.9531 30.9947C27.8189 30.6435 28.7111 30.4038 29.6329 30.2463C29.8337 30.2134 29.9259 30.0296 29.8305 29.8524C29.3235 28.9102 28.1021 28.4014 27.256 27.8237C26.0938 27.0293 24.9646 26.1856 23.8683 25.2993C21.7251 23.5661 17.5276 19.3019 17.4782 19.1608C17.4025 18.9474 17.1095 19.0623 17.1523 19.2724C17.1786 19.4004 17.2346 19.7024 17.2444 19.7287C17.2477 19.7418 17.2543 19.7549 17.2576 19.7681C17.8107 22.3614 18.4165 24.9185 18.7095 27.5643C19.0058 30.2397 19.1309 32.9676 18.9728 35.6561C18.963 35.8333 19.2033 35.9318 19.3383 35.8366C20.1646 35.2424 20.9778 34.6319 21.7942 34.0246C22.1893 33.7291 23.1572 33.1645 23.5687 32.7969C23.7564 33.2761 23.944 33.7554 24.1251 34.238C24.1416 34.2806 24.1679 34.3102 24.1975 34.3299C21.9095 35.5773 18.4329 37.4779 18.6074 37.432C19.335 37.2383 20.4741 38.2592 21.0634 38.5809C20.3951 38.9256 19.9737 38.722 18.9827 39.3884C18.5844 39.6543 18.1202 40.2288 17.9654 40.6621C16.372 39.7298 14.2518 40.4192 13.7909 42.1754C12.3654 38.7779 10.9531 35.3705 9.50782 31.9762ZM29.9391 33.3549C29.5934 33.6504 29.3728 34.0246 29.3169 34.4842C28.5663 35.2818 22.6041 38.4627 21.4519 38.2165C21.442 38.2165 21.4519 38.2362 21.4519 38.2461C21.4387 38.2428 21.0008 37.9276 20.5169 37.6749C23.7037 36.027 26.884 34.3627 30.0576 32.6853C30.028 32.9085 29.9951 33.135 29.9424 33.3582L29.9391 33.3549ZM21.3893 26.7043C21.8732 27.5939 22.3605 28.4835 22.8444 29.3764C23.5687 30.8667 24.2535 32.3734 24.8988 33.8966C24.9053 33.913 24.9119 33.9261 24.9218 33.9392C24.7967 34.0082 24.665 34.0804 24.53 34.1526C24.53 34.1362 24.53 34.1198 24.5235 34.1001C23.5819 31.5921 22.535 29.1236 21.3926 26.7043H21.3893ZM23.144 32.3537C22.5646 32.7115 22.0379 33.1777 21.5012 33.588C20.8165 34.1099 20.1317 34.6319 19.4502 35.1604C19.5325 31.2508 19.3844 27.177 18.5975 23.2871C19.9144 26.399 21.5276 29.4322 23.144 32.3537ZM18.9761 21.475C20.3292 22.8702 21.758 24.1964 23.2593 25.4372C24.2502 26.2546 25.2708 27.0391 26.3177 27.7843C27.1605 28.3817 28.5136 28.9824 29.1885 29.8228C28.056 30.0493 26.9597 30.4038 25.9226 30.9258C25.6823 31.0472 25.0864 31.5528 24.8395 31.5462C24.3852 31.5363 24.2831 31.0735 24.0988 30.7354C23.707 30.0198 23.3119 29.3041 22.9202 28.5885C21.6165 26.2119 20.3325 23.8221 18.9761 21.4718V21.475ZM25.3103 34.1822C26.2387 33.6766 27.1737 33.1809 28.1119 32.6918C28.7737 32.3472 29.5407 32.0386 30.2354 31.6611C30.186 31.8285 30.1531 31.9992 30.1235 32.1765C26.7753 33.9491 23.4173 35.702 20.0527 37.4451C20.0461 37.4451 20.0428 37.4517 20.0362 37.4549C19.8881 37.3991 19.7465 37.363 19.6247 37.3532C21.5342 36.3224 23.4008 35.2162 25.3103 34.1822ZM35.6346 33.8342C35.5819 33.8309 35.5259 33.844 35.47 33.8801C33.6922 35.0028 18.2354 43.1044 14.7062 44.3518C14.4691 43.7872 14.2321 43.2225 13.9951 42.6579C14.479 40.9149 16.3292 39.9498 17.9424 41.1512C18.0741 41.2497 18.2518 41.2004 18.2946 41.0363C18.4691 40.3798 18.8839 39.8217 19.5292 39.569C20.0593 39.3589 20.6518 39.4869 21.1753 39.2834C21.4518 39.1751 21.6461 39.0076 21.7646 38.7943C21.9523 38.8107 22.1432 38.8008 22.3374 38.7614C23.0782 38.6137 23.8025 38.1246 24.4642 37.7865C25.2148 37.3991 25.9687 37.0151 26.7193 36.6277C27.8123 36.0664 29.1523 35.5609 29.9259 34.5531C30.1761 34.2248 30.2946 33.8473 30.3704 33.4534C31.065 33.1317 31.9737 33.1678 32.7671 33.2302C32.9053 33.24 33.0008 33.1842 33.0469 33.0496C33.4387 31.9073 34.6206 31.3131 35.7728 31.5921C35.977 32.2224 36.1613 32.8592 36.2996 33.5125C36.0626 33.6044 35.842 33.7127 35.6313 33.8375L35.6346 33.8342Z" fill="#231F20"/>
<path d="M51.9968 28.9432C50.8742 22.6307 50.7194 21.7378 49.5968 15.4253C49.0602 12.402 48.5729 9.39178 48.2668 6.33564C47.9639 3.2795 48.0133 3.33202 47.3845 0.321841C47.3614 0.206948 47.2659 0.151143 47.1738 0.141295C47.1507 0.0559465 47.0816 -0.0129889 46.9664 0.00342427C36.7836 1.26724 27.2528 4.32666 16.9647 4.94708C16.9285 4.94708 16.8989 4.96021 16.8725 4.97663C16.7639 4.97991 16.6651 5.05541 16.6882 5.19C16.9713 6.97247 16.8495 6.97904 17.0108 8.77793C17.0108 8.78777 17.0174 8.79434 17.0174 8.80419C15.9046 9.38193 14.7952 9.96296 13.6824 10.5374C9.27417 12.8189 4.75401 14.841 0.296393 17.0141C0.184459 16.932 -0.00319549 17.0141 0.0363107 17.1782C-0.0394095 17.2931 0.00997323 17.4572 0.14166 17.4868C2.15318 23.3693 4.59927 29.1303 6.93014 34.8913C9.3038 40.7607 10.1466 42.8058 12.6092 48.639C12.619 48.6653 12.6355 48.685 12.6487 48.708C12.5993 48.8623 12.7343 49.0592 12.9219 48.9903C15.2989 48.0908 17.5606 46.722 19.8519 45.6223C22.1696 44.5095 24.5005 43.4229 26.8412 42.3659C31.5293 40.2486 36.2799 38.2856 41.0437 36.3521C41.317 36.2405 41.0766 35.6299 41.0108 35.538C40.4116 34.7141 38.9499 32.1897 38.4561 31.3034C42.2947 30.4401 47.7137 29.8919 51.605 29.3076C51.7005 29.2944 51.7565 29.2288 51.7795 29.1566C51.898 29.1664 52.0231 29.0975 51.9935 28.9465L51.9968 28.9432ZM40.5137 35.8663C40.5268 35.886 40.54 35.8991 40.5565 35.9155C35.8026 37.7669 31.1145 39.8022 26.4692 41.9096C24.1285 42.9732 21.7976 44.063 19.4832 45.1791C17.3861 46.1902 15.1013 47.1192 13.1129 48.3567C10.6602 42.5563 9.82397 40.5441 7.45689 34.7075C5.11944 28.9465 2.96306 23.0935 0.480755 17.3949C5.01409 15.7667 9.3466 13.3703 13.6166 11.1677C15.875 10.0056 18.1268 8.83373 20.3787 7.66511C21.4915 7.08737 22.6009 6.5129 23.7137 5.93516C24.731 5.40665 25.9326 4.95693 26.838 4.23803C28.2668 8.37088 29.847 12.4611 31.4766 16.5282C31.4766 16.5447 31.4766 16.5644 31.4766 16.5808C31.4766 16.6595 31.5129 16.7088 31.5622 16.7351C32.3524 18.7014 33.1557 20.6644 33.9589 22.6208C34.805 24.679 37.0964 30.7749 40.5104 35.863L40.5137 35.8663ZM37.6758 4.21177C37.7054 4.1691 37.712 4.12314 37.712 4.08047C40.089 3.75877 42.4495 3.36813 44.7606 2.69847C44.945 3.42394 45.126 4.1494 45.3005 4.87487C44.0133 5.16374 42.7293 5.45918 41.4421 5.74148C40.5466 5.93844 39.6478 6.18136 38.8083 5.65613C38.4297 5.41978 37.2906 4.78295 37.6758 4.21177ZM37.3762 5.31802C37.6133 5.59705 38.1038 5.6627 38.3771 5.82683C38.6602 5.99753 38.8413 6.2109 39.1672 6.30938C40.01 6.56543 40.9417 6.27655 41.7713 6.08944C42.9795 5.81698 44.1878 5.54781 45.396 5.27535C45.6857 6.50634 45.9491 7.74061 46.1466 8.98802C46.3474 10.265 46.4857 11.5452 46.6668 12.8221C46.1236 12.402 45.3104 12.1689 44.754 12.5037C44.0528 12.9272 44.191 13.7085 44.4742 14.3584C43.6116 14.1286 42.6338 14.2829 42.2684 15.2283C42.0445 15.8093 42.2552 16.3477 42.6832 16.6464C42.2388 16.7941 41.8404 17.0436 41.6363 17.4999C41.3565 18.1203 41.6067 18.7178 42.1499 19.0821C44.0264 20.3394 45.9359 18.6718 47.8059 18.4913C48.4511 21.3472 49.1326 24.1965 49.7878 27.0491C49.6659 27.5349 49.0306 27.8369 48.596 27.8665C48.3721 27.8829 48.145 27.8599 47.9244 27.8534C47.4306 27.8435 46.9367 27.8468 46.4429 27.8731C45.3927 27.9321 44.3491 28.0831 43.312 28.2538C41.3268 28.5788 39.3548 28.9662 37.3367 29.0384C37.0898 28.4738 36.8528 27.9092 36.6091 27.3446C37.8865 27.2034 39.1606 27.0327 40.4281 26.8357C40.4841 26.8522 40.54 26.8456 40.5861 26.8128C43.4174 26.3729 46.2256 25.805 49.0075 25.1058C49.2676 25.0401 49.1293 24.6462 48.8692 24.7119C46.6898 25.2601 44.4939 25.7262 42.2849 26.1136C42.4034 25.5719 42.4758 25.0237 42.5054 24.4722C44.3326 23.5268 46.196 22.6635 48.0989 21.8822C48.3458 21.7805 48.2108 21.3866 47.9606 21.4883C46.1104 22.2499 44.2997 23.0902 42.5186 24.0028C42.5186 23.9076 42.5252 23.8157 42.5219 23.7205C42.5219 23.6089 42.4034 23.517 42.298 23.5268C42.1301 23.5465 41.9655 23.5629 41.7976 23.5826C41.8503 23.1461 41.9063 22.7095 41.9557 22.2729C41.982 22.0332 42.0478 21.7739 41.8108 21.6196C41.6166 21.4916 41.3301 21.5474 41.0766 21.6131C41.1589 21.0353 41.238 20.4543 41.3203 19.8765C41.3433 19.719 41.2017 19.591 41.0437 19.6402C40.7869 19.7223 40.5301 19.801 40.2733 19.8831C40.2009 19.4761 40.1417 19.0329 40.0034 18.662C39.931 18.465 39.8421 18.3337 39.6248 18.2812C39.4701 18.2418 39.2923 18.2746 39.1211 18.3238C39.075 17.9529 39.0092 17.5853 38.9203 17.2242C38.838 16.8959 38.7622 16.4692 38.4429 16.282C38.1664 16.1212 37.8865 16.2328 37.6297 16.3805C37.5771 16.4101 37.5244 16.4429 37.475 16.4757C37.3268 15.8553 37.0997 15.2677 36.8001 14.7031C36.7507 14.6079 36.5927 14.5816 36.5104 14.6473C36.4083 14.7261 36.3063 14.8081 36.2042 14.8869C36.0857 14.4602 35.9771 14.0203 35.8157 13.6133C35.7236 13.3835 35.5721 13.1767 35.2923 13.1898C34.94 13.2062 34.6306 13.5771 34.3869 13.7905C34.0149 14.1155 33.6495 14.447 33.2906 14.7884C33.2709 14.4372 33.3038 14.0892 33.4223 13.7511C33.4487 13.7446 33.4783 13.738 33.5046 13.715C35.8882 12.0015 39.2166 12.5201 41.9721 12.5989C42.1268 12.6022 42.219 12.3921 42.1301 12.2739C41.6923 11.7093 41.0931 11.5583 40.4149 11.4008C39.4338 11.1743 38.4231 11.0101 37.4157 11.0462C36.8824 11.0659 36.3589 11.1447 35.8585 11.2891C36.2602 11.0068 36.675 10.7377 37.0931 10.4718C38.545 9.55263 40.0034 8.64334 41.4585 7.72748C41.5902 7.64542 41.5771 7.43204 41.4355 7.36639C38.275 5.95814 35.1902 8.81075 33.7318 11.6108C34.1367 9.25719 35.1771 7.09065 36.7968 5.28191C36.912 5.15389 36.81 4.90441 36.6223 4.93724C34.6701 5.25237 33.1161 6.53916 32.3886 8.14766C31.8454 6.83788 30.7787 5.88264 29.3927 5.44276C29.2445 5.39681 29.0931 5.58063 29.1557 5.7185C29.8009 7.13332 30.0676 8.85015 30.6865 10.3241C30.2947 9.8415 29.8701 9.3885 29.3203 9.07336C29.2972 9.06023 29.2709 9.05367 29.2478 9.05039C28.7902 7.89161 28.326 6.73612 27.8519 5.58392C30.94 4.87487 34.1005 4.55645 37.238 4.13955C37.0503 4.52691 37.0569 4.94708 37.3729 5.31474L37.3762 5.31802ZM43.4569 16.8926C43.7236 16.8499 43.6939 16.4823 43.424 16.4757C42.3474 15.6157 42.4264 15.0084 43.6544 14.6571C44.0627 14.6276 44.4478 14.7129 44.8034 14.9198C45.0009 15.0117 45.1721 14.7917 45.0701 14.6145C44.7573 14.063 44.1647 13.006 45.452 12.7893C45.9096 12.7105 46.5581 13.1931 46.7589 13.5312C46.7655 13.541 46.7721 13.5443 46.7754 13.5509C46.8544 14.0466 46.94 14.5422 47.0454 15.0346C47.2594 16.0523 47.4832 17.0699 47.7104 18.0875C46.8873 18.1794 46.1861 18.5339 45.4059 18.8097C44.7606 19.0362 44.0857 19.1741 43.3976 19.0756C43.0816 19.0296 42.6371 18.9837 42.41 18.744C42.0116 18.5799 42.0577 18.2713 42.5515 17.8183C42.5581 17.1585 42.8577 16.8499 43.4503 16.8959L43.4569 16.8926ZM34.4824 21.3767C34.4758 20.1818 34.354 19.0066 34.0906 17.8413C33.8997 17.0075 33.4947 16.1081 33.3433 15.225C33.9293 15.3957 34.5153 15.5664 35.098 15.7371C34.9696 15.8422 34.8643 15.9636 34.8511 16.1048C34.8281 16.3608 35.0618 16.4889 35.2561 16.584C35.6511 16.7777 36.0561 16.955 36.4577 17.1388C36.2997 17.2471 36.1417 17.3555 35.9836 17.4605C35.8454 17.5524 35.875 17.7461 36.0067 17.8216C36.5301 18.117 37.0503 18.4125 37.5738 18.7079C37.4157 18.744 37.2577 18.7834 37.103 18.8195C36.9087 18.8655 36.945 19.1182 37.0799 19.2036C37.6791 19.5778 38.275 19.9553 38.8742 20.3295C38.6701 20.3952 38.4659 20.4576 38.2651 20.5232C38.0873 20.579 38.0873 20.8252 38.2421 20.9073C38.7524 21.183 39.1968 21.5244 39.6017 21.9282C39.4075 21.9676 39.2133 22.0037 39.019 22.0431C38.884 22.0693 38.7458 22.2368 38.861 22.3681C39.2692 22.8375 39.6808 23.3069 40.089 23.7763C39.8915 23.7993 39.6972 23.819 39.4997 23.842C39.3153 23.8617 39.2495 24.0816 39.3779 24.2063C39.5129 24.3409 39.6478 24.4887 39.7762 24.6462C38.3639 24.6692 36.9581 24.7414 35.5491 24.8629C35.154 23.9306 34.7655 22.9951 34.3803 22.0562C34.3145 21.8986 34.2552 21.7411 34.1894 21.5835C34.3145 21.6229 34.4857 21.5507 34.4857 21.3767H34.4824ZM32.3721 12.0967C30.703 10.6425 30.5186 8.04261 29.7351 6.01394C30.9268 6.52603 31.7828 7.50098 32.1647 8.75823C31.8355 9.82837 31.8651 10.997 32.3721 12.0967ZM33.182 12.6416C33.182 12.6416 33.1688 12.635 33.1589 12.6285C32.3425 11.4369 32.2009 10.091 32.5631 8.87969C32.5795 8.85343 32.5894 8.8206 32.5927 8.78777C33.0832 7.26135 34.3672 5.96142 36.0791 5.48215C34.4067 7.53052 33.4059 9.99907 33.1787 12.6383L33.182 12.6416ZM32.6783 12.8451C32.0758 13.0257 31.4569 13.1077 30.8281 13.0815C30.3902 11.9555 29.9491 10.8263 29.5046 9.70035C30.6964 10.6064 31.2725 12.1558 32.675 12.8418L32.6783 12.8451ZM32.6552 13.2883C32.1417 13.7085 31.8256 14.4536 31.6511 15.1922C31.4305 14.6276 31.2133 14.063 30.9927 13.5016C31.5557 13.5049 32.1087 13.4393 32.6552 13.2916V13.2883ZM33.0602 13.5082C32.6552 14.5094 32.9647 15.5172 33.2972 16.5578C33.791 18.0941 34.038 19.6599 34.061 21.2684C33.34 19.4958 32.6355 17.7166 31.9408 15.9308C32.0495 15.0675 32.3754 13.9087 33.0602 13.5049V13.5082ZM40.4149 24.8432C40.4281 24.7513 40.3622 24.6528 40.2668 24.6134C40.1713 24.4722 40.0626 24.3377 39.9507 24.2096C40.4478 24.1538 40.9482 24.1013 41.4454 24.0455C41.531 24.098 41.6462 24.0915 41.7087 24.016C41.8371 24.0028 41.9688 23.9864 42.0972 23.9733C42.0972 24.725 42.0083 25.4603 41.8371 26.1956C41.4717 26.258 41.1063 26.3171 40.7408 26.3762C40.8363 25.8313 40.6849 25.3126 40.4116 24.8465L40.4149 24.8432ZM40.3063 26.4418C39.2001 26.6092 38.0906 26.757 36.9779 26.885C37.9853 26.2416 39.0223 25.6441 40.0824 25.0927C40.3194 25.5063 40.4445 25.9658 40.3063 26.4418ZM40.5795 23.7205C40.5729 23.7041 40.5631 23.6844 40.5466 23.668C40.1713 23.238 39.796 22.8079 39.4207 22.3779C40.0528 22.24 40.6915 22.0792 41.3236 22.007C41.5738 21.9774 41.5277 21.9315 41.5408 22.1974C41.5474 22.3615 41.498 22.5453 41.4783 22.7095C41.4421 23.018 41.4026 23.3266 41.3664 23.6319C41.103 23.6614 40.8396 23.691 40.5795 23.7172V23.7205ZM40.0626 21.833C40.0528 21.8002 40.0363 21.7673 40.01 21.7411C39.6577 21.3669 39.2692 21.0484 38.8445 20.776C39.2396 20.6512 39.638 20.5265 40.033 20.4018C40.1087 20.428 40.2075 20.3952 40.2668 20.3263C40.4643 20.2639 40.6618 20.2015 40.8594 20.1392C40.7869 20.6677 40.7112 21.1929 40.6388 21.7214L40.0626 21.8363V21.833ZM39.1606 20.2376C39.1968 20.1457 39.1836 20.0275 39.0783 19.9619C38.6207 19.6763 38.1631 19.3874 37.7054 19.1018C38.0742 19.0132 38.4429 18.9279 38.8116 18.8425C38.917 18.9279 39.1013 18.8983 39.1474 18.7637C39.6544 18.6554 39.6314 18.9082 39.7236 19.3415C39.7729 19.568 39.819 19.7912 39.8684 20.0177C39.6314 20.0932 39.3943 20.1654 39.1573 20.2409L39.1606 20.2376ZM38.1236 18.5766C38.1071 18.5438 38.0808 18.511 38.0413 18.488C37.5244 18.1958 37.0042 17.9037 36.4873 17.6082C37.024 17.211 38.0709 16.4495 38.3672 16.827C38.4956 16.9878 38.5252 17.3588 38.568 17.559C38.6338 17.8479 38.6766 18.1433 38.7096 18.4355C38.512 18.4814 38.3178 18.5274 38.1203 18.5733L38.1236 18.5766ZM36.8495 16.8729C36.833 16.8532 36.81 16.8368 36.7803 16.8237C36.517 16.7022 36.2569 16.584 35.9935 16.4626C35.8618 16.4035 35.7301 16.3411 35.6017 16.282C35.4371 16.2065 35.3219 16.2295 35.4305 16.0293C35.5227 15.8553 35.8651 15.6846 36.0231 15.5631L36.168 15.4483C36.2042 15.4318 36.2371 15.4056 36.2635 15.3728C36.3622 15.294 36.461 15.2185 36.5565 15.1397C36.7902 15.6222 36.968 16.1212 37.0898 16.6464C37.0931 16.6661 37.1063 16.6825 37.1129 16.6989C37.024 16.758 36.9351 16.8138 36.8495 16.8729ZM35.5194 15.4253C35.5194 15.4253 35.5194 15.4253 35.5161 15.4253C34.9334 15.2546 34.3507 15.0839 33.7713 14.9165C33.9227 14.7753 34.0742 14.6309 34.2289 14.4897C34.4528 14.2895 34.7787 13.8857 35.0684 13.7577C35.2001 13.6986 35.3153 13.6526 35.4437 13.8168C35.5161 13.9054 35.5491 14.1713 35.5853 14.2895L35.8487 15.1692C35.74 15.2546 35.6314 15.3432 35.5194 15.4286V15.4253ZM39.2297 25.073C38.2519 25.6047 37.2972 26.1726 36.3622 26.7799C36.1482 26.2744 35.9343 25.7689 35.7203 25.2666C36.889 25.1682 38.0577 25.1058 39.2297 25.073ZM33.9919 12.2641C33.926 12.3166 33.8635 12.3757 33.8009 12.4315C34.9301 9.78241 37.8503 6.60153 40.8791 7.60274C39.4404 8.50547 37.9952 9.40491 36.5631 10.3208C35.6445 10.9051 34.7655 11.5189 33.9919 12.2641ZM37.0832 11.4861C38.1203 11.3876 40.3293 11.4467 41.4026 12.1623C38.8972 12.054 36.0824 11.7618 33.8503 13.0027C33.9721 12.8714 34.0972 12.7434 34.2223 12.6186C35.0124 11.949 36.0133 11.5846 37.0799 11.4861H37.0832ZM38.0281 30.6928C37.5606 29.5111 37.745 29.9772 37.5178 29.4553C40.1054 29.3437 42.6174 28.7101 45.1853 28.4114C46.4231 28.267 47.7532 28.4705 48.9614 28.2538C49.5771 28.1455 50.061 27.7976 50.1894 27.2067C50.2157 27.164 50.2289 27.1115 50.2157 27.0491C50.2157 27.036 50.219 27.0261 50.219 27.013C50.2223 26.9506 50.2026 26.8981 50.1696 26.8587C49.205 22.6668 48.1351 18.4847 47.312 14.2632C46.9203 12.2477 46.7919 10.1993 46.4297 8.1772C46.2487 7.17271 46.0314 6.17479 45.7976 5.18015C45.7976 5.18015 45.8042 5.18015 45.8075 5.18015C46.0577 5.12435 45.9392 4.76982 45.7022 4.78623C45.5244 4.04764 45.34 3.30904 45.1557 2.57045C45.34 2.45884 45.2083 2.13058 44.9713 2.20279C39.3482 3.90977 33.3993 3.88679 27.6906 5.19985C27.5161 4.7731 27.3417 4.34964 27.1606 3.92618C27.1079 3.80472 26.9894 3.77518 26.8939 3.81129C26.8742 3.81129 26.8544 3.81129 26.838 3.81457C25.768 4.0739 24.754 4.78295 23.7795 5.29176C22.6701 5.86951 21.5573 6.44725 20.4478 7.02171C19.4338 7.54694 18.4231 8.07544 17.4092 8.60066C17.2544 6.91667 17.3894 7.02828 17.1293 5.35741C27.3614 4.70745 36.8462 1.68742 46.9762 0.423602C47.582 3.34844 47.5326 3.20728 47.8256 6.17479C48.1351 9.29658 48.6256 12.3724 49.1754 15.4581C50.2947 21.7411 50.4396 22.6077 51.5589 28.8907C47.6116 29.4848 41.9194 29.8164 38.0248 30.6928H38.0281Z" fill="#231F20"/>
<path d="M12.8395 47.9266C19.9078 90.1358 100.56 55.0458 72.7572 89.6161" stroke="#8D8D8D" stroke-linejoin="round" stroke-dasharray="8 8"/>
</g>
<defs>
<clipPath id="clip0_246_340">
<rect width="52" height="49" fill="white"/>
</clipPath>
</defs>
</svg>
