<svg width="61" height="59" viewBox="0 0 61 59" fill="none" xmlns="http://www.w3.org/2000/svg">
<path d="M43.1562 2.90722C42.9218 2.72272 42.6547 2.58904 42.37 2.5068C41.1464 1.99248 39.78 1.90296 38.6168 2.55389C37.4395 3.21125 36.8859 4.71974 36.5233 5.98859C36.1401 7.32657 35.9977 8.72463 35.999 10.1184C36.0032 11.6955 36.1921 13.2693 36.4633 14.8178C36.7302 16.3541 37.1968 17.8877 37.1516 19.4621C36.469 19.4266 35.5273 19.6611 34.2354 20.4174C34.1277 20.4766 34.0225 20.534 33.9214 20.5922C33.5212 20.8144 33.1245 21.0419 32.7269 21.2737C32.5839 20.8989 32.3557 20.3775 32.0174 20.1296C31.9935 20.093 31.9761 20.0554 31.9521 20.0188C31.8947 19.9255 31.804 19.8989 31.7077 19.9421C31.6654 19.9613 31.6206 19.9824 31.5782 20.0017C31.5708 20.0071 31.5617 20.0099 31.5525 20.0127C30.7575 20.3759 29.9825 20.7863 29.2031 21.1845C28.6708 21.4566 27.4855 21.8223 27.0791 22.2809C26.6989 22.7126 27.3769 23.7135 27.673 24.2548C27.148 24.5603 26.6261 24.8596 26.11 25.1509C24.0944 26.2841 17.4303 30.0334 16.2522 30.6952C16.1205 30.768 15.988 30.8453 15.8562 30.9182C13.5077 31.9348 11.2604 33.0052 9.1694 34.4484C8.05964 34.9908 6.61246 35.6556 7.19305 37.1563C7.50864 37.9732 8.02554 38.7284 8.45381 39.4825C8.70754 39.9312 8.96623 40.3762 9.22739 40.8194C10.6294 43.6183 13.4453 49.2229 14.7162 51.7658C14.9181 52.2638 15.1373 52.7492 15.4036 53.2003C15.5126 53.3835 15.6341 53.5576 15.7678 53.7113C16.0602 54.1742 16.4082 54.7164 16.4343 54.7283C16.9411 55.0041 17.2301 55.0986 18.9138 54.2189C19.7875 53.7635 20.6575 53.28 21.524 52.7912C22.6412 52.2936 23.741 51.7584 24.827 51.1908C29.0723 48.9769 33.1162 46.3496 37.1399 43.7138C39.0271 42.5969 40.5953 41.6585 41.4388 41.1401C42.8452 40.2733 44.5028 39.4937 45.7704 38.4151C46.3015 37.9623 46.6547 37.3107 46.116 36.7067C46.1109 36.6988 45.8797 36.1951 45.521 35.4019C45.4224 34.9329 45.2764 34.4753 45.1164 34.0356C44.5969 32.5946 43.9726 31.1836 43.3403 29.794C42.5815 28.1218 41.7704 26.4762 40.9444 24.8414C40.6026 24.1633 40.2761 23.4471 39.9322 22.7435C39.6687 22.1513 39.382 21.5799 39.0542 21.0461C39.0358 20.9901 39.0132 20.9332 38.9922 20.8789C39.0271 20.865 39.0586 20.846 39.0889 20.8084C41.3983 17.9658 43.8671 15.0032 45.2911 11.5195C46.2203 9.24266 46.4689 6.53092 44.9291 4.47766C44.4713 3.86866 43.8583 3.31883 43.1654 2.90442L43.1562 2.90722ZM31.3414 20.5066C31.398 20.4924 31.4531 20.487 31.4982 20.4888C31.8672 20.5096 32.0821 20.832 32.265 21.1893C32.3093 21.2961 32.3485 21.395 32.3799 21.4764C32.2284 21.5638 32.081 21.6519 31.9311 21.7418C31.7789 21.3196 31.582 20.9184 31.3627 20.5335C31.3576 20.5257 31.3507 20.5152 31.3456 20.5074L31.3414 20.5066ZM30.4446 20.9324C30.6673 20.7971 30.8951 20.6697 31.0977 20.5876C31.0949 20.6167 31.1004 20.6475 31.1133 20.6728C31.336 21.063 31.5147 21.4697 31.6876 21.8845C31.5038 21.9954 31.32 22.1062 31.1362 22.217C30.9374 21.8017 30.7346 21.2967 30.4446 20.9324ZM29.5843 21.4475C29.746 21.3644 29.9868 21.212 30.2467 21.0496C30.3759 21.504 30.6624 21.9635 30.8779 22.3705C30.6403 22.5167 30.4027 22.6628 30.1652 22.809C30.0409 22.351 29.8556 21.8447 29.5868 21.4457L29.5843 21.4475ZM28.8139 21.7812C28.9866 21.7093 29.1569 21.6393 29.3229 21.5685C29.5217 22.034 29.7486 22.4752 29.9085 22.9651C29.7329 23.0661 29.5573 23.1671 29.3842 23.2662C29.3057 22.9564 29.2107 22.6548 29.0948 22.3607C29.0225 22.1777 28.955 21.9294 28.8164 21.7794L28.8139 21.7812ZM28.5773 21.8841C28.5985 22.0618 28.7114 22.2229 28.7794 22.3936C28.9118 22.7298 29.016 23.0788 29.1043 23.4316C28.9238 23.5362 28.7457 23.639 28.5634 23.741C28.4203 23.2542 28.2385 22.6527 27.9203 22.251C28.1161 22.1083 28.3425 21.9896 28.579 21.8867L28.5773 21.8841ZM27.7437 22.3952C27.8132 22.5571 27.8967 22.7125 27.9662 22.8744C28.1043 23.2025 28.2217 23.5381 28.3207 23.8793C28.2056 23.9439 28.0921 24.0111 27.9794 24.074C27.6908 23.4769 27.2774 22.8742 27.742 22.3926L27.7437 22.3952ZM22.9859 27.7452C25.5331 26.2437 28.008 24.6095 30.5252 23.0565C31.1245 22.6853 31.7296 22.3175 32.3382 21.955C32.3752 21.9667 32.4162 21.9677 32.4617 21.9422C33.2423 21.5123 34.0874 20.9349 34.9294 20.5374C34.9527 20.5281 34.9742 20.5163 34.9975 20.5071C35.9467 20.0662 36.8889 19.8662 37.7201 20.3575C34.6971 22.1169 23.8878 29.2667 20.9786 28.88C21.6524 28.5164 22.3218 28.1404 22.9876 27.7478L22.9859 27.7452ZM11.381 43.4181C10.9793 42.6485 10.5676 41.8862 10.1435 41.1329C11.9734 40.6218 13.7855 39.6138 15.4615 38.7281C17.1516 37.8359 18.8851 36.8813 20.4152 35.7002C20.3939 35.7853 20.3769 35.8711 20.3624 35.9551C19.8213 38.9806 21.0461 42.2022 23.3593 44.0549C23.9528 44.5301 24.6024 44.9065 25.282 45.1722C23.5982 46.2528 16.5943 49.5003 14.7604 50.7097C13.7462 48.2231 12.6183 45.7923 11.381 43.4181ZM22.6666 32.5792C24.0273 31.3632 25.5012 31.1194 27.2153 31.2027C27.6223 31.3542 28.0629 31.4117 28.4796 31.5444C29.2415 31.7848 29.9848 32.1084 30.6492 32.5745C32.0668 33.5694 32.7457 34.8903 33.3572 36.4998C33.4702 37.1361 33.5067 37.801 33.474 38.4778C33.2974 42.4507 30.1447 46.0355 26.1946 45.0052C22.9388 44.1566 20.6293 40.8564 20.6646 37.3497C20.6809 35.5413 21.3414 33.7655 22.6683 32.5819L22.6666 32.5792ZM45.165 35.6692C45.1678 35.6903 45.1731 35.7096 45.176 35.7307C45.4274 37.2434 44.8829 38.162 43.677 38.9715C42.5837 39.7067 41.4681 40.4079 40.3653 41.123C39.648 41.588 38.9316 42.06 38.216 42.5275C35.8913 43.9325 33.5587 45.32 31.2124 46.6866C28.7304 48.1367 26.2347 49.5658 23.7319 50.9731C22.5845 51.6202 21.432 52.2595 20.2777 52.8962C19.3707 53.3063 18.3779 53.7982 17.4356 53.9365C16.8802 54.0169 16.461 53.8357 16.1274 53.511C15.7929 52.9783 15.4865 52.4212 15.1915 51.8482C15.0868 51.5767 14.9923 51.3095 14.8999 51.0678C17.3067 49.7266 22.9329 47.0933 25.7846 45.3466C27.6479 45.9819 29.4765 45.7035 31.1428 44.3613C32.2677 43.4563 33.0574 42.1852 33.5048 40.7773C35.3434 39.6031 42.7576 35.2992 44.5057 34.1601C44.726 34.664 44.9471 35.1635 45.1675 35.6673L45.165 35.6692ZM41.8401 28.1253C42.6905 30.0321 43.5317 31.9417 44.3704 33.8531C42.2161 35.1492 40.5675 36.0265 38.8121 37.0706C37.093 38.0919 35.2858 38.8724 33.6882 40.1181C34.0787 38.4503 34.0032 36.6471 33.4463 35.0595C32.8369 33.3248 31.471 32.269 29.9196 31.5339C29.4572 31.3147 28.9731 31.0958 28.4789 30.9229C32.4255 28.9074 35.6076 26.9547 40.073 24.1824C40.7095 25.5728 41.216 26.7258 41.8401 28.1253ZM38.7473 21.4553C38.7501 21.4765 38.7547 21.5002 38.7575 21.5213C38.7689 21.6057 38.8165 21.656 38.8771 21.6814C39.0682 22.0289 39.2568 22.3782 39.443 22.7293C39.6367 23.1869 39.7989 23.6133 39.9315 23.9107C36.6312 25.884 33.2812 27.6307 28.1806 30.6188C28.1036 30.6633 26.7044 30.5127 26.0152 30.6404C23.5554 30.5482 21.2544 32.867 20.5197 35.2841C20.5197 35.2841 20.5197 35.2841 20.5172 35.2859C18.7631 36.3096 17.093 37.4614 15.2934 38.4101C13.5627 39.3242 11.7037 39.953 9.97503 40.8423C9.75823 40.4556 9.53476 40.0699 9.31301 39.6868C8.733 38.6956 7.62729 37.2879 7.93826 36.0297C7.94322 36.0261 7.94475 36.0172 7.94552 36.0128C8.07318 35.7884 8.27207 35.6279 8.54219 35.5315C9.40545 34.8365 10.5918 34.3773 11.5512 33.8402C12.4898 33.3105 13.4326 32.7816 14.3712 32.2519C15.0215 31.886 15.6719 31.5201 16.3222 31.1541C17.7274 30.5315 19.1052 29.8671 20.4614 29.1528C22.8992 29.8598 25.6848 27.8446 27.6806 26.7258C31.1213 24.7932 34.7268 22.7714 38.0475 20.6056C38.2907 20.8146 38.521 21.0988 38.7399 21.4608L38.7473 21.4553ZM37.7075 19.5669C37.6134 19.5351 37.516 19.5095 37.4062 19.4929C37.4672 18.1271 37.1671 16.8083 36.9218 15.4726C36.6545 14.014 36.4346 12.5438 36.3674 11.0552C36.3042 9.70658 36.3736 8.34242 36.6501 7.02044C36.9578 5.55597 37.5514 3.46581 38.9934 2.84343C39.4782 2.63296 39.9833 2.54291 40.4891 2.54894C40.2745 2.61269 40.0693 2.69654 39.8812 2.79509C38.4818 3.52161 37.6446 5.11712 37.3334 6.67687C36.9388 8.6683 37.2115 10.7837 37.3296 12.7916C37.4633 15.047 37.5545 17.3101 37.7075 19.5669ZM43.8315 13.0317C43.094 14.3266 42.2392 15.5486 41.3959 16.766C40.5372 18.0102 39.6882 19.2859 38.7634 20.4739C38.6567 20.2774 38.4942 20.0519 38.2563 19.8622C38.3154 19.8462 38.3725 19.8046 38.4081 19.7361C39.481 17.7177 40.6434 15.7576 41.8725 13.8378C42.7811 12.4182 43.72 10.9611 44.1589 9.28887C44.5356 7.85139 44.5617 6.23675 43.8709 4.89752C43.2852 3.7636 42.1219 2.67606 40.8167 2.90899C40.8075 2.9118 40.8027 2.92687 40.8128 2.9311C42.2527 3.48479 43.4306 4.38783 43.8205 6.03918C44.1923 7.6071 43.7713 9.25078 43.1227 10.6702C42.3981 12.2531 41.3657 13.6625 40.463 15.1358C39.6263 16.5029 38.8327 17.8967 38.0763 19.3135C37.9285 15.863 37.5725 12.402 37.5852 8.95041C37.5936 7.16329 37.8947 5.18586 39.1341 3.8574C40.0011 2.92784 41.081 2.65835 42.1465 2.90924C43.4728 3.46847 44.6179 4.62334 45.135 5.96565C46.0591 8.35952 45.0074 10.9691 43.8315 13.0317Z" fill="#231F20"/>
<path d="M29.149 35.4335C28.636 34.8184 28.4217 34.3796 26.8054 34.1826C26.3838 34.1654 25.9582 34.2593 25.5458 34.502C23.6178 35.6293 23.1663 38.6126 24.8877 40.1549C26.5133 41.6124 29.4819 40.8546 30.0271 38.5564C30.2951 37.4338 29.8486 36.2718 29.149 35.4335ZM26.0089 34.8173C26.4778 34.6107 26.9265 34.5965 27.3403 34.7082C26.5724 34.5649 25.7586 34.7988 25.0381 35.583C24.9074 35.7246 24.792 35.8783 24.6884 36.0388C24.9975 35.5044 25.4486 35.0635 26.0071 34.8147L26.0089 34.8173ZM25.317 35.8857C25.4132 35.7809 25.5112 35.6901 25.6102 35.6064C25.2869 35.8845 25.0241 36.2268 24.8296 36.612C24.9525 36.3524 25.1166 36.1053 25.3195 35.8839L25.317 35.8857ZM24.9116 39.2411C24.892 39.1666 24.8749 39.0902 24.8578 39.0138C25.0179 39.2525 25.2053 39.4713 25.4089 39.659C25.4759 39.7222 25.5514 39.787 25.6335 39.8508C25.3673 39.7241 25.1338 39.5466 24.9596 39.3144C24.9441 39.2908 24.9287 39.2673 24.9133 39.2438L24.9116 39.2411ZM29.1811 36.9748C30.0576 38.8935 28.4242 40.0455 26.8726 40.0871C26.4262 39.9258 25.985 39.6215 25.7536 39.4193C25.3434 39.0616 24.9439 38.5415 24.8229 37.9768C24.9117 37.2012 25.2627 36.4624 25.8537 35.9388C26.9952 34.925 28.5851 35.663 29.1836 36.973L29.1811 36.9748Z" fill="#231F20"/>
<path d="M17.5654 31.1285C17.5654 31.1285 17.5552 31.1128 17.5517 31.1076C17.5158 31.0526 17.4178 31.0429 17.369 31.0746C17.312 31.1162 17.2491 31.1543 17.192 31.1959C17.1499 31.2266 11.3462 34.3101 10.9734 34.6746C10.8639 34.7814 10.8007 34.8584 10.766 34.9339C10.6713 34.9682 10.591 35.0693 10.629 35.1999C11.0134 36.5076 11.5666 37.7038 12.305 38.8306C12.3684 38.9273 12.4914 38.9304 12.5774 38.8716C13.0844 38.5329 13.594 38.2039 14.1105 37.8853C15.8238 36.9222 18.4099 35.6589 19.1383 35.155C19.2276 35.0899 19.2242 34.9842 19.1804 34.9118C19.1833 34.8827 19.1845 34.8509 19.1689 34.8159C18.7077 33.6763 17.6251 31.1468 17.5679 31.1267L17.5654 31.1285ZM12.8482 34.0419C13.4423 33.7131 14.0398 33.3896 14.6373 33.066C14.6887 33.1947 14.74 33.3234 14.7939 33.4503C13.6109 33.9649 12.4749 34.6965 11.3434 35.3398C11.4088 34.6739 12.163 34.4217 12.8465 34.0393L12.8482 34.0419ZM14.2205 37.3376C13.9953 37.4747 13.7665 37.6454 13.5333 37.8038C13.3211 37.916 13.1131 38.029 12.9112 38.1569C12.7112 38.2486 12.6319 38.3064 12.5547 38.2893C12.4883 38.16 12.4219 38.0307 12.3579 37.8996C13.5657 37.2664 14.8472 36.7456 15.999 36.0102C16.0388 36.0933 16.0768 36.1737 16.1191 36.2549C15.4785 36.6022 14.844 36.9643 14.2197 37.3421L14.2205 37.3376ZM11.9914 37.1391C11.936 37.0211 11.8782 36.9048 11.8245 36.7894C13.0709 36.271 14.3286 35.6246 15.4095 34.7864C15.489 34.9525 15.5693 35.1142 15.6513 35.2785C14.4559 35.9529 13.1851 36.462 11.9956 37.1399L11.9914 37.1391ZM15.6999 35.3861C15.788 35.5652 15.8719 35.7436 15.96 35.9227C14.6948 36.4124 13.5018 37.1353 12.2784 37.7335C12.2076 37.5919 12.1393 37.4486 12.071 37.3052C13.2536 36.6169 14.5895 36.2071 15.7016 35.3887L15.6999 35.3861ZM11.7457 36.6189C11.6643 36.4387 11.5762 36.2596 11.4947 36.0794C11.4862 36.0663 11.486 36.0549 11.4799 36.04C12.6947 35.4287 13.9179 34.819 15.1103 34.1623C15.1891 34.3328 15.2721 34.5041 15.3533 34.6728C14.1624 35.371 12.9998 36.0563 11.7457 36.6189ZM11.4266 35.8972C11.3854 35.7728 11.3576 35.6578 11.3459 35.5505C12.5076 34.9084 13.7454 34.3266 14.847 33.5816C14.913 33.7382 14.984 33.8912 15.0566 34.0469C13.8314 34.631 12.627 35.2695 11.4242 35.8991L11.4266 35.8972ZM18.0391 33.1592C18.2387 33.6202 18.4324 34.1281 18.7092 34.5561C18.7598 34.6892 18.8016 34.7978 18.8313 34.8766C18.0066 35.2614 17.1955 35.6672 16.3933 36.0976C15.8951 35.0467 15.428 33.9539 14.8503 32.9494C15.7088 32.482 16.5639 32.0093 17.3975 31.4982C17.4043 31.5086 17.4146 31.5243 17.4232 31.5374C17.5867 32.0943 17.8093 32.6352 18.0366 33.161L18.0391 33.1592Z" fill="#231F20"/>
<path d="M17.1674 32.1142C17.12 32.0753 17.0441 32.0881 17.0223 32.1388C16.4632 32.3029 15.9482 32.7132 15.4804 33.0503C15.4185 33.0955 15.4011 33.1584 15.4298 33.2302C15.7271 34.0024 16.0502 34.7637 16.4736 35.4712C16.4736 35.4712 16.4736 35.4712 16.4753 35.4738C16.4327 35.5821 16.5412 35.7309 16.6714 35.6669C17.2453 35.3799 17.8199 35.0885 18.3843 34.7814C18.4464 34.7477 18.4701 34.6609 18.4357 34.5971C18.0244 33.8075 17.6926 32.9212 17.2085 32.1769C17.2047 32.1488 17.1893 32.1252 17.1632 32.1133L17.1674 32.1142ZM18.1523 34.5951C17.7342 34.7956 17.3195 35.0013 16.9058 35.214C16.7162 34.6452 16.4815 33.9741 16.118 33.5089C15.9695 33.3158 15.9437 33.3771 16.1736 33.2752C16.2815 33.2274 16.3843 33.1718 16.4819 33.1084C16.7326 32.9488 16.935 32.7433 17.1193 32.5047C17.1267 32.4992 17.1258 32.4922 17.129 32.486C17.413 33.21 17.8177 33.9002 18.149 34.6013L18.1523 34.5951Z" fill="#231F20"/>
<path d="M24.0533 41.4974C26.4175 43.618 30.7432 42.5161 31.5366 39.1715C31.926 37.5354 31.2764 35.8455 30.2597 34.624C29.5158 33.7291 29.2021 33.0885 26.8454 32.8014C26.2348 32.7752 25.6126 32.9158 25.013 33.264C22.203 34.9068 21.5466 39.2488 24.0533 41.4974ZM25.6891 33.7255C28.1792 32.6288 30.3015 35.146 31.0025 37.49C31.1677 38.575 30.9346 39.6837 30.1305 40.5249C28.385 42.3498 25.5508 42.4688 23.9416 40.4159C22.2489 38.2578 23.3135 34.7734 25.6908 33.7281L25.6891 33.7255Z" fill="#231F20"/>
<path d="M35.275 37.6207C36.0399 38.3071 37.436 37.95 37.6946 36.8691C37.8208 36.3405 37.6098 35.795 37.2817 35.4006C37.0414 35.1122 36.9387 34.9051 36.1773 34.811C35.9791 34.8048 35.7792 34.8462 35.5838 34.9617C34.6753 35.4926 34.4627 36.8954 35.2726 37.6225L35.275 37.6207ZM35.8026 35.1112C36.607 34.7567 37.2936 35.5697 37.5197 36.3282C37.5737 36.679 37.4967 37.0365 37.2394 37.3091C36.6762 37.8974 35.7598 37.9357 35.2377 37.2731C34.6892 36.5758 35.0357 35.4501 35.8026 35.1112Z" fill="#231F20"/>
<path d="M35.7207 36.7973C35.8145 36.9685 35.9589 37.1105 36.1422 37.1778C36.6021 37.3486 37.0377 36.9345 37.0257 36.441C37.0196 36.1634 36.8397 35.8386 36.5978 35.6595C36.5078 35.5166 36.2141 35.4988 36.074 35.5198C35.7155 35.5764 35.4165 36.1151 35.5875 36.4656C35.6005 36.4909 35.6151 36.5189 35.6315 36.5494C35.6469 36.6232 35.6689 36.696 35.7026 36.7642C35.7095 36.7746 35.7146 36.7825 35.719 36.7947L35.7207 36.7973ZM36.1709 36.7744C36.0555 36.6151 35.9102 36.466 35.9113 36.2721C35.9166 36.2411 35.9195 36.212 35.9283 36.1862C35.9386 36.1517 35.9516 36.1268 35.9671 36.1C36.0283 36.009 36.1225 35.9404 36.2311 35.9384C36.3272 35.9341 36.4024 35.9874 36.4752 36.0426C36.5407 36.1146 36.5848 36.2099 36.5857 36.3174C36.5842 36.5387 36.3769 36.7981 36.1684 36.7762L36.1709 36.7744Z" fill="#231F20"/>
<path d="M24.0151 32.3341C24.1683 32.2494 24.3881 32.3054 24.4643 32.4776C24.543 32.648 24.4912 32.8595 24.3281 32.9514C24.1748 33.0361 23.9551 32.9801 23.8789 32.8079C23.8001 32.6375 23.8519 32.426 24.0151 32.3341Z" fill="#231F20"/>
<path d="M22.1125 33.9528C22.5855 33.6852 22.9816 34.4628 22.5068 34.7277C22.0338 34.9953 21.6378 34.2177 22.1125 33.9528Z" fill="#231F20"/>
<path d="M21.1588 36.3596C21.3916 36.2285 21.7207 36.317 21.8385 36.575C21.9562 36.833 21.8794 37.1517 21.6342 37.2918C21.4014 37.4229 21.0723 37.3344 20.9546 37.0764C20.8368 36.8185 20.9136 36.4997 21.1588 36.3596Z" fill="#231F20"/>
<path d="M21.4278 38.8215C21.7542 38.6376 22.0236 39.1716 21.6971 39.3555C21.3707 39.5393 21.1013 39.0053 21.4278 38.8215Z" fill="#231F20"/>
<path d="M22.3274 40.8933C22.7182 40.674 23.0424 41.314 22.6516 41.5333C22.2607 41.7526 21.9365 41.1126 22.3274 40.8933Z" fill="#231F20"/>
<path d="M23.7927 43.0394C23.7602 42.8892 23.8546 42.7315 23.997 42.6972C24.1486 42.6602 24.2673 42.763 24.3164 42.905C24.3645 43.0399 24.2641 43.1942 24.1503 43.2386C23.9991 43.2985 23.8288 43.2063 23.7934 43.035L23.7927 43.0394Z" fill="#231F20"/>
<path d="M25.5255 43.4531C25.9745 43.1992 26.3456 43.9331 25.8966 44.187C25.4476 44.441 25.0765 43.707 25.5255 43.4531Z" fill="#231F20"/>
<path d="M27.9503 43.7716C28.106 43.6851 28.325 43.7455 28.4037 43.9159C28.4824 44.0863 28.4323 44.3004 28.2667 44.3941C28.111 44.4806 27.892 44.4202 27.8133 44.2498C27.7346 44.0794 27.7847 43.8653 27.9503 43.7716Z" fill="#231F20"/>
<path d="M30.3157 42.7582C30.6015 42.5962 30.8431 43.0654 30.5548 43.2292C30.2689 43.3912 30.0274 42.922 30.3157 42.7582Z" fill="#231F20"/>
<path d="M31.7527 40.8259C32.0626 40.6503 32.3215 41.1571 32.0091 41.3346C31.6993 41.5102 31.4404 41.0034 31.7527 40.8259Z" fill="#231F20"/>
<path d="M32.4368 38.8512C32.7492 38.6737 33.0132 39.1884 32.6967 39.3651C32.3843 39.5425 32.1203 39.0278 32.4368 38.8512Z" fill="#231F20"/>
<path d="M32.2779 36.7922C32.5803 36.622 32.8323 37.1184 32.5299 37.2886C32.2275 37.4588 31.9755 36.9624 32.2779 36.7922Z" fill="#231F20"/>
<path d="M31.5159 34.6854C31.8637 34.4897 32.1525 35.059 31.8064 35.2572C31.4586 35.4529 31.1698 34.8836 31.5159 34.6854Z" fill="#231F20"/>
<path d="M29.8205 32.6683C30.1279 32.4945 30.3851 32.9987 30.0777 33.1725C29.7703 33.3464 29.5132 32.8422 29.8205 32.6683Z" fill="#231F20"/>
<path d="M27.14 31.7365C27.5143 31.5254 27.828 32.1383 27.4513 32.3511C27.077 32.5622 26.7632 31.9494 27.14 31.7365Z" fill="#231F20"/>
</svg>
