<svg width="46" height="42" viewBox="0 0 46 42" fill="none" xmlns="http://www.w3.org/2000/svg">
<path d="M42.82 14.865C42.8354 14.8273 42.8349 14.7834 42.8106 14.7368C42.4405 14.0033 41.3478 13.5766 40.6722 13.1942C39.7272 12.6615 38.7571 12.1773 37.7755 11.724C37.365 11.5345 36.9511 11.3494 36.5373 11.1644C36.5123 11.1434 36.4835 11.1292 36.4479 11.1238C35.9423 10.8977 35.4356 10.6765 34.9295 10.4528C34.1365 10.1033 33.3043 9.5933 32.447 9.40694C32.4581 9.33224 32.4697 9.25509 32.4808 9.18039C32.5511 8.59933 32.6633 7.81153 32.4121 7.26668C32.1542 6.70747 31.4178 6.56354 30.9362 6.2939C30.2135 5.89066 29.5402 5.40584 28.8175 5.00261C27.7294 4.39426 26.2885 3.83059 25.0696 4.40713C24.726 4.5696 24.4283 4.88382 24.1841 5.26913C23.2107 4.7893 22.1688 4.19385 21.0946 3.78411C21.0751 3.77204 21.0522 3.76436 21.0288 3.75913C20.2189 3.45472 19.3887 3.25639 18.5598 3.29245C17.4584 3.34221 16.3464 3.56712 15.2508 3.71593C14.2329 3.85638 13.1331 3.89878 12.1476 4.23168C10.7221 4.18075 9.68952 5.27226 9.01759 6.53435C8.06242 8.32995 7.41425 10.3176 6.83272 12.2687C6.23076 14.2924 5.73069 16.344 5.13575 18.3693C4.54158 20.4024 3.76793 22.3235 3.00226 24.2874C2.45905 25.6812 2.02594 27.2821 2.77781 28.672C3.58978 30.1704 5.34789 30.7406 6.78766 31.3323C10.7034 32.9428 14.6356 34.5106 18.5645 36.0828C20.8113 36.9808 23.0556 37.8912 25.31 38.7652C26.2582 39.134 27.2188 39.5363 28.2147 39.7511C28.7702 39.87 29.258 39.8813 29.7481 39.7901C29.9951 39.8273 30.2285 39.7791 30.4448 39.6731C30.4588 39.6762 30.4728 39.6793 30.4874 39.68C31.2617 39.6472 32.0502 39.3526 32.8022 39.1605C33.2869 39.0373 33.7721 38.9116 34.2592 38.7889C34.3494 38.8142 34.4514 38.7958 34.5184 38.7233C34.7411 38.6676 34.9667 38.6099 35.1894 38.5542C35.3038 38.5695 35.4302 38.5283 35.5015 38.413C36.0797 37.4515 36.4744 36.3281 36.9183 35.2955C37.3706 34.2467 37.8122 33.1904 38.2398 32.1309C39.0937 30.0066 39.9042 27.8674 40.677 25.7096C41.3865 23.7331 42.1151 21.7479 42.6832 19.7218C43.1272 18.1387 43.3965 16.4214 42.8205 14.8625L42.82 14.865ZM42.5253 15.7843C42.582 16.1726 42.6067 16.5613 42.5994 16.9507C42.37 16.6705 42.1511 16.3876 41.9905 16.0842C42.1852 15.999 42.3698 15.9039 42.5253 15.7843ZM41.8063 14.5845C41.9717 14.6935 42.1382 14.7976 42.3167 14.8683C42.3645 15.023 42.4048 15.1786 42.4398 15.3357C42.2208 15.3511 41.9937 15.4161 41.7699 15.4998C41.7093 15.2213 41.7128 14.9186 41.8063 14.5845ZM41.3768 14.3008C41.1977 14.7598 41.1814 15.2372 41.2863 15.6979C41.0369 15.8094 40.7975 15.9205 40.5724 15.9989C40.3738 16.0677 40.1529 16.1264 39.9273 16.184C39.7478 15.9459 39.4334 15.8113 39.1513 15.6634C38.5912 15.3711 37.9213 15.0079 37.2749 15.0847C36.8568 14.6904 36.3562 14.3831 35.8388 14.1208C36.1943 13.9713 36.5434 13.7947 36.8815 13.6464C37.4736 13.3877 38.0601 13.1328 38.6258 12.8142C39.1389 13.0626 39.6481 13.3178 40.1507 13.5922C40.5638 13.8156 40.9724 14.0484 41.3755 14.2953L41.3768 14.3008ZM38.6648 17.5946C38.7239 17.4097 38.8625 17.2658 38.9464 17.0916C39.1045 17.0626 39.2659 17.0189 39.4282 16.9703C39.4183 17.0169 39.4072 17.0685 39.3993 17.1284C39.3053 17.6939 39.2103 18.2643 39.0051 18.7998C38.9117 19.0413 38.7899 19.2559 38.6555 19.46C38.6632 19.2405 38.6639 19.0194 38.6524 18.7982C38.6417 18.5617 38.6165 18.3015 38.5749 18.0375C38.6038 18.0054 38.626 17.9589 38.6316 17.8984C38.6415 17.7951 38.6502 17.6968 38.6642 17.597L38.6648 17.5946ZM38.5853 16.625C38.4678 16.4753 38.329 16.3337 38.2173 16.2367C38.1698 16.1953 38.1205 16.1739 38.0721 16.1709C37.9823 15.9836 37.8799 15.8089 37.7692 15.6505C37.9715 15.7471 38.1841 15.8306 38.3896 15.9357C38.6598 16.0706 38.9505 16.2127 39.1995 16.3893C38.9841 16.4569 38.7746 16.531 38.5848 16.6275L38.5853 16.625ZM37.9634 19.7967C37.4248 19.2545 37.041 18.608 36.8166 17.8351C36.5896 17.0512 36.669 16.3822 36.7578 15.6457C37.3206 16.1547 37.6887 16.7489 37.9204 17.4874C37.9893 17.9221 38.0378 18.3599 38.0272 18.8335C38.0195 19.1559 37.9973 19.4776 37.9634 19.7967ZM37.3652 12.2214C37.5905 12.3257 37.8152 12.4325 38.0405 12.5368C37.116 13.0428 36.0246 13.2518 35.1248 13.7916C34.9608 13.7215 34.7969 13.6514 34.6366 13.5873C34.0997 13.3697 33.5592 13.1692 33.0143 12.978C34.0142 12.4631 35.1246 12.0964 36.1755 11.6752C36.573 11.8566 36.9706 12.038 37.3675 12.2219L37.3652 12.2214ZM24.4478 5.82448C24.4793 5.78008 24.4997 5.73062 24.5107 5.67906C24.6925 5.28752 24.9615 4.96949 25.4188 4.8144C26.5664 4.42255 27.8133 5.07924 28.7741 5.66427C29.2208 5.93642 29.6563 6.22663 30.102 6.50369C30.5353 6.77024 31.0607 6.94936 31.4689 7.24119C32.5393 8.01278 31.7253 10.2489 31.2671 11.2449C31.2655 11.2523 31.2645 11.2572 31.2606 11.264C31.0534 11.2126 30.8468 11.1356 30.7381 10.9904C30.4326 10.5852 30.7167 10.2654 30.8405 9.88148C31.0049 9.36515 31.0486 8.81673 30.8957 8.29384C30.5969 7.27275 29.7203 6.60363 28.801 6.24905C27.9222 5.91126 26.6187 5.5532 25.6873 5.90845C24.8677 6.22183 24.4707 7.09261 24.2396 7.92072C24.1191 7.8655 23.9975 7.81518 23.873 7.7668C24.1265 7.17776 24.2047 6.43383 24.4478 5.82448ZM30.3362 7.99906C29.509 7.70624 28.6963 7.35748 27.8751 7.048C27.2013 6.79459 26.4723 6.44395 25.7437 6.30947C26.1778 6.11322 26.6804 6.15861 27.1574 6.25488C28.2814 6.47769 29.605 6.79908 30.2647 7.87505C30.2901 7.91673 30.3131 7.9579 30.3362 7.99906ZM23.4188 5.63836C23.5724 5.71124 23.7283 5.78465 23.8818 5.85754C23.6276 6.46182 23.4902 7.13852 23.5057 7.68475C23.4029 7.74152 23.3898 7.92894 23.5027 8.00819C23.757 8.18331 24.009 8.31163 24.2833 8.45008C24.4205 8.51931 24.5652 8.43847 24.6066 8.2908C24.7619 7.73644 24.8849 7.09255 25.2723 6.65689C25.3307 6.59019 25.3945 6.53243 25.4591 6.48255C26.2014 6.90819 27.119 7.1106 27.9006 7.42154C28.7703 7.76759 29.6452 8.13537 30.4574 8.61263C30.4899 8.63275 30.5221 8.64252 30.553 8.64686C30.6213 9.08397 30.5479 9.53058 30.3951 9.9929C30.2988 10.2826 30.1573 10.5546 30.2292 10.8716C30.3673 11.4864 31.036 11.6949 31.5578 11.7883C31.7465 11.8228 31.852 11.6277 31.812 11.4824C32.0617 10.9337 32.2592 10.3656 32.3823 9.77832C33.0091 10.2862 33.8328 10.5834 34.5382 10.9184C34.9011 11.0896 35.2623 11.2577 35.6263 11.4239C34.7003 11.7881 33.7743 12.1523 32.863 12.5506C32.7035 12.6204 32.5668 12.6979 32.4465 12.7791C30.5151 12.1136 28.5667 11.5163 26.7089 10.6099C24.638 9.59941 22.6528 8.41768 20.618 7.33033C20.7475 7.21777 20.8884 7.12063 21.0438 7.04731C21.9205 6.63866 22.6875 6.29556 23.4176 5.63292L23.4188 5.63836ZM22.9288 5.408C22.4339 5.81961 21.9062 6.12101 21.3104 6.37376C20.9439 6.52855 20.5689 6.66599 20.2592 6.93377C20.2084 6.97644 20.1617 7.02261 20.1151 7.06878C19.8989 6.95619 19.6828 6.8436 19.4661 6.73346C19.0482 6.52176 18.6125 6.30096 18.1594 6.08142C18.4157 6.01777 18.686 5.9804 18.9586 5.92041C19.9114 5.70625 20.8719 5.35235 21.7197 4.82664C22.1206 5.0268 22.5235 5.21714 22.9283 5.41045L22.9288 5.408ZM15.1286 4.19539C16.1356 4.06021 17.1418 3.894 18.1508 3.79528C18.1635 3.79298 18.1781 3.79366 18.1908 3.79136C18.8194 4.53114 19.9574 4.65417 20.8484 4.38505C20.9502 4.43609 21.0521 4.48714 21.1581 4.54169C21.2087 4.56844 21.2576 4.59221 21.3088 4.6165C20.379 5.02102 19.4561 5.39362 18.4593 5.64168C18.1851 5.70904 17.946 5.78423 17.7328 5.87551C16.3158 5.21171 14.7775 4.61083 13.2713 4.46728C13.8958 4.40101 14.5231 4.27618 15.1286 4.19539ZM12.0684 4.68215C12.4545 4.825 12.8478 4.94628 13.242 5.06266C12.3173 6.33773 10.9691 6.73881 9.51737 6.68458C10.1143 5.60123 10.9174 4.70025 12.0684 4.68215ZM4.37565 29.281C3.28559 28.4638 2.83342 27.2773 3.20843 25.7302C3.25301 25.5447 3.30409 25.3632 3.35803 25.1798C4.33532 26.0772 4.78127 28.0263 4.37565 29.281ZM5.0751 29.7125C4.99327 29.671 4.9143 29.6277 4.83819 29.5824C5.18004 28.6144 5.09903 27.6523 4.76732 26.6933C4.52843 25.9994 4.20169 25.0287 3.49647 24.7502C3.92816 23.4653 4.53425 22.2245 4.95787 20.943C5.54084 19.18 6.0118 17.3791 6.4934 15.5858C7.0586 13.4818 7.62536 11.3705 8.3969 9.33328C8.62776 8.72376 8.89901 7.94836 9.25132 7.20649C10.944 7.73896 12.8523 6.70161 13.8107 5.22313C14.305 5.36443 14.7999 5.50328 15.2827 5.67545C15.8594 5.87886 16.4284 6.1063 16.9886 6.35234C16.7575 6.57338 16.5546 6.85731 16.358 7.23782C15.7792 8.35095 15.4637 9.65409 15.0829 10.85C14.6522 12.1994 14.2331 13.5515 13.8135 14.9059C12.1277 20.3351 10.4614 25.8226 7.94755 30.9175C6.97101 30.5553 5.99527 30.1778 5.07328 29.7095L5.0751 29.7125ZM8.47168 31.1143C10.7094 26.359 12.3662 21.3633 13.8816 16.3179C14.6726 13.6857 15.3952 11.0175 16.2935 8.4221C16.5161 7.78245 16.7746 7.11224 17.2289 6.60409C17.2612 6.56758 17.2925 6.53598 17.3261 6.50491C17.8559 6.74415 18.3773 6.99954 18.8948 7.26176C19.1556 7.39463 19.4159 7.52995 19.6728 7.66965C19.2845 8.33917 19.0569 9.1629 18.7936 9.83206C17.7674 12.4298 16.73 15.0224 15.6796 17.607C14.6744 20.0834 13.5513 22.4923 12.3396 24.8685C11.2464 27.0114 10.181 29.1734 9.46824 31.4861C9.13718 31.3607 8.8056 31.2378 8.47168 31.1143ZM20.3833 35.8306C16.9377 34.4512 13.4948 33.0596 10.0394 31.7038C10.7728 29.375 11.8894 27.2142 12.9933 25.0557C14.1896 22.7172 15.2302 20.3388 16.1882 17.8879C17.1497 15.4326 18.0994 12.9747 19.072 10.5245C19.3755 9.75883 19.6367 8.69822 20.1313 7.92127C21.9279 8.89623 23.6827 9.9519 25.4959 10.8946C27.5565 11.9645 29.6807 12.7143 31.8624 13.4358C31.701 13.7315 31.5893 14.0821 31.4623 14.5039C30.6547 17.1453 29.7866 19.7604 28.8446 22.3538C27.0632 27.2676 25.0783 32.1129 22.7788 36.7901C21.9818 36.4706 21.182 36.153 20.3851 35.8335L20.3833 35.8306ZM24.1214 37.3319C23.8441 37.2185 23.5669 37.1051 23.2891 36.9942C25.3792 32.5737 27.3236 28.0898 29.0139 23.4874C29.84 21.2411 30.5915 18.9653 31.2972 16.6741C31.4802 16.0822 31.658 15.4917 31.8316 14.8977C31.9196 14.6009 31.9935 14.301 32.0885 14.0059C32.1427 13.8328 32.2098 13.6909 32.2896 13.5698C32.3535 13.5918 32.418 13.6113 32.4843 13.6338C33.1761 13.8604 33.8866 14.0912 34.5762 14.3738C34.0696 14.9089 33.8075 15.905 33.5131 16.5363C33.0485 17.5283 32.5862 18.5209 32.1262 19.5139C31.2262 21.453 30.3303 23.3956 29.4414 25.3398C27.6408 29.277 25.911 33.2507 24.1546 37.2107C24.1358 37.2528 24.1274 37.2921 24.1242 37.3299L24.1214 37.3319ZM30.5008 38.5743C30.2139 38.8961 29.8555 39.0244 29.5289 39.2678C28.8172 39.2375 28.0828 39.0039 27.3768 38.7176C27.8057 38.2707 28.2197 37.8821 28.8425 37.6406C29.5934 37.3504 30.3889 37.3558 31.1313 37.6091C30.9554 37.9505 30.7537 38.2861 30.5014 38.5719L30.5008 38.5743ZM26.8644 38.5002C26.3601 38.2795 25.8776 38.0483 25.4341 37.8643C25.1797 37.7586 24.9243 37.6578 24.6717 37.5551C24.6795 37.5414 24.6902 37.5258 24.6962 37.5092C26.4084 33.5264 28.1913 29.5801 29.9476 25.6201C30.8147 23.6633 31.6888 21.7081 32.5671 19.7564C32.996 18.8053 33.4249 17.8542 33.8562 16.9036C34.0931 16.3804 34.3324 15.8576 34.5688 15.3368C34.7078 15.0309 34.8502 14.8003 34.8883 14.5079C35.3274 14.7011 35.7531 14.9223 36.1507 15.1834C36.2068 15.2191 36.2572 15.2587 36.3105 15.2963C35.982 16.0641 36.0115 17.061 36.1555 17.8314C36.3652 18.9484 36.9699 19.9606 37.8272 20.6511C37.8319 20.6522 37.8337 20.6552 37.8378 20.6587C37.7547 21.116 37.6506 21.5686 37.5201 22.0179C36.883 24.2292 35.8678 26.351 34.9822 28.4631C34.1032 30.5561 33.213 32.644 32.3469 34.745C32.0367 35.4963 31.7538 36.2691 31.4189 37.0097C29.8445 36.5088 27.724 36.8994 26.8615 38.5022L26.8644 38.5002ZM35.0603 37.9543C34.9534 37.9845 34.8488 38.0151 34.7418 38.0452C34.8791 37.6669 35.0769 37.315 35.3415 37.0062C35.3903 36.9503 35.4518 36.892 35.5203 36.8352C35.3531 37.2043 35.1953 37.5755 35.0603 37.9543ZM41.9696 20.365C41.3213 22.422 40.5706 24.4537 39.8137 26.4685C39.0656 28.4647 38.2729 30.4406 37.4508 32.4048C37.0494 33.3647 36.6462 34.3215 36.2318 35.2733C36.1307 35.5054 36.0244 35.7389 35.9163 35.9694C35.542 35.9887 35.1299 36.4599 34.9175 36.7083C34.5418 37.1466 34.2854 37.6578 34.1342 38.2156C33.6383 38.3569 33.1424 38.4982 32.6446 38.6365C32.1671 38.7717 31.6634 38.8804 31.1823 39.0327C31.844 38.2082 32.3019 36.9266 32.5648 36.2933C33.5772 33.852 34.5691 31.4035 35.5638 28.9531C36.5101 26.6256 37.6383 24.3079 38.2764 21.8627C38.3988 21.3936 38.4989 20.9144 38.5675 20.4332C39.0735 20.073 39.3685 19.3929 39.5727 18.816C39.7911 18.196 40.0517 17.4131 40.0674 16.7323C40.2491 16.6623 40.4279 16.5942 40.5923 16.5358C40.8492 16.4465 41.1632 16.3649 41.4763 16.2651C41.7196 16.8236 42.1146 17.326 42.5531 17.6941C42.4616 18.5919 42.2413 19.4842 41.966 20.359L41.9696 20.365Z" fill="#231F20"/>
<path d="M23.8916 14.7436C23.9106 14.6547 23.8582 14.5926 23.7953 14.5685C23.806 14.4727 23.814 14.3788 23.8252 14.2806C23.8342 14.2045 23.798 14.1008 23.7096 14.0936C22.9303 14.0303 22.1533 13.9449 21.3717 13.9037C20.7969 13.8735 20.1112 13.816 19.5141 13.947C19.4122 13.9343 19.3114 13.9168 19.2082 13.8988C19.1618 13.8885 19.1223 13.9023 19.093 13.926C19.0584 13.9056 19.0141 13.9083 18.9945 13.9543C18.7057 14.6905 18.6842 15.5645 18.5916 16.3496C18.4866 17.2502 18.3959 18.1515 18.3099 19.0539C18.2989 19.1622 18.3609 19.2592 18.4756 19.2571C20.0372 19.2106 21.5914 19.301 23.1421 19.4988C23.2602 19.5151 23.3475 19.4365 23.3518 19.314C23.4124 17.7689 23.5956 16.2638 23.8911 14.746L23.8916 14.7436ZM18.6461 18.915C18.727 18.082 18.8148 17.2505 18.912 16.4211C18.9924 15.7265 19.1595 14.9908 19.1479 14.2832C19.8354 14.3436 20.5625 14.219 21.259 14.2487C22.0086 14.2802 22.7577 14.3367 23.5045 14.3928C23.4625 14.7258 23.4202 15.0487 23.4545 15.3888C23.2393 16.6224 23.0955 17.8744 23.0209 19.1218C21.5695 18.9259 20.1117 18.8622 18.6484 18.9155L18.6461 18.915Z" fill="#231F20"/>
<path d="M22.36 16.5716C22.3712 15.9142 22.3871 15.2579 22.4076 14.6026C22.4111 14.5177 22.3202 14.4636 22.2493 14.4867C21.4186 14.7869 20.6089 14.8061 19.7573 14.6444C19.727 14.6377 19.701 14.6449 19.6792 14.6556C19.6355 14.5861 19.5077 14.6017 19.4847 14.6979C19.2332 15.725 19.1774 16.8193 19.101 17.8726C19.0952 17.9571 19.1842 18.0315 19.2594 18.0223C19.9128 17.9578 20.568 17.8964 21.2224 17.8269C21.4719 17.8021 22.0701 17.8812 22.2742 17.6462C22.4743 17.4181 22.3582 16.831 22.361 16.5667L22.36 16.5716ZM21.9112 17.3001C21.6305 17.5855 21.0249 17.5178 20.6476 17.5582C20.238 17.6018 19.8288 17.6429 19.4168 17.686C19.4882 16.7588 19.6274 15.8339 19.6837 14.9086C19.6907 14.9102 19.6943 14.9162 19.7013 14.9177C20.5281 15.1154 21.3507 15.0472 22.1579 14.7884C22.1455 15.1546 22.1303 15.5227 22.1132 15.8878C22.0955 16.2787 22.1818 17.028 21.9107 17.3026L21.9112 17.3001Z" fill="#231F20"/>
<path d="M27.7009 16.2149C27.7549 15.8822 28.0802 15.0164 27.8469 14.705C27.6058 14.3841 26.6511 14.5727 26.3281 14.5887C26.204 14.5946 26.1613 14.7251 26.1978 14.8188C26.1594 14.8258 26.1215 14.8536 26.107 14.91C25.8363 15.9228 25.6371 16.9463 25.3312 17.9513C25.3001 18.0506 25.3971 18.1604 25.4902 18.1501C25.8889 18.1018 26.29 18.054 26.6887 18.0056C26.8656 17.983 27.2014 18.0217 27.3524 17.8791C27.6639 17.5832 27.6352 16.6254 27.7009 16.2149ZM26.793 17.6557C26.4885 17.7691 26.0592 17.7769 25.6997 17.8029C25.9735 16.8789 26.2343 15.9236 26.334 14.9633C26.3377 14.946 26.3339 14.9296 26.33 14.9132C26.3347 14.9142 26.337 14.9147 26.3394 14.9152C26.7177 14.8935 27.4305 14.7209 27.5513 15.2249C27.6242 15.5393 27.3851 16.2091 27.3282 16.5438C27.2525 17.0013 27.2607 17.4802 26.793 17.6557Z" fill="#231F20"/>
<path d="M27.4369 22.5643C27.4622 21.9401 26.7764 22.0668 26.3349 22.2922C26.4714 21.7343 26.0697 20.8201 25.4948 21.2439C25.191 21.469 25.2553 21.95 25.2765 22.2762C25.3274 23.0264 25.3473 23.7722 25.3242 24.5241C25.3212 24.653 25.4811 24.7328 25.5781 24.6586C25.9982 24.3376 26.427 24.0108 26.7871 23.6143C27.0121 23.3664 27.4209 22.9263 27.4351 22.5613L27.4369 22.5643ZM26.9946 22.8051C26.9133 23.0358 26.6514 23.2833 26.4866 23.4564C26.2338 23.7188 25.9517 23.9461 25.6659 24.1675C25.6755 23.7548 25.6728 23.342 25.6556 22.9286C25.6471 22.7037 25.6311 22.4798 25.6151 22.2559C25.6024 22.1312 25.5945 22.0076 25.5917 21.8825C26.0174 21.8921 26.166 22.0705 26.0359 22.4147C26.03 22.4419 26.037 22.4668 26.045 22.4867C25.8959 22.6323 26.1266 22.8523 26.2729 22.7087C26.5132 22.4124 26.784 22.3874 27.0877 22.6341L26.994 22.8076L26.9946 22.8051Z" fill="#231F20"/>
<path d="M19.5905 22.8901C19.5026 22.8914 19.4172 22.8933 19.3293 22.8946C19.1764 22.8767 19.0206 22.8605 18.8677 22.8426C18.7716 22.8328 18.6659 22.8301 18.5721 22.8092C18.3947 22.7696 18.4267 22.7814 18.3451 22.6165C18.1538 22.2201 18.0476 21.7729 17.9036 21.366C17.8957 21.341 17.8813 21.3215 17.8634 21.3059C17.8653 21.297 17.8672 21.2881 17.8686 21.2814C17.8711 21.2448 17.8176 21.2095 17.7892 21.2428C17.7823 21.2505 17.7778 21.2588 17.7709 21.2666C17.7319 21.2625 17.6901 21.2718 17.657 21.29C17.6217 21.2938 17.5895 21.3075 17.5667 21.3397C17.5667 21.3397 17.5657 21.3441 17.5632 21.3435C17.5592 21.3496 17.5532 21.3529 17.5493 21.359C17.3423 21.7805 17.1277 22.2003 16.9014 22.6128C16.8935 22.625 16.8962 22.6372 16.8933 22.6506C16.4294 22.8704 15.5543 22.8029 15.0816 22.8276C14.9528 22.8337 14.8811 22.9829 14.9904 23.0678C15.3718 23.3578 15.7688 23.5628 16.2217 23.7175C15.9632 24.2927 15.7022 24.8674 15.4463 25.4431C15.3752 25.6018 15.5846 25.7277 15.7241 25.6215C16.2208 25.2485 16.7201 24.876 17.2163 24.5052C17.5567 24.8628 17.8941 25.222 18.2315 25.5813C18.3289 25.6845 18.5255 25.6842 18.5564 25.5399C18.6761 24.9802 18.5686 24.4768 18.2499 23.9682C18.7365 23.7046 19.2215 23.4359 19.7039 23.1667C19.8423 23.0906 19.7642 22.8847 19.596 22.889L19.5905 22.8901ZM17.8226 23.868C17.6741 23.9536 17.8067 24.1531 17.9583 24.1148C18.1625 24.4513 18.2503 24.7734 18.2373 25.1195C17.9375 24.8082 17.6351 24.4963 17.3352 24.185C17.2676 24.1164 17.1562 24.1404 17.0957 24.1874C16.7286 24.4637 16.3619 24.7378 15.9948 25.0142C16.1859 24.5798 16.3745 24.1449 16.5657 23.7106C16.6029 23.6235 16.5578 23.5366 16.4527 23.5062C16.1001 23.4042 15.7992 23.2718 15.5087 23.0905C15.8202 23.074 16.1313 23.0597 16.4408 23.0405C16.6372 23.0285 16.9893 23.0583 17.1621 22.9456C17.3905 22.7965 17.5809 22.3783 17.7068 21.976C17.7513 22.1278 17.7903 22.2808 17.8177 22.4382C17.8484 22.6173 17.8109 22.9044 17.9521 23.0639C18.125 23.2608 18.528 23.2764 18.9102 23.2524C18.5451 23.457 18.1826 23.6623 17.8241 23.8731L17.8226 23.868Z" fill="#231F20"/>
<path d="M25.1378 26.6279C24.4381 26.3147 23.6598 25.8634 22.8775 25.5656C22.5826 25.3598 22.2631 25.1678 22.1158 25.2049C22.1511 25.1525 22.1544 25.0808 22.086 25.0294C22.0779 25.0227 22.0715 25.0189 22.0633 25.0122C22.0095 24.9713 21.953 24.9659 21.8997 24.9902C21.8814 24.9861 21.8606 24.9935 21.8465 25.0145C21.2401 25.7933 20.74 26.6707 20.2238 27.5108C20.213 27.5277 20.2095 27.5438 20.2061 27.5599C20.2056 27.5622 20.2046 27.5668 20.2036 27.5714C20.1746 27.6397 20.1908 27.7326 20.2626 27.7679C21.3193 28.2887 22.3423 28.9104 23.3626 29.5002C23.4311 29.5397 23.4947 29.5346 23.5448 29.5024C23.591 29.5223 23.6422 29.5193 23.6802 29.465C24.2632 28.6496 24.7097 27.7192 25.2107 26.8492C25.2526 26.7766 25.2193 26.6629 25.1424 26.6289L25.1378 26.6279ZM23.5337 29.15C22.9359 28.7873 22.3291 28.4443 21.7124 28.1135C21.3548 27.9202 20.9579 27.641 20.5502 27.5354C20.9806 26.8379 21.4331 26.138 21.806 25.4059C22.2983 25.8126 22.9398 26.1055 23.5865 26.3633C23.9738 26.5415 24.3782 26.6849 24.7572 26.8902C24.7723 26.8984 24.7843 26.8987 24.798 26.9018C24.3685 27.6405 23.8938 28.3765 23.5342 29.1477L23.5337 29.15Z" fill="#231F20"/>
</svg>
