<svg width="388" height="704" viewBox="0 0 388 704" fill="none" xmlns="http://www.w3.org/2000/svg">
<path d="M231.284 98.2724C229.529 97.4283 227.763 96.5768 226.015 95.7213C224.895 95.1767 224.177 94.8858 223.333 93.8491C222.174 92.4222 222.456 92.1441 222.436 90.3074C222.389 86.8218 222.01 83.3708 221.393 79.953C221.327 79.5858 221.158 79.3101 220.932 79.1253C220.595 78.2207 219.544 77.6413 218.757 78.531C217.275 80.2114 215.805 81.8993 214.323 83.5797C213.055 85.0168 211.128 88.3337 209.448 89.1378C208.317 89.6827 207.878 89.0162 206.629 88.1577C205.667 87.5095 204.741 86.8045 203.793 86.1336C201.72 84.6551 199.635 83.1693 197.562 81.6909C196.745 81.1083 195.29 81.7253 195.373 82.8624C195.755 88.3007 197.366 93.2115 200.221 97.7185C196.902 102.099 193.929 106.696 191.299 111.54C190.744 112.554 191.523 114.193 192.786 113.785C196.517 112.604 200.707 110.586 204.583 110.068C206.04 109.872 205.471 109.44 206.122 110.637C206.488 111.32 206.493 112.582 206.651 113.35L207.956 120.12C208.142 121.117 209.566 121.77 210.285 120.916C213.769 116.792 215.777 112.126 216.341 106.664C221.635 105.439 226.665 103.568 231.502 100.986C232.715 100.334 232.356 98.7688 231.291 98.261L231.284 98.2724ZM208.895 110.021C208.618 108.624 208.526 107.351 207.11 106.784C205.43 106.12 202.937 107.506 201.372 108C199.436 108.616 197.508 109.221 195.561 109.829C197.857 105.921 200.392 102.175 203.169 98.5917C203.585 98.0488 203.384 97.3002 203.038 96.809C200.794 93.5371 199.315 89.9094 198.62 86.0193C200.405 87.2875 202.184 88.5671 203.97 89.8353C205.406 90.8678 207.548 93.183 209.478 92.7738C211.355 92.3766 212.835 89.6781 214.025 88.3171C215.681 86.4315 217.33 84.5572 218.975 82.6642C219.286 84.7299 219.514 86.8043 219.587 88.9033C219.654 90.7882 219.12 93.4627 220.005 95.2051C220.616 96.3915 221.705 96.8351 222.828 97.3985C224.391 98.1776 225.968 98.9339 227.545 99.6903C223.606 101.554 219.524 102.95 215.274 103.894C214.499 104.066 214.185 104.694 214.193 105.329C213.853 105.551 213.587 105.904 213.535 106.435C213.169 110.061 212.044 113.386 210.144 116.334C209.739 114.221 209.344 112.115 208.92 110.006L208.895 110.021Z" fill="white"/>
<path d="M183.483 115.988C179.159 110.377 178.311 102.623 181.401 96.1691C182.007 94.8987 180.233 93.6867 179.609 94.9611C176.06 102.35 176.898 111.016 181.884 117.459C182.743 118.571 184.332 117.092 183.483 115.988Z" fill="white"/>
<path d="M173.62 114.585C172.015 109.839 171.458 104.88 171.891 99.8781C172.014 98.4602 169.881 98.3462 169.762 99.7829C169.298 105.184 169.989 110.475 171.707 115.587C172.161 116.926 174.063 115.916 173.613 114.596L173.62 114.585Z" fill="white"/>
<path d="M112.587 30.7886C95.8322 43.607 71.1212 42.6219 55.4018 28.4271C53.8419 27.0206 51.392 29.2589 52.9738 30.6801C70.129 46.1816 96.4206 47.3445 114.757 33.3326C116.45 32.0363 114.265 29.5149 112.591 30.8073L112.587 30.7886Z" fill="white"/>
<path d="M104.065 49.7699C100.47 50.8816 96.8649 51.9858 93.2775 53.0861C91.277 53.7067 91.9467 57.0148 93.9582 56.4016C97.5527 55.2899 101.158 54.1857 104.746 53.0854C106.746 52.4648 106.076 49.1567 104.065 49.7699Z" fill="white"/>
<path d="M132.109 227.648C140.935 215.125 149.746 202.576 158.594 190.068C163.086 183.716 167.597 177.36 172.089 171.009C176.234 165.142 182.126 158.824 184.817 152.055C185.038 151.499 184.733 151.036 184.304 150.922C184.148 150.544 183.832 150.25 183.331 150.151C169.468 147.647 155.718 143.857 142.073 140.299C138.647 139.407 135.229 138.505 131.806 137.583C129.27 136.893 129.039 136.737 128.123 134.242C127.543 132.664 127.289 130.889 126.885 129.253C125.094 122.063 123.284 114.877 121.453 107.677C120.609 104.364 119.771 101.041 118.89 97.7366C118.302 95.5436 117.887 92.7949 116.608 90.7595C116.621 90.1598 116.2 89.6824 115.692 89.5953C113.849 87.7393 111.098 86.9677 108.812 85.9499C105.527 84.4805 102.287 82.9134 99.0923 81.2487C95.6197 79.428 92.1952 77.4797 88.8409 75.4185C85.3617 73.2568 81.9526 70.9823 78.5886 68.6101C76.0327 66.7206 73.493 64.7298 70.8911 62.8892C69.5038 61.8064 68.1346 60.7197 66.7684 59.603C66.7597 59.3407 66.644 59.1503 66.4682 59.0313C66.3714 58.8857 66.2536 58.7739 66.0677 58.6963C65.816 58.574 65.4791 58.5384 65.244 58.7159C64.4816 59.2899 64.3673 60.4786 64.1064 61.3759L64.0281 61.6274C63.9931 61.6838 63.969 61.7477 63.9489 61.8303C63.8174 62.3182 63.6819 62.7875 63.5504 63.2755C63.3437 63.985 63.1299 64.7058 62.9232 65.4153C62.264 67.5816 61.5388 69.7033 60.7627 71.8065C59.3166 74.963 57.7906 78.0974 56.0507 81.1993C51.6243 89.1025 47.0551 96.909 42.369 104.652C32.9407 120.23 22.9081 135.398 12.3582 150.168C11.5662 151.267 11.8914 152.753 13.2584 153.165C30.5437 158.45 48.0065 163.374 65.6746 166.962C65.858 174.378 70.7162 182.232 73.0254 189.116C75.6644 196.975 76.8048 204.911 78.126 213.033C78.0087 213.322 77.9674 213.614 77.9871 213.884C77.7584 214.579 78.0921 215.574 78.8785 215.865C87.1419 218.892 95.9206 220.537 104.407 222.753C112.933 224.979 121.405 227.394 129.904 229.715C131.383 230.122 132.239 228.795 132.093 227.574L132.109 227.648ZM181.79 152.859C179.762 155.093 178.111 157.774 176.358 160.194C174.085 163.351 171.8 166.501 169.544 169.655C164.996 175.97 160.46 182.292 155.93 188.603C147.924 199.757 139.862 210.874 131.822 222.006C131.797 221.62 131.573 221.276 131.123 221.148C137.986 211.432 143.76 200.706 150.125 190.637C153.397 185.446 156.702 180.278 160.028 175.124C163.502 169.734 167.618 164.441 170.502 158.668C170.738 158.715 170.967 158.774 171.203 158.821C172.96 159.209 173.543 156.286 171.789 156.045C159.64 154.348 147.596 151.68 135.681 148.603C132.695 147.832 129.222 147.294 126.39 146.05C125.89 145.824 125.493 145.684 125.165 145.51C126.244 143.596 127.284 141.671 128.211 139.702C146.009 144.388 164.02 148.128 181.797 152.847L181.79 152.859ZM140.462 178.586C139.318 180.376 138.55 182.341 138.412 184.523C138.313 185.962 139.049 187.566 137.313 188.427C136.3 188.927 132.456 187.528 131.294 187.288C130.565 187.131 129.867 187.476 129.489 188.134C128.434 190.032 123.702 187.728 122.052 187.67C120.287 187.597 118.547 188.087 116.972 188.864C112.625 190.987 110.115 195.203 106.805 198.572C102.115 203.332 105.331 197.479 106.305 194.981C107.111 192.93 107.859 190.872 108.16 188.655C108.749 184.214 106.781 181.68 105.24 178.233C105.499 177.816 105.758 177.398 106.018 176.981C109.923 170.696 113.783 164.381 117.578 158.022C118.177 157.033 118.79 156.022 119.407 155.029C122.851 155.916 126.189 157.149 129.256 159.144C131.548 160.631 133.573 162.37 136.105 163.393C139.139 164.613 142.453 164.932 145.464 166.264C146.751 166.83 149.666 168.242 148.842 170.296C148.49 171.164 146.246 172.466 145.442 173.157C143.583 174.768 141.777 176.494 140.43 178.612L140.462 178.586ZM104.114 174.042C104.037 174.166 103.96 174.29 103.89 174.403C103.113 171.986 102.071 169.695 99.1196 169.798C97.3282 169.868 96.531 171.251 94.979 171.74C89.0151 173.603 90.4084 166.788 90.175 163.698C90.0352 161.888 89.495 160.497 88.401 159.068C87.3001 157.65 85.68 156.49 85.1313 154.66C84.6135 152.931 85.0725 151.062 85.2634 149.348C85.6209 146.161 86.1411 143.163 84.8247 140.509C87.4082 136.552 89.9918 132.594 92.5973 128.652C95.9189 123.607 99.2294 118.555 102.547 113.492C102.428 115.767 102.357 118.043 102.296 120.325C102.194 123.83 101.632 127.297 103.557 130.378C104.821 132.387 105.673 134.005 105.645 136.486C105.624 137.978 105.465 139.49 105.743 140.976C106.206 143.421 107.381 145.498 109.474 146.401C109.238 148.036 108.991 149.664 108.755 151.3C108.64 152.087 109.049 153.037 109.898 153.178C112.04 153.522 114.201 153.862 116.335 154.296C116.16 154.578 116.002 154.857 115.838 155.146C112.01 161.483 108.11 167.787 104.139 174.027L104.114 174.042ZM121.164 145.896C120.055 147.806 118.968 149.731 117.87 151.649C115.96 151.158 113.982 150.749 111.911 150.39C112.141 148.814 112.378 147.228 112.607 145.652C112.722 144.864 112.313 143.915 111.465 143.773C107.041 143.056 108.656 136.664 108.061 133.553C107.62 131.299 106.103 129.872 105.314 127.801C104.187 124.842 104.975 120.936 105.081 117.802C105.175 115.013 105.24 112.221 105.212 109.429C106.511 107.487 107.912 105.534 109.305 103.544C109.957 105.684 110.35 108.065 110.928 110.075C112.723 116.354 114.511 122.644 116.306 128.923C117.17 131.928 118.034 134.932 118.917 137.933C119.469 139.782 120.081 143.721 121.168 145.915L121.164 145.896ZM115.672 96.9377C116.78 101.358 117.9 105.785 119.037 110.209C121.411 119.475 123.748 128.75 126.05 138.032C125.066 139.465 124.125 140.928 123.218 142.414C122.89 141.183 122.709 139.842 122.39 138.648C120.637 132.35 118.824 126.075 117.011 119.8C115.287 113.809 113.78 107.694 111.765 101.795C111.619 101.376 111.464 100.998 111.297 100.613C112.611 98.649 113.863 96.6593 114.926 94.6219C115.218 95.3324 115.457 96.1031 115.661 96.9303L115.672 96.9377ZM102.176 108.16C98.1588 114.225 94.1813 120.3 90.1968 126.387C88.0379 129.686 85.8749 132.966 83.705 136.258C82.0922 133.981 79.9643 131.98 77.3694 131.058C76.2303 130.656 75.2399 130.466 74.0698 130.893C72.9178 131.315 72.4215 132.566 71.4114 133.037C69.262 134.035 67.8824 130.729 65.286 131.04C62.8516 131.316 60.2707 132.983 57.9078 134.526C58.1413 133.145 58.4727 131.783 59.034 130.528C60.3398 127.597 62.5276 127.09 64.6859 125.249C65.9516 124.166 65.5336 123.483 66.2498 122.204C68.4114 118.298 69.8667 121.959 72.1595 122.212C73.7317 122.394 75.4465 121.167 75.2566 119.387C75.0587 117.571 73.0319 117.241 75.39 115.455C77.2889 114.031 81.004 113.628 83.0562 114.52C84.1242 114.986 85.4557 114.124 85.0584 112.829C84.5574 111.224 89.3069 110.111 90.1589 108.94C91.064 107.71 90.9483 106.59 90.531 105.201C90.2333 104.199 89.6275 103.34 89.3798 102.307C88.581 98.9458 90.9531 97.1372 93.8971 97.9751C97.8263 99.111 100.384 102.429 102.859 105.529C102.963 105.663 103.087 105.715 103.221 105.726C103.183 105.812 103.148 105.917 103.143 106.026C103.116 106.296 103.096 106.555 103.068 106.825C102.795 107.265 102.515 107.716 102.219 108.141L102.176 108.16ZM104.025 105.26C104.025 105.26 103.949 105.257 103.902 105.257C103.95 105.129 103.951 105.002 103.901 104.856C102.046 100.107 91.7451 90.8137 87.6425 97.8942C85.8136 101.064 90.0053 106.048 86.8419 108.251C85.2013 109.384 83.1177 109.673 82.4212 111.221C79.2943 110.452 75.7785 111.439 73.1424 113.245C71.9259 114.073 70.674 115.309 70.6402 116.921C70.6246 117.423 71.1932 118.417 71.1419 118.751C71.002 119.554 70.6801 117.862 69.8649 117.39C68.5273 116.629 66.8266 116.905 65.6171 117.722C64.6468 118.379 64.6373 118.821 63.9935 119.732C62.8851 121.29 63.5172 121.83 61.146 123.687C60.8719 123.902 60.6047 124.106 60.3446 124.299C60.3437 124.25 60.3427 124.202 60.3058 124.161C59.6282 123.141 58.4893 122.563 57.4553 121.992C56.1437 121.264 54.7869 120.635 53.3991 120.08C52.6377 119.774 52.0316 120.95 52.811 121.253C54.1149 121.767 55.3947 122.344 56.6365 123.008C57.7064 123.572 58.7561 124.394 59.9424 124.62C58.5417 125.643 57.3902 126.467 56.4404 128.373C55.0307 131.169 54.5832 134.376 54.2388 137.492C54.2276 137.661 54.2234 137.819 54.2482 137.98C51.7315 136.806 49.0506 135.921 46.596 134.597C45.9496 134.256 45.4417 135.275 46.088 135.616C48.8453 137.081 52.0051 138.802 55.1533 139.361C55.6028 139.617 56.1676 139.663 56.7397 139.345C58.9783 138.103 62.1051 135.507 64.6037 135.002C67.3903 134.435 67.6692 137.076 69.9978 137.497C71.307 137.726 72.3583 137.139 73.3109 136.309C74.5977 135.193 74.1872 134.899 76.1485 134.831C78.4927 134.751 80.0669 136.713 81.2471 138.682C80.8587 139.156 80.713 139.843 81.0322 140.46C77.7457 145.448 74.4592 150.436 71.1947 155.439C58.2335 152.087 45.2374 148.615 32.1545 145.885C38.6784 134.305 45.0493 122.669 51.2295 110.888C57.5279 98.8663 64.4653 86.62 69.3431 73.8457C78.4473 81.0953 89.1028 86.7021 98.6977 93.1619C101.445 95.0203 105.299 96.955 107.493 99.7536C106.336 101.615 105.208 103.481 104.084 105.316L104.025 105.26ZM16.909 150.555C22.0609 142.79 27.129 134.984 32.1161 127.108C35.5019 121.834 38.8037 116.52 42.0467 111.15C43.0561 109.525 44.0656 107.9 45.0491 106.241C48.891 99.882 52.6339 93.4556 55.9823 86.8103C56.8969 85.1373 57.8004 83.4569 58.704 81.7765C61.8917 75.7917 66.1479 68.9914 66.9476 61.952C67.0355 62.0115 67.1054 62.0748 67.1863 62.1455C71.6412 66.9065 77.4925 70.8014 82.7145 74.3025C89.7933 79.0599 97.1946 83.2982 104.842 86.9656C106.684 87.8434 108.674 88.5331 110.439 89.535C111.539 90.151 112.406 90.8657 113.123 91.6712C111.653 93.3848 110.301 95.2589 109.012 97.2077C106.924 94.9932 104.139 93.6221 101.132 91.7801C95.931 88.5975 90.7858 85.3246 85.6335 82.063C80.4302 78.7829 68.7359 70.6784 68.2011 71.6146C67.8561 71.7178 55.3914 97.3567 48.8359 109.541C42.1162 122.014 34.9558 134.318 27.3909 146.268C26.7109 147.363 27.5709 148.842 28.6752 149.124C42.134 152.605 55.8188 155.245 69.4295 157.979C68.2819 159.751 67.1163 161.527 65.9687 163.298C49.5466 159.287 33.1464 155.291 16.894 150.529L16.909 150.555ZM73.1477 158.299C76.3641 153.424 79.5625 148.552 82.7569 143.662C83.5998 147.806 80.3281 152.997 82.4554 157.209C84.1469 160.565 86.6068 161.604 86.4059 165.971C86.3216 167.966 86.4732 170.008 87.3938 171.816C89.0135 175.012 92.6121 176.806 95.8924 175.419C97.0755 174.921 99.0586 173.362 100.394 174.779C100.988 175.405 101.037 177.361 101.31 178.379C96.352 186.083 91.3132 193.716 86.1644 201.275C83.7991 194.482 81.4308 187.719 79.3705 180.812C77.1827 173.482 75.9345 165.393 73.1398 158.262L73.1477 158.299ZM76.1463 189.016C74.7854 185.002 73.1196 181.102 71.4967 177.183C70.128 173.885 69.1984 170.308 67.7187 167.063C68.4199 166.688 68.7757 165.839 68.6557 165.052C69.664 163.555 70.6504 162.043 71.6407 160.549C72.5026 167.351 74.9946 174.341 76.8865 180.766C79.1508 188.5 81.585 196.237 84.4882 203.747C83.2827 205.511 82.0771 207.276 80.8606 209.033C80.1436 202.25 78.2862 195.368 76.1353 189.008L76.1463 189.016ZM102.957 181.882C103.887 183.601 104.682 185.26 104.35 187.728C103.719 192.462 98.5703 198.161 99.8481 203.113C101.044 207.768 105.99 204.832 108.101 202.991C112.196 199.415 115.94 191.355 122.213 191.656C125.682 191.824 129.608 194.272 131.818 190.815C134.41 191.415 137.968 192.572 140.048 191.159C142.602 189.409 141.166 185.44 141.875 182.891C142.956 178.991 146.608 176.253 149.44 173.73C151.124 172.225 152.85 170.652 151.923 168.102C151.033 165.64 148.016 164.241 145.835 163.406C141.703 161.844 137.533 161.347 133.767 158.767C129.507 155.852 125.36 153.912 120.963 152.524C121.881 151.046 122.8 149.567 123.674 148.06C124.318 148.255 125.039 148.374 125.846 148.583C128.966 149.364 132.085 150.096 135.208 150.847C146.188 153.468 157.221 155.756 168.227 158.186C164.761 162.332 161.961 167.217 158.954 171.705C155.385 177.047 151.856 182.4 148.342 187.78C141.385 198.426 133.624 209.009 127.746 220.353C127.746 220.353 127.739 220.365 127.732 220.376C120.92 218.604 114.26 215.861 107.654 213.507C103.614 212.072 99.5917 210.584 95.5659 209.126C92.8031 208.122 89.9876 206.826 87.0963 206.281C92.4885 198.23 97.7708 190.104 102.95 181.893L102.957 181.882ZM104.473 218.727C97.1174 216.827 89.6557 214.695 82.1278 213.625C83.4315 211.702 84.7172 209.783 86.01 207.853C88.3084 209.328 90.9634 210.179 93.5013 211.143C97.7508 212.768 102.048 214.265 106.353 215.752C114.286 218.507 122.309 221.819 130.573 223.212C130.7 223.234 130.83 223.226 130.949 223.21C130.39 223.985 129.823 224.772 129.263 225.547C121.05 223.067 112.77 220.846 104.48 218.716L104.473 218.727Z" fill="white"/>
<path d="M74.9957 89.4639C73.9478 87.4479 71.5008 86.6561 69.7176 85.5471C69.2328 85.2514 68.6929 86.0193 69.1538 86.3785C70.8182 87.6784 72.4399 89.7471 74.6245 90.0106C74.9313 90.0425 75.1528 89.7614 74.9957 89.4639Z" fill="white"/>
<path d="M84.3851 93.0427C82.9282 92.1058 81.3919 91.7222 79.7169 91.4366C79.4348 91.3896 79.243 91.7232 79.4601 91.9499C79.5448 92.0391 79.6294 92.1282 79.7141 92.2174C79.6782 92.2251 79.6642 92.2476 79.6791 92.2737C79.712 92.2959 79.726 92.2734 79.74 92.2509C80.8327 93.373 81.9615 94.3118 83.4087 94.9387C84.6486 95.4734 85.5281 93.7834 84.3741 93.0353L84.3851 93.0427Z" fill="white"/>
<path d="M77.5617 96.7505C77.2394 96.1174 76.4931 95.7406 75.9062 95.4078C75.1808 94.9974 74.4415 94.6094 73.7091 94.2102C72.8054 93.7111 72.059 95.1869 72.9837 95.6523C73.73 96.029 74.4694 96.417 75.2118 96.775C75.8196 97.0741 76.5629 97.4807 77.235 97.376C77.5442 97.3295 77.7189 97.0484 77.5687 96.7392L77.5617 96.7505Z" fill="white"/>
<path d="M82.0012 98.5512C82.0012 98.5512 81.9016 98.5826 81.9467 98.6132C81.9918 98.6437 82.0463 98.5817 82.0012 98.5512Z" fill="white"/>
<path d="M65.6646 93.1275C65.769 92.5585 65.2586 92.1014 64.7998 91.887C64.4467 91.7282 63.8152 91.5411 63.4996 91.8234C63.4207 91.85 63.3309 91.8692 63.252 91.8958C62.9325 91.9837 63.0897 92.4577 63.3951 92.3924C63.442 92.3921 63.4999 92.3993 63.5538 92.3878C63.7951 92.551 64.1314 92.5865 64.3867 92.7271C64.7188 92.9197 64.956 93.24 65.3191 93.3576C65.4677 93.3942 65.6425 93.2884 65.6756 93.1349L65.6646 93.1275Z" fill="white"/>
<path d="M69.1374 99.5966C69.1374 99.5966 69.0378 99.628 69.0829 99.6586C69.128 99.6891 69.1825 99.6271 69.1374 99.5966Z" fill="white"/>
<path d="M70.8586 101.485C70.1271 100.56 69.2164 100.247 68.1874 99.7754C67.1075 99.2851 66.0246 98.8246 64.9347 98.3754C64.1715 98.0512 63.5663 99.1746 64.3343 99.5659C65.459 100.134 66.5906 100.692 67.7183 101.23C68.7294 101.706 69.5273 102.15 70.6397 102.087C70.9567 102.078 71.0398 101.719 70.8586 101.485Z" fill="white"/>
<path d="M80.488 104.309C80.1548 103.493 79.3372 103.355 78.5746 103.08C77.5687 102.719 76.5239 102.396 75.4719 102.26C74.9983 102.196 74.7433 102.806 75.1778 103.084C76.0249 103.625 76.9958 104.041 77.9259 104.398C78.6925 104.693 79.5605 105.2 80.313 104.766C80.4557 104.687 80.5487 104.462 80.477 104.302L80.488 104.309Z" fill="white"/>
<path d="M83.5224 100.642C83.5224 100.642 83.4228 100.673 83.4679 100.704C83.513 100.734 83.5675 100.673 83.5224 100.642Z" fill="white"/>
<path d="M87.0637 101.997C86.5266 101.282 85.6994 101.235 84.8773 101.078C84.4643 100.991 84.0443 100.915 83.6103 100.861C83.1473 100.804 82.8099 100.896 82.3528 100.954C82.1692 100.974 81.9942 101.256 82.1956 101.408C82.4778 101.631 82.721 101.891 83.0381 102.058C83.4171 102.25 83.871 102.397 84.267 102.537C84.9792 102.794 85.9595 103.298 86.6824 102.987C87.0258 102.835 87.3307 102.37 87.0527 101.99L87.0637 101.997Z" fill="white"/>
<path d="M69.8957 109.512C68.3022 108.324 66.4513 107.6 64.6702 106.763C62.8711 105.931 61.0782 105.039 59.2072 104.397C58.6814 104.217 58.4345 105.039 58.8934 105.301C60.6753 106.361 62.6108 107.174 64.4895 108.029C66.1611 108.791 67.8097 109.666 69.5933 110.073C69.8791 110.139 70.1624 109.708 69.8847 109.505L69.8957 109.512Z" fill="white"/>
<path d="M68.6438 113.953C67.9856 113.284 67.004 113.036 66.172 112.697C65.2055 112.299 64.2569 111.898 63.2904 111.5C62.6617 111.235 62.1652 112.208 62.8009 112.462C63.8292 112.886 64.8535 113.291 65.8818 113.714C66.6919 114.038 67.5596 114.545 68.4348 114.514C68.716 114.512 68.835 114.146 68.6328 113.945L68.6438 113.953Z" fill="white"/>
<path d="M59.8297 115.648C58.2681 114.305 55.8453 113.721 53.985 112.959C53.2656 112.664 52.6961 113.78 53.4225 114.064C55.3516 114.84 57.5324 116.139 59.6107 116.25C59.8958 116.267 60.0568 115.833 59.8367 115.636L59.8297 115.648Z" fill="white"/>
<path d="M55.1879 130.5C54.7492 129.452 53.4898 129.048 52.5126 128.691C51.2303 128.224 49.9158 127.958 48.5613 127.857C47.6257 127.784 47.6909 129.283 48.6155 129.348C49.7785 129.432 50.9155 129.657 52.0233 130.054C52.8987 130.374 53.8765 131.131 54.8193 131.018C55.0497 130.998 55.2974 130.75 55.184 130.481L55.1879 130.5Z" fill="white"/>
<path d="M67.4729 151.317C59.9936 147.061 51.0445 144.844 43.0278 141.853C42.469 141.651 42.2887 142.566 42.8295 142.772C50.7674 145.79 59.0428 150.041 67.3259 151.728C67.572 151.783 67.6949 151.435 67.4798 151.306L67.4729 151.317Z" fill="white"/>
<path d="M66.9809 144.172C66.9809 144.172 66.8813 144.204 66.9264 144.234C66.9715 144.265 67.026 144.203 66.9809 144.172Z" fill="white"/>
<path d="M84.8752 188.317C82.6584 178.592 80.3347 168.763 77.5277 159.184C77.4311 158.862 77.1042 158.785 76.839 158.91C76.6849 158.982 76.5308 159.054 76.3588 159.13C76.2047 159.202 76.1584 159.427 76.1902 159.577L76.2967 160.034C76.3166 160.128 76.4436 160.15 76.5037 160.078C76.2944 160.289 78.1689 165.967 78.365 166.757C78.9762 169.19 79.5764 171.617 80.1876 174.05C81.417 178.907 82.6105 183.771 83.9369 188.596C84.1082 189.225 85.0175 188.943 84.8642 188.31L84.8752 188.317Z" fill="white"/>
<path d="M89.2793 185.384C88.1992 182.78 87.1012 180.179 86.0212 177.574C85.7483 176.909 84.6959 177.222 84.9869 177.884C86.0739 180.477 87.1649 183.089 88.2519 185.682C88.5319 186.336 89.5592 186.038 89.2863 185.373L89.2793 185.384Z" fill="white"/>
<path d="M93.2636 183.429C93.0857 182.637 92.602 181.909 92.2412 181.185L91.0353 178.783C90.6974 178.123 89.7627 178.723 90.0896 179.377C90.4953 180.18 90.8899 180.975 91.2886 181.789C91.6494 182.514 91.9501 183.31 92.4788 183.939C92.819 184.346 93.3589 183.878 93.2566 183.441L93.2636 183.429Z" fill="white"/>
<path d="M94.9694 180.148C95.0065 180.013 94.9457 179.86 94.8609 179.77C94.6802 179.584 94.4644 179.454 94.2627 179.302C94.01 179.131 93.6668 179.507 93.8594 179.75C94.0151 179.951 94.1567 180.175 94.3444 180.35C94.4473 180.436 94.5931 180.502 94.7221 180.445C94.8871 180.381 94.9332 180.332 94.9803 180.156L94.9694 180.148Z" fill="white"/>
<path d="M162.179 160.033C152.296 158.401 142.926 155.342 133.204 153.05C133.004 152.996 132.877 153.325 133.074 153.41C142.168 157.162 152.444 158.964 162.046 160.647C162.426 160.712 162.558 160.098 162.179 160.033Z" fill="white"/>
<path d="M159.101 163.241C155.651 162.058 152.232 161.073 148.88 159.557C148.225 159.259 147.7 160.277 148.366 160.583C151.705 162.121 155.274 163.64 158.867 164.344C159.573 164.485 159.769 163.468 159.101 163.241Z" fill="white"/>
<path d="M136.095 199.009C130.814 197.515 125.503 195.667 120.166 194.438C119.84 194.362 119.623 194.886 119.954 195.03C125.018 197.223 130.585 198.558 135.923 199.787C136.415 199.896 136.574 199.141 136.095 199.009Z" fill="white"/>
<path d="M135.097 202.381C132.577 201.524 129.965 200.892 127.404 200.152C126.715 199.958 126.466 201.084 127.162 201.267C129.726 201.978 132.289 202.815 134.882 203.402C135.534 203.555 135.721 202.579 135.104 202.369L135.097 202.381Z" fill="white"/>
<path d="M133.549 208.296C127.033 205.425 120.609 202.154 114.001 199.556C113.54 199.372 113.164 200.027 113.64 200.285C119.908 203.705 126.582 206.699 133.226 209.241C133.744 209.432 134.076 208.524 133.56 208.303L133.549 208.296Z" fill="white"/>
<path d="M126.517 209.721C122.217 207.598 116.906 206.851 112.314 205.599C111.767 205.453 111.585 206.321 112.125 206.478C116.708 207.771 121.67 209.88 126.397 210.264C126.665 210.285 126.75 209.847 126.51 209.733L126.517 209.721Z" fill="white"/>
<path d="M119.956 213.723C118.096 212.833 115.984 212.572 113.992 212.119C111.724 211.609 109.474 211.095 107.206 210.584C106.525 210.427 106.297 211.52 106.968 211.67C109.228 212.191 111.496 212.702 113.746 213.216C115.739 213.668 117.768 214.337 119.806 214.34C120.105 214.335 120.223 213.871 119.931 213.738L119.956 213.723Z" fill="white"/>
<path d="M134.552 229.581C64.5518 485.436 350.552 348.148 404.552 703.849" stroke="white" stroke-linejoin="round" stroke-dasharray="8 8"/>
</svg>
