<svg width="50" height="52" viewBox="0 0 50 52" fill="none" xmlns="http://www.w3.org/2000/svg">
<path d="M47.8389 20.482C47.4832 20.3051 47.1253 20.1266 46.7711 19.9473C46.5443 19.8331 46.3986 19.7721 46.2276 19.5548C45.9927 19.2557 46.0499 19.1974 46.046 18.8124C46.0364 18.0818 45.9596 17.3584 45.8346 16.642C45.8212 16.565 45.7869 16.5073 45.741 16.4685C45.6728 16.2789 45.4598 16.1575 45.3003 16.344C45.0001 16.6962 44.7021 17.05 44.4018 17.4022C44.1449 17.7035 43.7543 18.3987 43.4138 18.5673C43.1846 18.6815 43.0958 18.5418 42.8426 18.3618C42.6477 18.226 42.46 18.0782 42.268 17.9376C41.8478 17.6276 41.4254 17.3162 41.0052 17.0063C40.8397 16.8842 40.5448 17.0135 40.5616 17.2519C40.639 18.3918 40.9655 19.4212 41.5441 20.3659C40.8716 21.284 40.2691 22.2476 39.736 23.263C39.6236 23.4756 39.7815 23.8191 40.0374 23.7336C40.7934 23.486 41.6425 23.0631 42.4281 22.9545C42.7233 22.9134 42.608 22.8229 42.7399 23.0738C42.8141 23.2169 42.815 23.4814 42.847 23.6424L43.1115 25.0616C43.1492 25.2706 43.4377 25.4075 43.5834 25.2283C44.2896 24.364 44.6965 23.3859 44.8108 22.2409C45.8836 21.9842 46.9029 21.592 47.8831 21.0507C48.1288 20.9142 48.0561 20.5861 47.8403 20.4796L47.8389 20.482ZM43.3019 22.9447C43.2457 22.6517 43.2271 22.3851 42.9402 22.2662C42.5996 22.1269 42.0944 22.4174 41.7773 22.521C41.385 22.6501 40.9942 22.7769 40.5998 22.9044C41.0649 22.0853 41.5788 21.3001 42.1414 20.5489C42.2257 20.4351 42.185 20.2782 42.1149 20.1753C41.6602 19.4894 41.3604 18.729 41.2196 17.9136C41.5814 18.1794 41.9419 18.4476 42.3037 18.7135C42.5947 18.9299 43.0288 19.4152 43.4201 19.3294C43.8004 19.2462 44.1003 18.6805 44.3413 18.3953C44.6769 18 45.0111 17.6071 45.3444 17.2103C45.4075 17.6433 45.4537 18.0781 45.4685 18.5181C45.4821 18.9132 45.3739 19.4738 45.5533 19.8391C45.6771 20.0877 45.8978 20.1807 46.1254 20.2988C46.4421 20.4621 46.7616 20.6207 47.0812 20.7792C46.283 21.1699 45.4557 21.4626 44.5944 21.6604C44.4375 21.6965 44.3739 21.8281 44.3755 21.9611C44.3066 22.0078 44.2526 22.0818 44.2422 22.1929C44.1679 22.9531 43.9399 23.65 43.555 24.268C43.4728 23.825 43.3928 23.3836 43.307 22.9415L43.3019 22.9447Z" fill="white"/>
<path d="M38.1523 24.1953C37.2758 23.0193 37.104 21.394 37.7303 20.0411C37.853 19.7748 37.4935 19.5208 37.3672 19.7879C36.648 21.3366 36.8178 23.1532 37.8281 24.5038C38.0022 24.7368 38.3241 24.4268 38.1523 24.1953Z" fill="white"/>
<path d="M36.1535 23.9013C35.8282 22.9066 35.7154 21.8672 35.803 20.8187C35.828 20.5214 35.3959 20.4975 35.3717 20.7987C35.2777 21.9308 35.4177 23.0399 35.7659 24.1115C35.8578 24.3921 36.2432 24.1804 36.1521 23.9037L36.1535 23.9013Z" fill="white"/>
<path d="M23.7854 6.33655C20.3901 9.02347 15.3825 8.81697 12.197 5.84156C11.8809 5.54675 11.3844 6.01591 11.7049 6.31381C15.1814 9.56312 20.5093 9.80689 24.2252 6.86982C24.5681 6.59809 24.1255 6.06959 23.7862 6.34048L23.7854 6.33655Z" fill="white"/>
<path d="M22.0583 10.3151C21.3299 10.5481 20.5993 10.7796 19.8723 11.0102C19.4669 11.1403 19.6026 11.8337 20.0103 11.7052C20.7387 11.4722 21.4693 11.2407 22.1963 11.0101C22.6017 10.88 22.466 10.1866 22.0583 10.3151Z" fill="white"/>
<path d="M27.7822 47.6075C29.5649 44.9898 31.3446 42.3667 33.1318 39.7522C34.0392 38.4245 34.9503 37.096 35.8578 35.7683C36.6948 34.5421 37.886 33.2221 38.4282 31.806C38.4726 31.6897 38.4105 31.5926 38.3235 31.5685C38.2918 31.4893 38.2275 31.4275 38.1259 31.4066C35.3146 30.8742 32.5255 30.0725 29.7578 29.3194C29.063 29.1307 28.3695 28.9397 27.6753 28.7447C27.1608 28.5987 27.114 28.5659 26.9271 28.0429C26.8087 27.712 26.7562 27.3401 26.6735 26.9973C26.3068 25.4905 25.9364 23.9845 25.5616 22.4754C25.3887 21.7813 25.2172 21.0847 25.0369 20.3922C24.9166 19.9325 24.8311 19.3567 24.5708 18.9296C24.5733 18.804 24.4876 18.7038 24.3847 18.6853C24.0101 18.2955 23.4521 18.1323 22.9882 17.9179C22.3216 17.6082 21.664 17.2782 21.0156 16.9277C20.3107 16.5444 19.6156 16.1344 18.9346 15.7007C18.2283 15.246 17.5361 14.7677 16.853 14.269C16.3339 13.8718 15.8181 13.4534 15.2898 13.0664C15.008 12.8388 14.7299 12.6104 14.4524 12.3758C14.4505 12.3208 14.427 12.2809 14.3913 12.2559C14.3716 12.2253 14.3477 12.2018 14.3099 12.1855C14.2588 12.1597 14.1906 12.1521 14.143 12.1891C13.9887 12.3089 13.9662 12.5578 13.9137 12.7455L13.898 12.7982C13.8909 12.81 13.8861 12.8233 13.882 12.8406C13.8556 12.9427 13.8284 13.0409 13.802 13.1431C13.7604 13.2915 13.7175 13.4424 13.6759 13.5908C13.5434 14.0442 13.3975 14.4881 13.2412 14.9281C12.9497 15.5884 12.642 16.2439 12.2909 16.8926C11.3976 18.5452 10.4754 20.1775 9.52939 21.7965C7.62613 25.0535 5.60017 28.2244 3.46913 31.3117C3.30916 31.5414 3.37582 31.8528 3.65313 31.9399C7.15961 33.0566 10.7018 34.0978 14.2851 34.8595C14.326 36.4128 15.3147 38.0606 15.7863 39.5035C16.3252 41.151 16.5604 42.8136 16.8323 44.5154C16.8087 44.5759 16.8005 44.6371 16.8046 44.6936C16.7586 44.839 16.8267 45.0476 16.9863 45.1091C18.6628 45.7477 20.4432 46.0972 22.1645 46.5662C23.8939 47.0375 25.6124 47.548 27.3364 48.039C27.6364 48.1252 27.8093 47.8476 27.7789 47.5918L27.7822 47.6075ZM37.8148 31.9727C37.4049 32.4394 37.0717 33.0001 36.7176 33.5059C36.2583 34.1658 35.7968 34.8242 35.3411 35.4833C34.4225 36.8032 33.5061 38.1247 32.5912 39.4438C30.9738 41.7752 29.3453 44.0988 27.7213 46.4255C27.7159 46.3447 27.6704 46.2726 27.579 46.2454C28.9654 44.2145 30.1304 41.9716 31.4155 39.8664C32.0761 38.7812 32.7433 37.7007 33.415 36.6233C34.1165 35.4964 34.948 34.3903 35.5298 33.1829C35.5776 33.1929 35.624 33.2054 35.6719 33.2154C36.0282 33.2976 36.1449 32.6857 35.7893 32.6342C33.3259 32.2719 30.8831 31.7062 28.4663 31.0548C27.8607 30.8918 27.1564 30.7769 26.5816 30.5149C26.4802 30.4673 26.3997 30.4378 26.333 30.4011C26.5509 30.0009 26.7607 29.5984 26.9476 29.1865C30.5577 30.1781 34.2104 30.9717 37.8163 31.9704L37.8148 31.9727ZM29.4506 37.3369C29.2197 37.7113 29.065 38.1223 29.038 38.5792C29.0188 38.8807 29.1688 39.217 28.8172 39.3962C28.6121 39.5004 27.8322 39.2053 27.5967 39.1541C27.4487 39.1208 27.3074 39.1927 27.2312 39.3303C27.0183 39.7273 26.0579 39.242 25.7235 39.2288C25.3657 39.2126 25.0132 39.3142 24.6943 39.476C23.8143 39.9182 23.3076 40.7997 22.6383 41.5034C21.6901 42.4976 22.3389 41.2735 22.5352 40.751C22.6975 40.3219 22.8481 39.8913 22.9079 39.4272C23.0252 38.4975 22.6249 37.9657 22.3107 37.2429C22.3631 37.1556 22.4155 37.0683 22.4678 36.9811C23.2562 35.6671 24.0356 34.3468 24.8016 33.0172C24.9225 32.8104 25.0462 32.5988 25.1707 32.3912C25.8692 32.5791 26.5465 32.8393 27.1694 33.2589C27.6346 33.5715 28.046 33.9368 28.5597 34.1527C29.1754 34.4099 29.8472 34.4786 30.4583 34.7593C30.7195 34.8786 31.3111 35.1759 31.1451 35.6058C31.0742 35.7873 30.6199 36.0587 30.4574 36.2028C30.0813 36.5391 29.7161 36.8997 29.4441 37.3425L29.4506 37.3369ZM22.0804 36.3645C22.0649 36.3904 22.0493 36.4164 22.0351 36.44C21.8764 35.9334 21.664 35.4528 21.0659 35.4727C20.7028 35.4863 20.5419 35.7757 20.2276 35.8771C19.0196 36.2637 19.2986 34.8374 19.2497 34.19C19.2205 33.811 19.1103 33.5193 18.8878 33.2193C18.6639 32.9217 18.3349 32.6778 18.2228 32.2943C18.1169 31.932 18.209 31.5408 18.2469 31.1819C18.3177 30.5145 18.4217 29.8871 18.1535 29.3305C18.6752 28.5032 19.1968 27.6759 19.723 26.8517C20.3937 25.7971 21.0622 24.7409 21.7321 23.6823C21.7093 24.1589 21.6959 24.6354 21.6848 25.1134C21.6659 25.8474 21.5538 26.5731 21.9455 27.2195C22.2028 27.641 22.3762 27.9804 22.3719 28.5C22.3682 28.8124 22.3368 29.1289 22.394 29.4403C22.489 29.9526 22.7283 30.3883 23.1529 30.5786C23.1059 30.9209 23.0567 31.2618 23.0097 31.6041C22.9868 31.769 23.0702 31.9682 23.2422 31.9983C23.6768 32.0715 24.1149 32.144 24.5477 32.2361C24.5123 32.2951 24.4805 32.3533 24.4474 32.4138C23.6747 33.7388 22.8872 35.0567 22.0855 36.3613L22.0804 36.3645ZM25.5222 30.4796C25.2984 30.8791 25.0791 31.2816 24.8576 31.6826C24.47 31.5786 24.0689 31.4919 23.649 31.4154C23.6947 31.0856 23.7419 30.7534 23.7877 30.4236C23.8106 30.2587 23.7272 30.0596 23.5552 30.0295C22.6581 29.8767 22.9822 28.539 22.86 27.8871C22.7694 27.4148 22.4612 27.1151 22.3004 26.6807C22.0704 26.0605 22.2282 25.2429 22.248 24.5866C22.2657 24.0026 22.2775 23.4178 22.2702 22.833C22.5327 22.4272 22.8156 22.0189 23.097 21.6029C23.2303 22.0515 23.3112 22.5504 23.4292 22.9716C23.7963 24.2876 24.1619 25.606 24.529 26.9221C24.7057 27.5519 24.8824 28.1817 25.0627 28.8106C25.1757 29.1981 25.3016 30.0235 25.523 30.4836L25.5222 30.4796ZM24.3843 20.223C24.6112 21.1493 24.8404 22.0772 25.0732 23.0044C25.559 24.9464 26.0375 26.8901 26.5087 28.8354C26.3099 29.135 26.12 29.4409 25.9369 29.7515C25.8699 29.4935 25.8324 29.2126 25.767 28.9624C25.4087 27.6424 25.038 26.3271 24.6673 25.0119C24.3147 23.7563 24.0063 22.4746 23.5947 21.2379C23.565 21.1501 23.5333 21.0709 23.4994 20.9902C23.7647 20.5796 24.0174 20.1637 24.2319 19.7376C24.2914 19.8865 24.3403 20.0481 24.382 20.2214L24.3843 20.223ZM21.6543 22.5656C20.843 23.8334 20.0399 25.1035 19.2353 26.3759C18.7993 27.0656 18.3625 27.7514 17.9243 28.4395C17.5963 27.9617 17.1639 27.5415 16.6375 27.3468C16.4064 27.2619 16.2055 27.2217 15.9685 27.3103C15.7352 27.3982 15.6353 27.6599 15.4308 27.7578C14.9956 27.9655 14.7142 27.2725 14.1881 27.3361C13.6948 27.3925 13.1725 27.7402 12.6943 28.0619C12.7409 27.7729 12.8074 27.4878 12.9205 27.2253C13.1838 26.6122 13.627 26.5073 14.0635 26.1229C14.3196 25.8969 14.2345 25.7535 14.379 25.4862C14.8152 24.6693 15.112 25.4369 15.5769 25.4912C15.8957 25.5303 16.2427 25.2742 16.2033 24.9014C16.1623 24.5209 15.7512 24.4507 16.2283 24.0779C16.6125 23.7809 17.3654 23.6986 17.7818 23.8865C17.9986 23.9847 18.268 23.805 18.1868 23.5336C18.0845 23.1972 19.0466 22.9667 19.2187 22.722C19.4016 22.4648 19.3776 22.2302 19.2923 21.9392C19.2314 21.729 19.1082 21.5489 19.0575 21.3324C18.8938 20.628 19.3738 20.2506 19.9709 20.4277C20.768 20.6679 21.2882 21.3642 21.7914 22.0149C21.8125 22.0431 21.8376 22.0541 21.8648 22.0563C21.8571 22.0744 21.8502 22.0964 21.8493 22.1192C21.8439 22.1757 21.8399 22.2299 21.8345 22.2864C21.7793 22.3784 21.7227 22.4728 21.663 22.5617L21.6543 22.5656ZM22.0276 21.9593C22.0276 21.9593 22.0122 21.9586 22.0026 21.9586C22.0123 21.9319 22.0125 21.9052 22.0023 21.8746C21.6237 20.8788 19.5311 18.9267 18.7031 20.4072C18.3339 21.07 19.1861 22.1161 18.546 22.5757C18.214 22.8122 17.7918 22.8715 17.6514 23.1953C17.0172 23.0324 16.305 23.237 15.7716 23.6138C15.5255 23.7865 15.2723 24.0447 15.2663 24.3822C15.2634 24.4874 15.3791 24.6959 15.3689 24.7658C15.3409 24.9338 15.2748 24.5792 15.1094 24.48C14.8378 24.3199 14.4932 24.3767 14.2485 24.547C14.0521 24.6842 14.0504 24.7768 13.9204 24.9671C13.6965 25.2928 13.8249 25.4062 13.3452 25.7938C13.2897 25.8387 13.2357 25.8813 13.1831 25.9215C13.1828 25.9113 13.1826 25.9011 13.1751 25.8925C13.0373 25.6786 12.8061 25.5568 12.5962 25.4366C12.33 25.2835 12.0546 25.1509 11.773 25.034C11.6186 24.9693 11.4963 25.2154 11.6544 25.2793C11.919 25.3876 12.1787 25.5092 12.4308 25.649C12.6479 25.7677 12.8611 25.9405 13.1017 25.9884C12.8183 26.202 12.5853 26.3738 12.3937 26.7724C12.1094 27.3572 12.0203 28.0286 11.9521 28.6811C11.9499 28.7164 11.9491 28.7494 11.9542 28.7831C11.4435 28.5358 10.8996 28.3491 10.4014 28.0703C10.2702 27.9985 10.1677 28.2116 10.2989 28.2834C10.8586 28.5918 11.5 28.9541 12.1384 29.073C12.2296 29.1269 12.3441 29.1368 12.4599 29.0705C12.9131 28.8117 13.5456 28.2697 14.0518 28.1654C14.6164 28.0483 14.6742 28.6015 15.1465 28.6912C15.412 28.7398 15.6248 28.6175 15.8174 28.4443C16.0777 28.2111 15.9944 28.1494 16.3919 28.1364C16.867 28.1209 17.1871 28.5328 17.4274 28.9457C17.3489 29.0449 17.3197 29.1886 17.3847 29.3179C16.721 30.3608 16.0574 31.4036 15.3982 32.4495C12.7692 31.74 10.1331 31.0053 7.47976 30.4261C8.7963 28.0045 10.0818 25.5713 11.3286 23.1075C12.5992 20.5934 13.9993 18.0327 14.9815 15.3601C16.8307 16.8837 18.9934 18.064 20.9416 19.4225C21.4993 19.8133 22.2816 20.2207 22.7277 20.808C22.4942 21.1973 22.2666 21.5873 22.0395 21.971L22.0276 21.9593ZM4.3918 31.3953C5.43219 29.7721 6.45554 28.1402 7.46247 26.4936C8.1461 25.391 8.81271 24.2799 9.46734 23.157C9.67114 22.8173 9.87495 22.4776 10.0735 22.1309C10.849 20.8012 11.6045 19.4575 12.2798 18.0677C12.4644 17.7178 12.6467 17.3664 12.829 17.015C13.4721 15.7634 14.3314 14.3416 14.49 12.8678C14.5078 12.8803 14.522 12.8936 14.5384 12.9085C15.4439 13.9082 16.6319 14.7272 17.6922 15.4635C19.1295 16.4639 20.6319 17.3558 22.1838 18.1283C22.5577 18.3132 22.9615 18.4588 23.3199 18.6696C23.5431 18.7993 23.7192 18.9495 23.8649 19.1186C23.5677 19.4766 23.2947 19.8683 23.0344 20.2757C22.6099 19.8107 22.0448 19.522 21.4344 19.1345C20.3785 18.4649 19.3339 17.7765 18.2878 17.0905C17.2314 16.4005 14.8569 14.6964 14.7489 14.8922C14.679 14.9136 12.1654 20.276 10.8427 22.824C9.48693 25.4325 8.04172 28.0052 6.51435 30.5035C6.37707 30.7324 6.55214 31.0427 6.77612 31.1025C9.50604 31.8392 12.2813 32.4 15.0416 32.9804C14.8099 33.3508 14.5745 33.722 14.3428 34.0924C11.012 33.2429 7.68557 32.3965 4.38875 31.3898L4.3918 31.3953ZM15.7955 33.0496C16.445 32.0304 17.0909 31.0119 17.7359 29.9896C17.9089 30.858 17.2483 31.9432 17.6817 32.8265C18.0262 33.5304 18.5254 33.7495 18.4869 34.664C18.4708 35.0817 18.5026 35.5094 18.6901 35.8887C19.02 36.5589 19.7504 36.9366 20.4146 36.6481C20.6542 36.5446 21.0553 36.2192 21.3269 36.5167C21.4476 36.6482 21.4585 37.0579 21.5143 37.2712C20.5132 38.8818 19.4956 40.4775 18.4558 42.0575C17.9729 40.6335 17.4894 39.2158 17.0683 37.768C16.6211 36.2317 16.364 34.5369 15.7939 33.0418L15.7955 33.0496ZM16.4189 39.4843C16.141 38.6429 15.8013 37.8252 15.4704 37.0036C15.1913 36.3121 15.001 35.5622 14.6995 34.8818C14.8414 34.8037 14.9131 34.6261 14.8884 34.4613C15.092 34.1483 15.2912 33.8321 15.4912 33.5199C15.6693 34.9448 16.178 36.4104 16.5647 37.757C17.0276 39.3781 17.525 40.9999 18.1173 42.5743C17.8738 42.9431 17.6303 43.312 17.3846 43.6793C17.2358 42.2582 16.8559 40.8158 16.4166 39.4827L16.4189 39.4843ZM21.85 38.0057C22.0393 38.3662 22.2012 38.7142 22.1352 39.2309C22.0097 40.2219 20.9689 41.4126 21.2305 42.4503C21.4753 43.4261 22.4763 42.814 22.9033 42.4296C23.7315 41.683 24.4863 39.9971 25.758 40.0639C26.4614 40.1011 27.2584 40.6159 27.7047 39.8932C28.2304 40.0204 28.9521 40.2647 29.373 39.9699C29.8898 39.6049 29.5967 38.773 29.7393 38.2396C29.9564 37.4233 30.6953 36.852 31.268 36.3252C31.6086 36.011 31.9577 35.6826 31.7684 35.1479C31.5868 34.6319 30.9747 34.337 30.5321 34.161C29.6936 33.8314 28.8481 33.7249 28.0835 33.1824C27.2185 32.5696 26.3769 32.1608 25.4849 31.8675C25.6703 31.5585 25.8557 31.2495 26.0322 30.9342C26.1628 30.9754 26.3091 31.0008 26.4727 31.0451C27.1055 31.2104 27.7381 31.3655 28.3715 31.5245C30.5987 32.0799 32.8361 32.5653 35.0683 33.0806C34.3679 33.947 33.8027 34.9683 33.1955 35.9066C32.4748 37.0233 31.7622 38.1424 31.0526 39.267C29.6477 41.4926 28.0798 43.7046 26.8941 46.0771C26.8941 46.0771 26.8927 46.0795 26.8913 46.0818C25.5097 45.7068 24.1582 45.1285 22.818 44.6317C21.9984 44.3288 21.1822 44.0149 20.3655 43.7073C19.8049 43.4955 19.2336 43.2224 18.6472 43.1064C19.7362 41.4234 20.8028 39.7247 21.8485 38.0081L21.85 38.0057ZM22.1759 45.7231C20.6839 45.321 19.1703 44.8702 17.6438 44.6417C17.9071 44.2398 18.1667 43.8387 18.4278 43.4352C18.8945 43.7454 19.4331 43.9251 19.948 44.1285C20.8102 44.4713 21.6821 44.7874 22.5554 45.1011C24.1649 45.6826 25.7928 46.3811 27.4687 46.6775C27.4945 46.6821 27.5208 46.6804 27.5449 46.6772C27.4319 46.8393 27.3174 47.0037 27.2043 47.1657C25.5383 46.6416 23.8587 46.1718 22.1773 45.7207L22.1759 45.7231Z" fill="white"/>
<path d="M16.1678 18.6365C15.9547 18.2144 15.4588 18.0474 15.0973 17.8145C14.9989 17.7524 14.89 17.9126 14.9835 17.988C15.3212 18.2607 15.6505 18.6942 16.0929 18.7506C16.1551 18.7574 16.1998 18.6988 16.1678 18.6365Z" fill="white"/>
<path d="M18.07 19.387C17.7745 19.1902 17.4632 19.109 17.1238 19.0483C17.0666 19.0383 17.028 19.108 17.072 19.1555C17.0892 19.1742 17.1064 19.1929 17.1236 19.2117C17.1164 19.2132 17.1135 19.2179 17.1166 19.2234C17.1232 19.2281 17.1261 19.2234 17.1289 19.2187C17.3507 19.454 17.5798 19.6511 17.8733 19.7831C18.1246 19.8956 18.3019 19.5426 18.0678 19.3854L18.07 19.387Z" fill="white"/>
<path d="M16.6876 20.1639C16.622 20.0313 16.4707 19.952 16.3516 19.8821C16.2045 19.7958 16.0546 19.7142 15.9061 19.6303C15.7228 19.5254 15.5724 19.8336 15.7599 19.9315C15.9113 20.0108 16.0612 20.0923 16.2117 20.1677C16.3349 20.2306 16.4857 20.316 16.6217 20.2945C16.6843 20.285 16.7196 20.2263 16.689 20.1615L16.6876 20.1639Z" fill="white"/>
<path d="M17.587 20.5404C17.587 20.5404 17.5672 20.5467 17.5762 20.5531C17.5853 20.5594 17.5961 20.5467 17.587 20.5404Z" fill="white"/>
<path d="M14.2774 19.4042C14.2983 19.285 14.1946 19.189 14.1014 19.1438C14.0297 19.1103 13.9015 19.0707 13.8376 19.1297C13.8216 19.1352 13.8034 19.1392 13.7874 19.1447C13.7227 19.163 13.7548 19.2624 13.8167 19.2489C13.8262 19.2489 13.838 19.2504 13.8489 19.248C13.8979 19.2823 13.9661 19.29 14.018 19.3196C14.0855 19.3601 14.1337 19.4274 14.2074 19.4522C14.2376 19.46 14.273 19.4379 14.2796 19.4058L14.2774 19.4042Z" fill="white"/>
<path d="M14.9803 20.7594C14.9803 20.7594 14.9604 20.7657 14.9695 20.7721C14.9785 20.7784 14.9893 20.7657 14.9803 20.7594Z" fill="white"/>
<path d="M15.3292 21.1567C15.1806 20.9628 14.996 20.897 14.7874 20.7977C14.5685 20.6945 14.349 20.5976 14.1281 20.503C13.9734 20.4347 13.8514 20.6693 14.0071 20.7516C14.2351 20.8712 14.4646 20.9883 14.6932 21.1016C14.8982 21.2017 15.0599 21.2949 15.2852 21.2825C15.3493 21.2808 15.366 21.2058 15.3292 21.1567Z" fill="white"/>
<path d="M17.2806 21.7485C17.2127 21.5775 17.047 21.5483 16.8924 21.4901C16.6885 21.4142 16.4768 21.346 16.2637 21.3169C16.1677 21.3032 16.1164 21.4307 16.2045 21.4891C16.3763 21.6027 16.5732 21.6904 16.7617 21.7657C16.9171 21.8278 17.0932 21.9343 17.2454 21.844C17.2742 21.8275 17.293 21.7805 17.2784 21.7469L17.2806 21.7485Z" fill="white"/>
<path d="M17.8954 20.9786C17.8954 20.9786 17.8755 20.985 17.8846 20.9913C17.8936 20.9976 17.9044 20.985 17.8954 20.9786Z" fill="white"/>
<path d="M18.613 21.2641C18.5039 21.1141 18.3363 21.1037 18.1696 21.0705C18.0859 21.052 18.0008 21.0358 17.9129 21.0243C17.819 21.0121 17.7507 21.0311 17.6582 21.0431C17.621 21.0471 17.5857 21.1059 17.6266 21.1379C17.6838 21.1846 17.7332 21.2393 17.7975 21.2743C17.8744 21.3148 17.9664 21.3458 18.0467 21.3753C18.1911 21.4297 18.39 21.5355 18.5363 21.4709C18.6058 21.4394 18.6673 21.3422 18.6108 21.2625L18.613 21.2641Z" fill="white"/>
<path d="M15.134 22.84C14.8108 22.5907 14.4357 22.4382 14.0747 22.2624C13.7101 22.0873 13.3467 21.8997 12.9676 21.7644C12.8611 21.7266 12.8115 21.8982 12.9045 21.9533C13.2658 22.176 13.658 22.3471 14.0388 22.5268C14.3776 22.6871 14.7118 22.8709 15.0731 22.9571C15.131 22.971 15.1881 22.8811 15.1318 22.8384L15.134 22.84Z" fill="white"/>
<path d="M14.8803 23.7702C14.7467 23.63 14.5478 23.5775 14.3791 23.5062C14.1832 23.4224 13.9909 23.3379 13.795 23.2541C13.6676 23.1983 13.5675 23.4016 13.6964 23.4551C13.9048 23.5443 14.1124 23.6296 14.3209 23.7188C14.4851 23.787 14.661 23.8935 14.8383 23.8875C14.8952 23.8873 14.9191 23.8107 14.8781 23.7687L14.8803 23.7702Z" fill="white"/>
<path d="M13.0942 24.1256C12.7773 23.8438 12.2864 23.7203 11.9093 23.5598C11.7634 23.4978 11.6487 23.7308 11.7959 23.7905C12.187 23.9542 12.6292 24.227 13.0501 24.2515C13.1079 24.2552 13.1403 24.1645 13.0956 24.1232L13.0942 24.1256Z" fill="white"/>
<path d="M12.1537 27.239C12.0643 27.0195 11.809 26.9343 11.6109 26.859C11.3509 26.7604 11.0846 26.7041 10.8102 26.6823C10.6206 26.6664 10.6346 26.98 10.8219 26.9943C11.0575 27.0124 11.2879 27.0602 11.5125 27.144C11.69 27.2115 11.8884 27.3704 12.0793 27.3472C12.126 27.3431 12.176 27.2913 12.1529 27.2351L12.1537 27.239Z" fill="white"/>
<path d="M14.643 31.6057C13.1266 30.7115 11.3135 30.2427 9.68892 29.6125C9.57568 29.57 9.53963 29.7612 9.64923 29.8046C11.2579 30.4402 12.9356 31.3339 14.6135 31.6916C14.6633 31.7031 14.688 31.6305 14.6444 31.6033L14.643 31.6057Z" fill="white"/>
<path d="M14.5433 30.1032C14.5433 30.1032 14.5234 30.1095 14.5325 30.1158C14.5415 30.1221 14.5523 30.1095 14.5433 30.1032Z" fill="white"/>
<path d="M18.1772 39.3567C17.7229 37.3184 17.2469 35.2581 16.673 33.25C16.6533 33.1825 16.587 33.1662 16.5333 33.1923C16.5021 33.2073 16.4709 33.2223 16.436 33.2381C16.4048 33.2531 16.3955 33.3003 16.4021 33.3317L16.4239 33.4274C16.428 33.4471 16.4537 33.4517 16.4659 33.4367C16.4235 33.4809 16.8064 34.6712 16.8466 34.8368C16.9717 35.3469 17.0946 35.8555 17.2197 36.3656C17.4714 37.3835 17.7157 38.4031 17.9871 39.4146C18.0221 39.5465 18.2063 39.4878 18.1749 39.3552L18.1772 39.3567Z" fill="white"/>
<path d="M19.064 38.7422C18.8438 38.1962 18.6199 37.651 18.3998 37.105C18.3441 36.9656 18.131 37.0305 18.1903 37.1692C18.4119 37.7128 18.6343 38.2603 18.8559 38.8039C18.913 38.941 19.121 38.8792 19.0654 38.7398L19.064 38.7422Z" fill="white"/>
<path d="M19.8705 38.3323C19.8341 38.1662 19.7357 38.0136 19.6622 37.8617L19.4166 37.3583C19.3478 37.2198 19.1587 37.345 19.2253 37.482C19.3079 37.6503 19.3883 37.8171 19.4695 37.9878C19.5429 38.1397 19.6043 38.3065 19.7118 38.4387C19.7809 38.5239 19.8901 38.4264 19.8691 38.3347L19.8705 38.3323Z" fill="white"/>
<path d="M20.2159 37.6448C20.2234 37.6165 20.2109 37.5843 20.1936 37.5655C20.1568 37.5263 20.1129 37.4989 20.0718 37.4668C20.0203 37.4307 19.9509 37.5094 19.9902 37.5604C20.022 37.6027 20.0509 37.6498 20.0892 37.6866C20.1101 37.7047 20.1398 37.7187 20.1659 37.7069C20.1994 37.6935 20.2087 37.6833 20.2182 37.6464L20.2159 37.6448Z" fill="white"/>
<path d="M33.8348 33.4347C31.8324 33.0875 29.9333 32.4421 27.963 31.9572C27.9226 31.9456 27.8971 32.0144 27.9369 32.0323C29.7807 32.8224 31.8627 33.2054 33.8083 33.563C33.8852 33.5768 33.9117 33.4486 33.8348 33.4347Z" fill="white"/>
<path d="M33.2112 34.1026C32.5118 33.8533 31.8191 33.6452 31.1394 33.3263C31.0066 33.2634 30.9009 33.4762 31.0359 33.5406C31.7128 33.8643 32.4363 34.1839 33.1642 34.3332C33.3072 34.3632 33.3465 34.1506 33.2112 34.1026Z" fill="white"/>
<path d="M28.5491 41.6015C27.4787 41.2859 26.4024 40.8962 25.3208 40.6361C25.2548 40.6199 25.2111 40.7294 25.2782 40.7597C26.3049 41.2215 27.433 41.504 28.5146 41.7641C28.6143 41.7872 28.646 41.6293 28.5491 41.6015Z" fill="white"/>
<path d="M28.3467 42.3065C27.8359 42.1259 27.3064 41.9922 26.7874 41.8358C26.6478 41.7947 26.598 42.0303 26.739 42.0689C27.2587 42.2191 27.7781 42.3958 28.3037 42.5201C28.4359 42.5526 28.4732 42.3484 28.3481 42.3042L28.3467 42.3065Z" fill="white"/>
<path d="M28.0332 43.5478C26.7125 42.9439 25.4105 42.2565 24.0714 41.7095C23.978 41.6708 23.9021 41.8074 23.9988 41.8617C25.2694 42.5804 26.622 43.2099 27.9681 43.7452C28.0732 43.7854 28.1399 43.5958 28.0354 43.5493L28.0332 43.5478Z" fill="white"/>
<path d="M26.608 43.8466C25.7362 43.3999 24.6603 43.2406 23.7295 42.9761C23.6186 42.9452 23.5823 43.1266 23.6918 43.1599C24.6205 43.4329 25.6266 43.8769 26.5841 43.96C26.6383 43.9645 26.6553 43.873 26.6066 43.8489L26.608 43.8466Z" fill="white"/>
<path d="M25.2786 44.685C24.9013 44.4976 24.4735 44.4418 24.0697 44.346C23.61 44.2379 23.1541 44.129 22.6945 44.0209C22.5564 43.9877 22.5108 44.2162 22.6467 44.2478C23.1049 44.3583 23.5645 44.4664 24.0205 44.5753C24.4243 44.6711 24.8357 44.8122 25.2485 44.8141C25.3091 44.8131 25.3326 44.7161 25.2736 44.6881L25.2786 44.685Z" fill="white"/>
</svg>
